<svg xmlns="http://www.w3.org/2000/svg" xmlns:xlink="http://www.w3.org/1999/xlink" width="1920" height="2035" fill="none" xmlns:v="https://vecta.io/nano"><style><![CDATA[.B{fill:#fff}.C{color-interpolation-filters:sRGB}.D{flood-opacity:0}.E{fill-opacity:.6}.F{fill-opacity:.9}.G{opacity:.8}]]></style><g filter="url(#A)" class="B"><ellipse rx="7.429" ry="8.514" transform="matrix(-.234245 -.972178 .873125 -.487495 683.661 77.8942)"/></g><g class="B"><path d="M688.283 78.557l-3.439.706-.826 3.777-1.299-3.341-3.438.706 2.635-2.771-1.299-3.341 2.928 1.629 2.636-2.771-.826 3.777 2.928 1.629z"/><path opacity=".6" d="M674.073 334.202l-3.26.473-.648 2.964-1.367-2.672-3.259.473 2.415-2.125-1.367-2.672 2.859 1.36 2.416-2.124-.649 2.964 2.86 1.359z" class="E"/></g><g filter="url(#B)" class="B"><ellipse rx="6.918" ry="6.885" transform="matrix(-.234245 -.972178 .873125 -.487495 1786.28 257.146)"/></g><path d="M1790.97 257.754l-3.48.678-.81 3.71-1.34-3.291-3.48.678 2.65-2.712-1.34-3.291 2.98 1.615 2.65-2.712-.81 3.71 2.98 1.615z" class="B E"/><g filter="url(#C)" class="B"><ellipse rx="6.918" ry="6.885" transform="matrix(-.234245 -.972178 .873125 -.487495 808.822 537.61)"/></g><path d="M813.508 538.218l-3.482.678-.811 3.71-1.341-3.291-3.481.678 2.653-2.711-1.341-3.291 2.981 1.614 2.653-2.711-.811 3.709 2.98 1.615z" class="B E"/><g filter="url(#D)" class="G B F"><ellipse rx="7.429" ry="8.514" transform="matrix(-.234245 -.972178 .873125 -.487495 1296 330.941)"/></g><path d="M1299.95 331.482l-2.98.804-.85 3.875-1-3.379-2.98.804 2.37-2.892-1-3.378 2.46 1.591 2.37-2.891-.85 3.875 2.46 1.591z" class="B G"/><g filter="url(#E)" class="B"><ellipse rx="6.761" ry="7.934" transform="matrix(-.319186 -.947692 .914534 -.404509 1189.56 150.812)"/></g><path d="M1193.84 151.797l-3.38.897-.9 4.712-1.19-4.158-3.39.897 2.65-3.466-1.19-4.157 2.83 2.015 2.64-3.466-.9 4.711 2.83 2.015z" class="B"/><g filter="url(#F)" class="B"><ellipse rx="3.005" ry="3.598" transform="matrix(-.390132 -.920759 .942679 -.333699 1101.07 173.799)"/></g><use xlink:href="#AI" class="B"/><g filter="url(#G)" class="B"><ellipse rx="3.005" ry="3.598" transform="matrix(-.390132 -.920759 .942679 -.333699 1173.06 73.794)"/></g><path d="M1175.13 74.307l-1.59.305-.33 1.98-.66-1.791-1.6.306 1.19-1.412-.66-1.791 1.39.918 1.19-1.412-.32 1.98 1.39.918z" class="B"/><g filter="url(#H)" class="B"><ellipse rx="3.005" ry="3.598" transform="matrix(-.390132 -.920759 .942679 -.333699 1440.18 156.097)"/></g><path d="M1442.25 156.61l-1.59.306-.33 1.979-.66-1.79-1.59.305 1.18-1.412-.66-1.791 1.39.918 1.19-1.412-.32 1.979 1.39.918z" class="B"/><g filter="url(#I)" class="B"><ellipse rx="3.005" ry="3.598" transform="matrix(-.390132 -.920759 .942679 -.333699 1608.17 360.813)"/></g><path d="M1610.24 361.327l-1.59.305-.33 1.98-.66-1.791-1.59.305 1.18-1.412-.66-1.79 1.39.917 1.19-1.412-.32 1.98 1.39.918z" class="B"/><g filter="url(#J)" class="B"><ellipse rx="3.005" ry="3.598" transform="matrix(-.390132 -.920759 .942679 -.333699 1671.64 117.653)"/></g><use xlink:href="#AI" x="570.57" y="-56.145" class="B"/><g filter="url(#K)" class="B"><ellipse rx="3.005" ry="3.598" transform="matrix(-.390132 -.920759 .942679 -.333699 1239.91 235.493)"/></g><path d="M1241.98 236.006l-1.6.306-.32 1.979-.67-1.791-1.59.306 1.19-1.412-.67-1.791 1.4.918 1.19-1.412-.33 1.979 1.4.918z" class="B"/><g filter="url(#L)" class="B"><ellipse rx="3.005" ry="3.598" transform="matrix(-.390132 -.920759 .942679 -.333699 754.281 263.367)"/></g><path d="M756.349 263.88l-1.596.306-.323 1.979-.663-1.79-1.595.305 1.186-1.412-.662-1.791 1.395.918 1.187-1.412-.324 1.979 1.395.918z" class="B"/><g filter="url(#M)" class="B"><ellipse rx="3.005" ry="3.598" transform="matrix(-.390132 -.920759 .942679 -.333699 1129.07 752.298)"/></g><path d="M1131.14 752.811l-1.6.306-.32 1.979-.66-1.79-1.6.305 1.19-1.412-.67-1.791 1.4.918 1.19-1.412-.33 1.98 1.4.917z" class="B"/><g filter="url(#N)" class="B"><ellipse rx="3.005" ry="3.598" transform="matrix(-.390132 -.920759 .942679 -.333699 1031.66 387.103)"/></g><path d="M1033.73 387.616l-1.6.305-.32 1.98-.67-1.791-1.59.306 1.19-1.412-.67-1.791 1.4.918 1.18-1.412-.32 1.979 1.4.918zM802.526 136.271l-1.595.305-.324 1.979-.662-1.79-1.595.305 1.186-1.412-.662-1.791 1.395.918 1.186-1.412-.324 1.98 1.395.918z" class="B"/><g filter="url(#O)" class="B"><ellipse rx="3.005" ry="3.598" transform="matrix(-.390132 -.920759 .942679 -.333699 1690 220.83)"/></g><path d="M1692.07 221.343l-1.6.306-.32 1.979-.66-1.791-1.6.306 1.19-1.412-.66-1.791 1.39.918 1.19-1.412-.33 1.979 1.4.918z" class="B"/><g filter="url(#P)" class="B"><ellipse rx="4.446" ry="5.267" transform="matrix(-.385385 -.922756 .941149 -.337992 1655.73 874.117)"/></g><path d="M1658.75 874.878l-2.33.453-.48 2.935-.96-2.655-2.33.453 1.73-2.094-.97-2.655 2.04 1.361 1.73-2.094-.47 2.935 2.04 1.361z" class="B"/><g filter="url(#Q)" class="B F"><ellipse rx="7.497" ry="6.751" transform="matrix(-.234245 -.972178 .873125 -.487495 1827.92 849.883)"/></g><path d="M1832.19 850.395l-2.8.377-.53 2.457-1.2-2.223-2.79.377 2.06-1.752-1.2-2.223 2.47 1.141 2.06-1.752-.53 2.457 2.46 1.141z" class="B"/><g filter="url(#R)" class="B"><ellipse rx="3.005" ry="3.598" transform="matrix(-.390132 -.920759 .942679 -.333699 1614.2 640.264)"/></g><path d="M1616.27 640.777l-1.6.305-.32 1.979-.66-1.79-1.6.305 1.19-1.412-.67-1.791 1.4.918 1.19-1.412-.33 1.98 1.4.918z" class="B"/><g filter="url(#S)" class="B"><ellipse rx="3.005" ry="3.598" transform="matrix(-.85999 -.510312 .561417 -.827533 1851.18 349.979)"/></g><path d="M1853.15 349.167l-1.1 1.192.91 1.786-1.59-1.05-1.11 1.192.12-1.841-1.59-1.049 1.67-.088.11-1.841.92 1.787 1.66-.088z" class="B"/><g filter="url(#T)" class="B"><ellipse rx="3.005" ry="3.598" transform="matrix(-.85999 -.510312 .561417 -.827533 1742.17 279.636)"/></g><path d="M1744.13 278.823l-1.1 1.192.91 1.786-1.59-1.05-1.1 1.192.11-1.84-1.59-1.05 1.67-.088.11-1.84.92 1.786 1.66-.088z" class="B"/><g filter="url(#U)" class="B"><ellipse rx="3.005" ry="3.598" transform="matrix(-.390132 -.920759 .942679 -.333699 1756.14 789.238)"/></g><path d="M1758.2 789.752l-1.59.305-.32 1.979-.67-1.79-1.59.305 1.18-1.412-.66-1.791 1.4.918 1.18-1.412-.32 1.98 1.39.918z" class="B"/><g filter="url(#V)" class="B"><ellipse rx="3.005" ry="3.598" transform="matrix(-.390132 -.920759 .942679 -.333699 799.94 135.042)"/></g><g filter="url(#W)" class="B"><ellipse rx="3.005" ry="3.598" transform="matrix(-.390132 -.920759 .942679 -.333699 669.549 332.807)"/></g><g filter="url(#X)" class="B"><ellipse rx="7.429" ry="8.514" transform="matrix(-.234245 -.972178 .873125 -.487495 754.216 263.325)"/></g><path opacity=".6" d="M759.148 262.922l-3.682.676-.829 3.794-1.446-3.376-3.682.676 2.788-2.763-1.445-3.376 3.168 1.669 2.789-2.762-.83 3.793 3.169 1.669z" class="B E"/><g filter="url(#Y)" class="B"><ellipse rx="7.429" ry="8.514" transform="matrix(.234245 -.972178 -.873125 -.487495 1833.94 1180.89)"/></g><g class="B"><path d="M1829.31 1181.56l3.44.7.83 3.78 1.3-3.34 3.44.7-2.64-2.77 1.3-3.34-2.93 1.63-2.63-2.77.82 3.78-2.93 1.63z"/><path opacity=".6" d="M1843.52 1437.2l3.26.48.65 2.96 1.37-2.67 3.26.47-2.42-2.12 1.37-2.68-2.86 1.36-2.41-2.12.64 2.96-2.86 1.36z" class="E"/></g><g filter="url(#Z)" class="B"><ellipse rx="6.918" ry="6.885" transform="matrix(.234245 -.972178 -.873125 -.487495 731.312 1360.15)"/></g><path d="M726.626 1360.75l3.482.68.811 3.71 1.341-3.29 3.481.68-2.653-2.71 1.341-3.29-2.981 1.61-2.653-2.71.811 3.71-2.98 1.61z" class="B E"/><g filter="url(#a)" class="B"><ellipse rx="6.918" ry="6.885" transform="matrix(.234245 -.972178 -.873125 -.487495 1708.78 1640.61)"/></g><path d="M1704.09 1641.22l3.48.68.81 3.71 1.34-3.29 3.48.67-2.65-2.71 1.34-3.29-2.98 1.62-2.65-2.72.81 3.71-2.98 1.62z" class="B E"/><g filter="url(#b)" class="G B F"><ellipse rx="7.429" ry="8.514" transform="matrix(.234245 -.972178 -.873125 -.487495 1221.6 1433.94)"/></g><path d="M1217.65 1434.48l2.98.81.85 3.87.99-3.38 2.98.81-2.36-2.9.99-3.37-2.45 1.59-2.37-2.89.85 3.87-2.46 1.59z" class="B G"/><g filter="url(#c)" class="B"><ellipse rx="6.761" ry="7.934" transform="matrix(.319186 -.947692 -.914534 -.404509 1328.04 1253.81)"/></g><path d="M1323.75 1254.8l3.39.89.9 4.72 1.19-4.16 3.38.9-2.64-3.47 1.19-4.16-2.83 2.02-2.65-3.47.9 4.71-2.83 2.02z" class="B"/><g filter="url(#d)" class="B"><ellipse rx="3.005" ry="3.598" transform="matrix(.390132 -.920759 -.942679 -.333699 1416.53 1276.8)"/></g><path d="M1414.46 1277.31l1.6.31.32 1.98.67-1.79 1.59.3-1.19-1.41.67-1.79-1.4.92-1.18-1.42.32 1.98-1.4.92z" class="B"/><g filter="url(#e)" class="B"><ellipse rx="3.005" ry="3.598" transform="matrix(.390132 -.920759 -.942679 -.333699 1344.53 1176.79)"/></g><path d="M1342.47 1177.31l1.59.3.33 1.98.66-1.79 1.59.31-1.18-1.42.66-1.79-1.4.92-1.18-1.41.32 1.98-1.39.92z" class="B"/><g filter="url(#f)" class="B"><ellipse rx="3.005" ry="3.598" transform="matrix(.390132 -.920759 -.942679 -.333699 1077.41 1259.1)"/></g><path d="M1075.35 1259.61l1.59.31.32 1.98.67-1.8 1.59.31-1.18-1.41.66-1.79-1.4.92-1.18-1.42.32 1.98-1.39.92z" class="B"/><g filter="url(#g)" class="B"><ellipse rx="3.005" ry="3.598" transform="matrix(.390132 -.920759 -.942679 -.333699 909.424 1463.81)"/></g><path d="M907.355 1464.33l1.595.3.324 1.98.662-1.79 1.596.31-1.186-1.42.662-1.79-1.395.92-1.187-1.41.324 1.98-1.395.92z" class="B"/><g filter="url(#h)" class="B"><ellipse rx="3.005" ry="3.598" transform="matrix(.390132 -.920759 -.942679 -.333699 845.962 1220.65)"/></g><path d="M843.893 1221.17l1.595.3.324 1.98.662-1.79 1.596.31-1.187-1.42.662-1.79-1.395.92-1.186-1.41.324 1.98-1.395.92z" class="B"/><g filter="url(#i)" class="B"><ellipse rx="3.005" ry="3.598" transform="matrix(.390132 -.920759 -.942679 -.333699 1277.69 1338.49)"/></g><path d="M1275.62 1339.01l1.6.3.32 1.98.66-1.79 1.6.31-1.19-1.42.66-1.79-1.39.92-1.19-1.41.33 1.98-1.4.92z" class="B"/><g filter="url(#j)" class="B"><ellipse rx="3.005" ry="3.598" transform="matrix(.390132 -.920759 -.942679 -.333699 1763.32 1366.37)"/></g><path d="M1761.25 1366.88l1.59.31.33 1.98.66-1.8 1.59.31-1.18-1.41.66-1.79-1.39.92-1.19-1.42.32 1.98-1.39.92z" class="B"/><g filter="url(#k)" class="B"><ellipse rx="3.005" ry="3.598" transform="matrix(.390132 -.920759 -.942679 -.333699 1388.53 1855.3)"/></g><path d="M1386.46 1855.81l1.6.31.32 1.98.66-1.79 1.6.3-1.19-1.41.66-1.79-1.39.92-1.19-1.42.33 1.98-1.4.92z" class="B"/><g filter="url(#l)" class="B"><ellipse rx="3.005" ry="3.598" transform="matrix(.390132 -.920759 -.942679 -.333699 1485.94 1490.1)"/></g><path d="M1483.87 1490.62l1.6.3.32 1.98.66-1.79 1.6.31-1.19-1.42.66-1.79-1.39.92-1.19-1.41.33 1.98-1.4.92zm231.2-251.35l1.6.31.32 1.98.66-1.8 1.6.31-1.19-1.41.66-1.79-1.39.92-1.19-1.42.33 1.98-1.4.92z" class="B"/><g filter="url(#m)" class="B"><ellipse rx="3.005" ry="3.598" transform="matrix(.390132 -.920759 -.942679 -.333699 827.598 1323.83)"/></g><path d="M825.529 1324.34l1.596.31.324 1.98.662-1.79 1.595.3-1.186-1.41.662-1.79-1.395.92-1.186-1.41.323 1.98-1.395.91z" class="B"/><g filter="url(#n)" class="B"><ellipse rx="4.446" ry="5.267" transform="matrix(.385385 -.922756 -.941149 -.337992 861.871 1977.12)"/></g><path d="M858.847 1977.88l2.332.45.473 2.94.968-2.66 2.332.45-1.734-2.09.968-2.66-2.04 1.37-1.733-2.1.473 2.94-2.039 1.36z" class="B"/><g filter="url(#o)" class="B F"><ellipse rx="7.497" ry="6.751" transform="matrix(.234245 -.972178 -.873125 -.487495 689.682 1952.88)"/></g><path d="M685.403 1953.39l2.799.38.538 2.46 1.192-2.22 2.8.37-2.062-1.75 1.192-2.22-2.467 1.14-2.062-1.75.537 2.45-2.467 1.14z" class="B"/><g filter="url(#p)" class="B"><ellipse rx="3.005" ry="3.598" transform="matrix(.390132 -.920759 -.942679 -.333699 903.398 1743.26)"/></g><path d="M901.33 1743.78l1.596.3.323 1.98.662-1.79 1.596.31-1.186-1.42.662-1.79-1.395.92-1.187-1.41.324 1.98-1.395.92z" class="B"/><g filter="url(#q)" class="B"><ellipse rx="3.005" ry="3.598" transform="matrix(.85999 -.510312 -.561417 -.827533 666.413 1452.98)"/></g><path d="M664.443 1452.17l1.104 1.19-.912 1.78 1.594-1.04 1.104 1.19-.118-1.84 1.594-1.05-1.667-.09-.119-1.84-.912 1.78-1.668-.08z" class="B"/><g filter="url(#r)" class="B"><ellipse rx="3.005" ry="3.598" transform="matrix(.85999 -.510312 -.561417 -.827533 775.432 1382.64)"/></g><path d="M773.462 1381.82l1.104 1.19-.912 1.79 1.594-1.05 1.104 1.19-.118-1.84 1.594-1.05-1.667-.08-.119-1.85-.912 1.79-1.668-.09z" class="B"/><g filter="url(#s)" class="B"><ellipse rx="3.005" ry="3.598" transform="matrix(.390132 -.920759 -.942679 -.333699 761.462 1892.24)"/></g><path d="M759.393 1892.75l1.595.31.324 1.98.662-1.79 1.595.3-1.186-1.41.662-1.79-1.395.92-1.186-1.42.324 1.98-1.395.92z" class="B"/><g filter="url(#t)" class="B"><ellipse rx="3.005" ry="3.598" transform="matrix(.390132 -.920759 -.942679 -.333699 1717.66 1238.04)"/></g><g filter="url(#u)" class="B"><ellipse rx="3.005" ry="3.598" transform="matrix(.390132 -.920759 -.942679 -.333699 1848.05 1435.81)"/></g><g filter="url(#v)" class="B"><ellipse rx="7.429" ry="8.514" transform="matrix(.234245 -.972178 -.873125 -.487495 1763.38 1366.33)"/></g><path opacity=".6" d="M1758.45 1365.92l3.68.68.83 3.79 1.45-3.37 3.68.67-2.79-2.76 1.45-3.38-3.17 1.67-2.79-2.76.83 3.79-3.17 1.67z" class="B E"/><g filter="url(#w)" class="B"><ellipse rx="6.918" ry="6.885" transform="matrix(-.234245 -.972178 .873125 -.487495 441.574 449.146)"/></g><path d="M446.261 449.754l-3.482.678-.811 3.71-1.341-3.291-3.482.678 2.654-2.712-1.341-3.291 2.98 1.615 2.654-2.712-.812 3.71 2.981 1.615z" class="B E"/><g filter="url(#x)" class="G B F"><ellipse rx="7.429" ry="8.514" transform="matrix(-.234245 -.972178 .873125 -.487495 -48.7132 522.941)"/></g><g filter="url(#y)" class="B"><ellipse rx="3.005" ry="3.598" transform="matrix(-.390132 -.920759 .942679 -.333699 95.4727 348.097)"/></g><path d="M97.542 348.61l-1.595.306-.324 1.979-.662-1.79-1.595.305 1.186-1.412-.662-1.791 1.395.918 1.186-1.412-.324 1.979 1.395.918z" class="B"/><g filter="url(#z)" class="B"><ellipse rx="3.005" ry="3.598" transform="matrix(-.390132 -.920759 .942679 -.333699 263.463 552.813)"/></g><path d="M265.532 553.327l-1.596.305-.324 1.98-.662-1.791-1.595.305 1.186-1.412-.662-1.79 1.395.917 1.186-1.412-.324 1.98 1.396.918z" class="B"/><g filter="url(#AA)" class="B"><ellipse rx="3.005" ry="3.598" transform="matrix(-.390132 -.920759 .942679 -.333699 326.925 309.653)"/></g><path d="M328.994 310.167l-1.596.305-.323 1.98-.663-1.791-1.595.305 1.186-1.412-.662-1.79 1.395.918 1.187-1.413-.324 1.98 1.395.918z" class="B"/><g filter="url(#AB)" class="B"><ellipse rx="3.005" ry="3.598" transform="matrix(-.390132 -.920759 .942679 -.333699 345.288 412.83)"/></g><path d="M347.357 413.343l-1.595.306-.324 1.979-.662-1.791-1.595.306 1.186-1.412-.662-1.791 1.395.918 1.186-1.412-.324 1.979 1.395.918z" class="B"/><g filter="url(#AC)" class="B"><ellipse rx="4.446" ry="5.267" transform="matrix(-.385385 -.922756 .941149 -.337992 311.016 1066.12)"/></g><path d="M314.04 1066.88l-2.332.45-.474 2.94-.967-2.66-2.332.45 1.734-2.09-.968-2.66 2.039 1.37 1.734-2.1-.473 2.94 2.039 1.36z" class="B"/><g filter="url(#AD)" class="B F"><ellipse rx="7.497" ry="6.751" transform="matrix(-.234245 -.972178 .873125 -.487495 483.205 1041.88)"/></g><path d="M487.484 1042.39l-2.8.38-.537 2.46-1.193-2.22-2.799.37 2.062-1.75-1.193-2.22 2.467 1.14 2.063-1.75-.538 2.45 2.468 1.14z" class="B"/><g filter="url(#AE)" class="B"><ellipse rx="3.005" ry="3.598" transform="matrix(-.390132 -.920759 .942679 -.333699 269.489 832.264)"/></g><path d="M271.557 832.777l-1.596.305-.324 1.979-.662-1.79-1.595.305 1.186-1.412-.662-1.791 1.395.918 1.186-1.412-.324 1.98 1.396.918z" class="B"/><g filter="url(#AF)" class="B"><ellipse rx="3.005" ry="3.598" transform="matrix(-.85999 -.510312 .561417 -.827533 506.474 541.979)"/></g><path d="M508.444 541.167l-1.104 1.192.912 1.786-1.594-1.05-1.104 1.192.118-1.841-1.595-1.049 1.668-.088.118-1.841.913 1.787 1.668-.088z" class="B"/><g filter="url(#AG)" class="B"><ellipse rx="3.005" ry="3.598" transform="matrix(-.85999 -.510312 .561417 -.827533 397.455 471.636)"/></g><path d="M399.425 470.823l-1.104 1.192.912 1.786-1.594-1.05-1.104 1.192.118-1.84-1.595-1.05 1.668-.088.118-1.84.913 1.786 1.668-.088z" class="B"/><g filter="url(#AH)" class="B"><ellipse rx="3.005" ry="3.598" transform="matrix(-.390132 -.920759 .942679 -.333699 411.425 981.238)"/></g><path d="M413.494 981.752l-1.595.305-.324 1.979-.662-1.79-1.596.305 1.187-1.412-.663-1.791 1.396.918 1.186-1.412-.324 1.98 1.395.918z" class="B"/><defs><filter id="A" x="623.025" y="16.563" width="121.273" height="122.662" filterUnits="userSpaceOnUse" class="C"><feFlood class="D"/><feBlend in="SourceGraphic"/><feGaussianBlur stdDeviation="26.5"/></filter><filter id="B" x="1727.06" y="196.628" width="118.455" height="121.036" filterUnits="userSpaceOnUse" class="C"><feFlood class="D"/><feBlend in="SourceGraphic"/><feGaussianBlur stdDeviation="26.5"/></filter><filter id="C" x="749.594" y="477.093" width="118.455" height="121.036" filterUnits="userSpaceOnUse" class="C"><feFlood class="D"/><feBlend in="SourceGraphic"/><feGaussianBlur stdDeviation="26.5"/></filter><filter id="D" x="1235.36" y="269.61" width="121.273" height="122.662" filterUnits="userSpaceOnUse" class="C"><feFlood class="D"/><feBlend in="SourceGraphic"/><feGaussianBlur stdDeviation="26.5"/></filter><filter id="E" x="1128.98" y="90.645" width="121.143" height="120.335" filterUnits="userSpaceOnUse" class="C"><feFlood class="D"/><feBlend in="SourceGraphic"/><feGaussianBlur stdDeviation="26.5"/></filter><filter id="F" x="1044.48" y="117.782" width="113.179" height="112.034" filterUnits="userSpaceOnUse" class="C"><feFlood class="D"/><feBlend in="SourceGraphic"/><feGaussianBlur stdDeviation="26.5"/></filter><filter id="G" x="1116.47" y="17.777" width="113.179" height="112.034" filterUnits="userSpaceOnUse" class="C"><feFlood class="D"/><feBlend in="SourceGraphic"/><feGaussianBlur stdDeviation="26.5"/></filter><filter id="H" x="1383.59" y="100.08" width="113.179" height="112.034" filterUnits="userSpaceOnUse" class="C"><feFlood class="D"/><feBlend in="SourceGraphic"/><feGaussianBlur stdDeviation="26.5"/></filter><filter id="I" x="1551.58" y="304.797" width="113.179" height="112.034" filterUnits="userSpaceOnUse" class="C"><feFlood class="D"/><feBlend in="SourceGraphic"/><feGaussianBlur stdDeviation="26.5"/></filter><filter id="J" x="1615.05" y="61.637" width="113.179" height="112.034" filterUnits="userSpaceOnUse" class="C"><feFlood class="D"/><feBlend in="SourceGraphic"/><feGaussianBlur stdDeviation="26.5"/></filter><filter id="K" x="1183.32" y="179.476" width="113.179" height="112.034" filterUnits="userSpaceOnUse" class="C"><feFlood class="D"/><feBlend in="SourceGraphic"/><feGaussianBlur stdDeviation="26.5"/></filter><filter id="L" x="697.691" y="207.35" width="113.179" height="112.034" filterUnits="userSpaceOnUse" class="C"><feFlood class="D"/><feBlend in="SourceGraphic"/><feGaussianBlur stdDeviation="26.5"/></filter><filter id="M" x="1072.48" y="696.281" width="113.179" height="112.034" filterUnits="userSpaceOnUse" class="C"><feFlood class="D"/><feBlend in="SourceGraphic"/><feGaussianBlur stdDeviation="26.5"/></filter><filter id="N" x="975.067" y="331.086" width="113.179" height="112.034" filterUnits="userSpaceOnUse" class="C"><feFlood class="D"/><feBlend in="SourceGraphic"/><feGaussianBlur stdDeviation="26.5"/></filter><filter id="O" x="1633.41" y="164.813" width="113.179" height="112.034" filterUnits="userSpaceOnUse" class="C"><feFlood class="D"/><feBlend in="SourceGraphic"/><feGaussianBlur stdDeviation="26.5"/></filter><filter id="P" x="1597.48" y="816.644" width="116.493" height="114.947" filterUnits="userSpaceOnUse" class="C"><feFlood class="D"/><feBlend in="SourceGraphic"/><feGaussianBlur stdDeviation="26.5"/></filter><filter id="Q" x="1768.76" y="788.883" width="118.305" height="121.998" filterUnits="userSpaceOnUse" class="C"><feFlood class="D"/><feBlend in="SourceGraphic"/><feGaussianBlur stdDeviation="26.5"/></filter><filter id="R" x="1557.61" y="584.247" width="113.179" height="112.034" filterUnits="userSpaceOnUse" class="C"><feFlood class="D"/><feBlend in="SourceGraphic"/><feGaussianBlur stdDeviation="26.5"/></filter><filter id="S" x="1794.9" y="293.63" width="112.56" height="112.7" filterUnits="userSpaceOnUse" class="C"><feFlood class="D"/><feBlend in="SourceGraphic"/><feGaussianBlur stdDeviation="26.5"/></filter><filter id="T" x="1685.89" y="223.286" width="112.56" height="112.7" filterUnits="userSpaceOnUse" class="C"><feFlood class="D"/><feBlend in="SourceGraphic"/><feGaussianBlur stdDeviation="26.5"/></filter><filter id="U" x="1699.55" y="733.221" width="113.179" height="112.034" filterUnits="userSpaceOnUse" class="C"><feFlood class="D"/><feBlend in="SourceGraphic"/><feGaussianBlur stdDeviation="26.5"/></filter><filter id="V" x="743.35" y="79.025" width="113.179" height="112.034" filterUnits="userSpaceOnUse" class="C"><feFlood class="D"/><feBlend in="SourceGraphic"/><feGaussianBlur stdDeviation="26.5"/></filter><filter id="W" x="612.96" y="276.79" width="113.179" height="112.034" filterUnits="userSpaceOnUse" class="C"><feFlood class="D"/><feBlend in="SourceGraphic"/><feGaussianBlur stdDeviation="26.5"/></filter><filter id="X" x="693.58" y="201.994" width="121.273" height="122.662" filterUnits="userSpaceOnUse" class="C"><feFlood class="D"/><feBlend in="SourceGraphic"/><feGaussianBlur stdDeviation="26.5"/></filter><filter id="Y" x="1773.3" y="1119.56" width="121.273" height="122.662" filterUnits="userSpaceOnUse" class="C"><feFlood class="D"/><feBlend in="SourceGraphic"/><feGaussianBlur stdDeviation="26.5"/></filter><filter id="Z" x="672.085" y="1299.63" width="118.455" height="121.036" filterUnits="userSpaceOnUse" class="C"><feFlood class="D"/><feBlend in="SourceGraphic"/><feGaussianBlur stdDeviation="26.5"/></filter><filter id="a" x="1649.55" y="1580.09" width="118.455" height="121.036" filterUnits="userSpaceOnUse" class="C"><feFlood class="D"/><feBlend in="SourceGraphic"/><feGaussianBlur stdDeviation="26.5"/></filter><filter id="b" x="1160.96" y="1372.61" width="121.273" height="122.662" filterUnits="userSpaceOnUse" class="C"><feFlood class="D"/><feBlend in="SourceGraphic"/><feGaussianBlur stdDeviation="26.5"/></filter><filter id="c" x="1267.47" y="1193.65" width="121.143" height="120.334" filterUnits="userSpaceOnUse" class="C"><feFlood class="D"/><feBlend in="SourceGraphic"/><feGaussianBlur stdDeviation="26.5"/></filter><filter id="d" x="1359.94" y="1220.78" width="113.179" height="112.034" filterUnits="userSpaceOnUse" class="C"><feFlood class="D"/><feBlend in="SourceGraphic"/><feGaussianBlur stdDeviation="26.5"/></filter><filter id="e" x="1287.94" y="1120.78" width="113.179" height="112.034" filterUnits="userSpaceOnUse" class="C"><feFlood class="D"/><feBlend in="SourceGraphic"/><feGaussianBlur stdDeviation="26.5"/></filter><filter id="f" x="1020.82" y="1203.08" width="113.179" height="112.034" filterUnits="userSpaceOnUse" class="C"><feFlood class="D"/><feBlend in="SourceGraphic"/><feGaussianBlur stdDeviation="26.5"/></filter><filter id="g" x="852.834" y="1407.8" width="113.179" height="112.034" filterUnits="userSpaceOnUse" class="C"><feFlood class="D"/><feBlend in="SourceGraphic"/><feGaussianBlur stdDeviation="26.5"/></filter><filter id="h" x="789.372" y="1164.64" width="113.179" height="112.034" filterUnits="userSpaceOnUse" class="C"><feFlood class="D"/><feBlend in="SourceGraphic"/><feGaussianBlur stdDeviation="26.5"/></filter><filter id="i" x="1221.1" y="1282.48" width="113.179" height="112.034" filterUnits="userSpaceOnUse" class="C"><feFlood class="D"/><feBlend in="SourceGraphic"/><feGaussianBlur stdDeviation="26.5"/></filter><filter id="j" x="1706.73" y="1310.35" width="113.179" height="112.034" filterUnits="userSpaceOnUse" class="C"><feFlood class="D"/><feBlend in="SourceGraphic"/><feGaussianBlur stdDeviation="26.5"/></filter><filter id="k" x="1331.94" y="1799.28" width="113.179" height="112.034" filterUnits="userSpaceOnUse" class="C"><feFlood class="D"/><feBlend in="SourceGraphic"/><feGaussianBlur stdDeviation="26.5"/></filter><filter id="l" x="1429.35" y="1434.09" width="113.179" height="112.034" filterUnits="userSpaceOnUse" class="C"><feFlood class="D"/><feBlend in="SourceGraphic"/><feGaussianBlur stdDeviation="26.5"/></filter><filter id="m" x="771.009" y="1267.81" width="113.179" height="112.034" filterUnits="userSpaceOnUse" class="C"><feFlood class="D"/><feBlend in="SourceGraphic"/><feGaussianBlur stdDeviation="26.5"/></filter><filter id="n" x="803.624" y="1919.64" width="116.493" height="114.947" filterUnits="userSpaceOnUse" class="C"><feFlood class="D"/><feBlend in="SourceGraphic"/><feGaussianBlur stdDeviation="26.5"/></filter><filter id="o" x="630.529" y="1891.88" width="118.305" height="121.998" filterUnits="userSpaceOnUse" class="C"><feFlood class="D"/><feBlend in="SourceGraphic"/><feGaussianBlur stdDeviation="26.5"/></filter><filter id="p" x="846.808" y="1687.25" width="113.179" height="112.034" filterUnits="userSpaceOnUse" class="C"><feFlood class="D"/><feBlend in="SourceGraphic"/><feGaussianBlur stdDeviation="26.5"/></filter><filter id="q" x="610.132" y="1396.63" width="112.56" height="112.7" filterUnits="userSpaceOnUse" class="C"><feFlood class="D"/><feBlend in="SourceGraphic"/><feGaussianBlur stdDeviation="26.5"/></filter><filter id="r" x="719.152" y="1326.29" width="112.56" height="112.7" filterUnits="userSpaceOnUse" class="C"><feFlood class="D"/><feBlend in="SourceGraphic"/><feGaussianBlur stdDeviation="26.5"/></filter><filter id="s" x="704.872" y="1836.22" width="113.179" height="112.034" filterUnits="userSpaceOnUse" class="C"><feFlood class="D"/><feBlend in="SourceGraphic"/><feGaussianBlur stdDeviation="26.5"/></filter><filter id="t" x="1661.07" y="1182.02" width="113.179" height="112.034" filterUnits="userSpaceOnUse" class="C"><feFlood class="D"/><feBlend in="SourceGraphic"/><feGaussianBlur stdDeviation="26.5"/></filter><filter id="u" x="1791.46" y="1379.79" width="113.179" height="112.034" filterUnits="userSpaceOnUse" class="C"><feFlood class="D"/><feBlend in="SourceGraphic"/><feGaussianBlur stdDeviation="26.5"/></filter><filter id="v" x="1702.74" y="1304.99" width="121.273" height="122.662" filterUnits="userSpaceOnUse" class="C"><feFlood class="D"/><feBlend in="SourceGraphic"/><feGaussianBlur stdDeviation="26.5"/></filter><filter id="w" x="382.347" y="388.628" width="118.455" height="121.036" filterUnits="userSpaceOnUse" class="C"><feFlood class="D"/><feBlend in="SourceGraphic"/><feGaussianBlur stdDeviation="26.5"/></filter><filter id="x" x="-109.35" y="461.61" width="121.273" height="122.662" filterUnits="userSpaceOnUse" class="C"><feFlood class="D"/><feBlend in="SourceGraphic"/><feGaussianBlur stdDeviation="26.5"/></filter><filter id="y" x="38.883" y="292.08" width="113.179" height="112.034" filterUnits="userSpaceOnUse" class="C"><feFlood class="D"/><feBlend in="SourceGraphic"/><feGaussianBlur stdDeviation="26.5"/></filter><filter id="z" x="206.873" y="496.797" width="113.179" height="112.034" filterUnits="userSpaceOnUse" class="C"><feFlood class="D"/><feBlend in="SourceGraphic"/><feGaussianBlur stdDeviation="26.5"/></filter><filter id="AA" x="270.335" y="253.637" width="113.179" height="112.034" filterUnits="userSpaceOnUse" class="C"><feFlood class="D"/><feBlend in="SourceGraphic"/><feGaussianBlur stdDeviation="26.5"/></filter><filter id="AB" x="288.699" y="356.813" width="113.179" height="112.034" filterUnits="userSpaceOnUse" class="C"><feFlood class="D"/><feBlend in="SourceGraphic"/><feGaussianBlur stdDeviation="26.5"/></filter><filter id="AC" x="252.769" y="1008.64" width="116.493" height="114.947" filterUnits="userSpaceOnUse" class="C"><feFlood class="D"/><feBlend in="SourceGraphic"/><feGaussianBlur stdDeviation="26.5"/></filter><filter id="AD" x="424.053" y="980.884" width="118.305" height="121.998" filterUnits="userSpaceOnUse" class="C"><feFlood class="D"/><feBlend in="SourceGraphic"/><feGaussianBlur stdDeviation="26.5"/></filter><filter id="AE" x="212.899" y="776.247" width="113.179" height="112.034" filterUnits="userSpaceOnUse" class="C"><feFlood class="D"/><feBlend in="SourceGraphic"/><feGaussianBlur stdDeviation="26.5"/></filter><filter id="AF" x="450.194" y="485.63" width="112.56" height="112.7" filterUnits="userSpaceOnUse" class="C"><feFlood class="D"/><feBlend in="SourceGraphic"/><feGaussianBlur stdDeviation="26.5"/></filter><filter id="AG" x="341.175" y="415.286" width="112.56" height="112.7" filterUnits="userSpaceOnUse" class="C"><feFlood class="D"/><feBlend in="SourceGraphic"/><feGaussianBlur stdDeviation="26.5"/></filter><filter id="AH" x="354.835" y="925.221" width="113.179" height="112.034" filterUnits="userSpaceOnUse" class="C"><feFlood class="D"/><feBlend in="SourceGraphic"/><feGaussianBlur stdDeviation="26.5"/></filter><path id="AI" d="M1103.13 174.312l-1.59.305-.33 1.98-.66-1.791-1.59.305 1.18-1.412-.66-1.79 1.4.918 1.18-1.413-.32 1.98 1.39.918z"/></defs></svg>