<svg width="1920" height="2035" viewBox="0 0 1920 2035" fill="none" xmlns="http://www.w3.org/2000/svg">
<g filter="url(#filter0_f_110_2)">
<ellipse rx="7.4285" ry="8.51405" transform="matrix(-0.234245 -0.972178 0.873125 -0.487495 683.661 77.8942)" fill="white"/>
</g>
<path d="M688.283 78.5565L684.844 79.2624L684.018 83.0397L682.719 79.6986L679.281 80.4044L681.916 77.6336L680.617 74.2925L683.545 75.9212L686.181 73.1505L685.355 76.9278L688.283 78.5565Z" fill="white"/>
<path opacity="0.6" d="M674.073 334.202L670.813 334.675L670.165 337.639L668.798 334.967L665.539 335.44L667.954 333.315L666.587 330.643L669.446 332.003L671.862 329.879L671.213 332.843L674.073 334.202Z" fill="white" fill-opacity="0.6"/>
<g filter="url(#filter1_f_110_2)">
<ellipse rx="6.91772" ry="6.88466" transform="matrix(-0.234245 -0.972178 0.873125 -0.487495 1786.28 257.146)" fill="white"/>
</g>
<path d="M1790.97 257.754L1787.49 258.432L1786.68 262.142L1785.34 258.851L1781.86 259.529L1784.51 256.817L1783.17 253.526L1786.15 255.141L1788.8 252.429L1787.99 256.139L1790.97 257.754Z" fill="white" fill-opacity="0.6"/>
<g filter="url(#filter2_f_110_2)">
<ellipse rx="6.91772" ry="6.88466" transform="matrix(-0.234245 -0.972178 0.873125 -0.487495 808.822 537.61)" fill="white"/>
</g>
<path d="M813.508 538.218L810.026 538.896L809.215 542.606L807.874 539.315L804.393 539.993L807.046 537.282L805.705 533.991L808.686 535.605L811.339 532.894L810.528 536.603L813.508 538.218Z" fill="white" fill-opacity="0.6"/>
<g opacity="0.8" filter="url(#filter3_f_110_2)">
<ellipse rx="7.4285" ry="8.51405" transform="matrix(-0.234245 -0.972178 0.873125 -0.487495 1296 330.941)" fill="white" fill-opacity="0.9"/>
</g>
<path opacity="0.8" d="M1299.95 331.482L1296.97 332.286L1296.12 336.161L1295.12 332.782L1292.14 333.586L1294.51 330.694L1293.51 327.316L1295.97 328.907L1298.34 326.016L1297.49 329.891L1299.95 331.482Z" fill="white"/>
<g filter="url(#filter4_f_110_2)">
<ellipse rx="6.76053" ry="7.93354" transform="matrix(-0.319186 -0.947692 0.914534 -0.404509 1189.56 150.812)" fill="white"/>
</g>
<path d="M1193.84 151.797L1190.46 152.694L1189.56 157.406L1188.37 153.248L1184.98 154.145L1187.63 150.679L1186.44 146.522L1189.27 148.537L1191.91 145.071L1191.01 149.782L1193.84 151.797Z" fill="white"/>
<g filter="url(#filter5_f_110_2)">
<ellipse rx="3.00483" ry="3.59801" transform="matrix(-0.390132 -0.920759 0.942679 -0.333699 1101.07 173.799)" fill="white"/>
</g>
<path d="M1103.13 174.312L1101.54 174.617L1101.21 176.597L1100.55 174.806L1098.96 175.111L1100.14 173.699L1099.48 171.909L1100.88 172.827L1102.06 171.414L1101.74 173.394L1103.13 174.312Z" fill="white"/>
<g filter="url(#filter6_f_110_2)">
<ellipse rx="3.00483" ry="3.59801" transform="matrix(-0.390132 -0.920759 0.942679 -0.333699 1173.06 73.794)" fill="white"/>
</g>
<path d="M1175.13 74.3074L1173.54 74.6128L1173.21 76.5923L1172.55 74.8016L1170.95 75.1071L1172.14 73.6949L1171.48 71.9043L1172.87 72.8222L1174.06 71.41L1173.74 73.3895L1175.13 74.3074Z" fill="white"/>
<g filter="url(#filter7_f_110_2)">
<ellipse rx="3.00483" ry="3.59801" transform="matrix(-0.390132 -0.920759 0.942679 -0.333699 1440.18 156.097)" fill="white"/>
</g>
<path d="M1442.25 156.61L1440.66 156.916L1440.33 158.895L1439.67 157.105L1438.08 157.41L1439.26 155.998L1438.6 154.207L1439.99 155.125L1441.18 153.713L1440.86 155.692L1442.25 156.61Z" fill="white"/>
<g filter="url(#filter8_f_110_2)">
<ellipse rx="3.00483" ry="3.59801" transform="matrix(-0.390132 -0.920759 0.942679 -0.333699 1608.17 360.813)" fill="white"/>
</g>
<path d="M1610.24 361.327L1608.65 361.632L1608.32 363.612L1607.66 361.821L1606.07 362.126L1607.25 360.714L1606.59 358.924L1607.98 359.841L1609.17 358.429L1608.85 360.409L1610.24 361.327Z" fill="white"/>
<g filter="url(#filter9_f_110_2)">
<ellipse rx="3.00483" ry="3.59801" transform="matrix(-0.390132 -0.920759 0.942679 -0.333699 1671.64 117.653)" fill="white"/>
</g>
<path d="M1673.7 118.167L1672.11 118.472L1671.78 120.452L1671.12 118.661L1669.53 118.966L1670.71 117.554L1670.05 115.764L1671.45 116.682L1672.63 115.269L1672.31 117.249L1673.7 118.167Z" fill="white"/>
<g filter="url(#filter10_f_110_2)">
<ellipse rx="3.00483" ry="3.59801" transform="matrix(-0.390132 -0.920759 0.942679 -0.333699 1239.91 235.493)" fill="white"/>
</g>
<path d="M1241.98 236.006L1240.38 236.312L1240.06 238.291L1239.39 236.5L1237.8 236.806L1238.99 235.394L1238.32 233.603L1239.72 234.521L1240.91 233.109L1240.58 235.088L1241.98 236.006Z" fill="white"/>
<g filter="url(#filter11_f_110_2)">
<ellipse rx="3.00483" ry="3.59801" transform="matrix(-0.390132 -0.920759 0.942679 -0.333699 754.281 263.367)" fill="white"/>
</g>
<path d="M756.349 263.88L754.753 264.186L754.43 266.165L753.767 264.375L752.172 264.68L753.358 263.268L752.696 261.477L754.091 262.395L755.278 260.983L754.954 262.962L756.349 263.88Z" fill="white"/>
<g filter="url(#filter12_f_110_2)">
<ellipse rx="3.00483" ry="3.59801" transform="matrix(-0.390132 -0.920759 0.942679 -0.333699 1129.07 752.298)" fill="white"/>
</g>
<path d="M1131.14 752.811L1129.54 753.117L1129.22 755.096L1128.56 753.306L1126.96 753.611L1128.15 752.199L1127.48 750.408L1128.88 751.326L1130.07 749.914L1129.74 751.894L1131.14 752.811Z" fill="white"/>
<g filter="url(#filter13_f_110_2)">
<ellipse rx="3.00483" ry="3.59801" transform="matrix(-0.390132 -0.920759 0.942679 -0.333699 1031.66 387.103)" fill="white"/>
</g>
<path d="M1033.73 387.616L1032.13 387.921L1031.81 389.901L1031.14 388.11L1029.55 388.416L1030.74 387.004L1030.07 385.213L1031.47 386.131L1032.65 384.719L1032.33 386.698L1033.73 387.616Z" fill="white"/>
<path d="M802.526 136.271L800.931 136.576L800.607 138.555L799.945 136.765L798.35 137.07L799.536 135.658L798.874 133.867L800.269 134.785L801.455 133.373L801.131 135.353L802.526 136.271Z" fill="white"/>
<g filter="url(#filter14_f_110_2)">
<ellipse rx="3.00483" ry="3.59801" transform="matrix(-0.390132 -0.920759 0.942679 -0.333699 1690 220.83)" fill="white"/>
</g>
<path d="M1692.07 221.343L1690.47 221.649L1690.15 223.628L1689.49 221.837L1687.89 222.143L1689.08 220.731L1688.42 218.94L1689.81 219.858L1691 218.446L1690.67 220.425L1692.07 221.343Z" fill="white"/>
<g filter="url(#filter15_f_110_2)">
<ellipse rx="4.44601" ry="5.26747" transform="matrix(-0.385385 -0.922756 0.941149 -0.337992 1655.73 874.117)" fill="white"/>
</g>
<path d="M1658.75 874.878L1656.42 875.331L1655.94 878.266L1654.98 875.611L1652.65 876.064L1654.38 873.97L1653.41 871.315L1655.45 872.676L1657.18 870.582L1656.71 873.517L1658.75 874.878Z" fill="white"/>
<g filter="url(#filter16_f_110_2)">
<ellipse rx="7.49701" ry="6.7514" transform="matrix(-0.234245 -0.972178 0.873125 -0.487495 1827.92 849.883)" fill="white" fill-opacity="0.9"/>
</g>
<path d="M1832.19 850.395L1829.39 850.772L1828.86 853.229L1827.66 851.006L1824.87 851.383L1826.93 849.631L1825.73 847.408L1828.2 848.549L1830.26 846.797L1829.73 849.254L1832.19 850.395Z" fill="white"/>
<g filter="url(#filter17_f_110_2)">
<ellipse rx="3.00483" ry="3.59801" transform="matrix(-0.390132 -0.920759 0.942679 -0.333699 1614.2 640.264)" fill="white"/>
</g>
<path d="M1616.27 640.777L1614.67 641.082L1614.35 643.061L1613.69 641.271L1612.09 641.576L1613.28 640.164L1612.61 638.373L1614.01 639.291L1615.2 637.879L1614.87 639.859L1616.27 640.777Z" fill="white"/>
<g filter="url(#filter18_f_110_2)">
<ellipse rx="3.00483" ry="3.59801" transform="matrix(-0.85999 -0.510312 0.561417 -0.827533 1851.18 349.979)" fill="white"/>
</g>
<path d="M1853.15 349.167L1852.05 350.359L1852.96 352.145L1851.37 351.095L1850.26 352.287L1850.38 350.446L1848.79 349.397L1850.46 349.309L1850.57 347.468L1851.49 349.255L1853.15 349.167Z" fill="white"/>
<g filter="url(#filter19_f_110_2)">
<ellipse rx="3.00483" ry="3.59801" transform="matrix(-0.85999 -0.510312 0.561417 -0.827533 1742.17 279.636)" fill="white"/>
</g>
<path d="M1744.13 278.823L1743.03 280.015L1743.94 281.801L1742.35 280.751L1741.25 281.943L1741.36 280.103L1739.77 279.053L1741.44 278.965L1741.55 277.125L1742.47 278.911L1744.13 278.823Z" fill="white"/>
<g filter="url(#filter20_f_110_2)">
<ellipse rx="3.00483" ry="3.59801" transform="matrix(-0.390132 -0.920759 0.942679 -0.333699 1756.14 789.238)" fill="white"/>
</g>
<path d="M1758.2 789.752L1756.61 790.057L1756.29 792.036L1755.62 790.246L1754.03 790.551L1755.21 789.139L1754.55 787.348L1755.95 788.266L1757.13 786.854L1756.81 788.834L1758.2 789.752Z" fill="white"/>
<g filter="url(#filter21_f_110_2)">
<ellipse rx="3.00483" ry="3.59801" transform="matrix(-0.390132 -0.920759 0.942679 -0.333699 799.94 135.042)" fill="white"/>
</g>
<g filter="url(#filter22_f_110_2)">
<ellipse rx="3.00483" ry="3.59801" transform="matrix(-0.390132 -0.920759 0.942679 -0.333699 669.549 332.807)" fill="white"/>
</g>
<g filter="url(#filter23_f_110_2)">
<ellipse rx="7.4285" ry="8.51405" transform="matrix(-0.234245 -0.972178 0.873125 -0.487495 754.216 263.325)" fill="white"/>
</g>
<path opacity="0.6" d="M759.148 262.922L755.466 263.598L754.637 267.392L753.191 264.016L749.509 264.692L752.297 261.929L750.852 258.553L754.02 260.222L756.809 257.46L755.979 261.253L759.148 262.922Z" fill="white" fill-opacity="0.6"/>
<g filter="url(#filter24_f_110_2)">
<ellipse rx="7.4285" ry="8.51405" transform="matrix(0.234245 -0.972178 -0.873125 -0.487495 1833.94 1180.89)" fill="white"/>
</g>
<path d="M1829.31 1181.56L1832.75 1182.26L1833.58 1186.04L1834.88 1182.7L1838.32 1183.4L1835.68 1180.63L1836.98 1177.29L1834.05 1178.92L1831.42 1176.15L1832.24 1179.93L1829.31 1181.56Z" fill="white"/>
<path opacity="0.6" d="M1843.52 1437.2L1846.78 1437.68L1847.43 1440.64L1848.8 1437.97L1852.06 1438.44L1849.64 1436.32L1851.01 1433.64L1848.15 1435L1845.74 1432.88L1846.38 1435.84L1843.52 1437.2Z" fill="white" fill-opacity="0.6"/>
<g filter="url(#filter25_f_110_2)">
<ellipse rx="6.91772" ry="6.88466" transform="matrix(0.234245 -0.972178 -0.873125 -0.487495 731.312 1360.15)" fill="white"/>
</g>
<path d="M726.626 1360.75L730.108 1361.43L730.919 1365.14L732.26 1361.85L735.741 1362.53L733.088 1359.82L734.429 1356.53L731.448 1358.14L728.795 1355.43L729.606 1359.14L726.626 1360.75Z" fill="white" fill-opacity="0.6"/>
<g filter="url(#filter26_f_110_2)">
<ellipse rx="6.91772" ry="6.88466" transform="matrix(0.234245 -0.972178 -0.873125 -0.487495 1708.78 1640.61)" fill="white"/>
</g>
<path d="M1704.09 1641.22L1707.57 1641.9L1708.38 1645.61L1709.72 1642.32L1713.2 1642.99L1710.55 1640.28L1711.89 1636.99L1708.91 1638.61L1706.26 1635.89L1707.07 1639.6L1704.09 1641.22Z" fill="white" fill-opacity="0.6"/>
<g opacity="0.8" filter="url(#filter27_f_110_2)">
<ellipse rx="7.4285" ry="8.51405" transform="matrix(0.234245 -0.972178 -0.873125 -0.487495 1221.6 1433.94)" fill="white" fill-opacity="0.9"/>
</g>
<path opacity="0.8" d="M1217.65 1434.48L1220.63 1435.29L1221.48 1439.16L1222.47 1435.78L1225.45 1436.59L1223.09 1433.69L1224.08 1430.32L1221.63 1431.91L1219.26 1429.02L1220.11 1432.89L1217.65 1434.48Z" fill="white"/>
<g filter="url(#filter28_f_110_2)">
<ellipse rx="6.76053" ry="7.93354" transform="matrix(0.319186 -0.947692 -0.914534 -0.404509 1328.04 1253.81)" fill="white"/>
</g>
<path d="M1323.75 1254.8L1327.14 1255.69L1328.04 1260.41L1329.23 1256.25L1332.61 1257.15L1329.97 1253.68L1331.16 1249.52L1328.33 1251.54L1325.68 1248.07L1326.58 1252.78L1323.75 1254.8Z" fill="white"/>
<g filter="url(#filter29_f_110_2)">
<ellipse rx="3.00483" ry="3.59801" transform="matrix(0.390132 -0.920759 -0.942679 -0.333699 1416.53 1276.8)" fill="white"/>
</g>
<path d="M1414.46 1277.31L1416.06 1277.62L1416.38 1279.6L1417.05 1277.81L1418.64 1278.11L1417.45 1276.7L1418.12 1274.91L1416.72 1275.83L1415.54 1274.41L1415.86 1276.39L1414.46 1277.31Z" fill="white"/>
<g filter="url(#filter30_f_110_2)">
<ellipse rx="3.00483" ry="3.59801" transform="matrix(0.390132 -0.920759 -0.942679 -0.333699 1344.53 1176.79)" fill="white"/>
</g>
<path d="M1342.47 1177.31L1344.06 1177.61L1344.39 1179.59L1345.05 1177.8L1346.64 1178.11L1345.46 1176.69L1346.12 1174.9L1344.72 1175.82L1343.54 1174.41L1343.86 1176.39L1342.47 1177.31Z" fill="white"/>
<g filter="url(#filter31_f_110_2)">
<ellipse rx="3.00483" ry="3.59801" transform="matrix(0.390132 -0.920759 -0.942679 -0.333699 1077.41 1259.1)" fill="white"/>
</g>
<path d="M1075.35 1259.61L1076.94 1259.92L1077.26 1261.9L1077.93 1260.1L1079.52 1260.41L1078.34 1259L1079 1257.21L1077.6 1258.13L1076.42 1256.71L1076.74 1258.69L1075.35 1259.61Z" fill="white"/>
<g filter="url(#filter32_f_110_2)">
<ellipse rx="3.00483" ry="3.59801" transform="matrix(0.390132 -0.920759 -0.942679 -0.333699 909.424 1463.81)" fill="white"/>
</g>
<path d="M907.355 1464.33L908.95 1464.63L909.274 1466.61L909.936 1464.82L911.532 1465.13L910.346 1463.71L911.008 1461.92L909.613 1462.84L908.426 1461.43L908.75 1463.41L907.355 1464.33Z" fill="white"/>
<g filter="url(#filter33_f_110_2)">
<ellipse rx="3.00483" ry="3.59801" transform="matrix(0.390132 -0.920759 -0.942679 -0.333699 845.962 1220.65)" fill="white"/>
</g>
<path d="M843.893 1221.17L845.488 1221.47L845.812 1223.45L846.474 1221.66L848.07 1221.97L846.883 1220.55L847.545 1218.76L846.15 1219.68L844.964 1218.27L845.288 1220.25L843.893 1221.17Z" fill="white"/>
<g filter="url(#filter34_f_110_2)">
<ellipse rx="3.00483" ry="3.59801" transform="matrix(0.390132 -0.920759 -0.942679 -0.333699 1277.69 1338.49)" fill="white"/>
</g>
<path d="M1275.62 1339.01L1277.22 1339.31L1277.54 1341.29L1278.2 1339.5L1279.8 1339.81L1278.61 1338.39L1279.27 1336.6L1277.88 1337.52L1276.69 1336.11L1277.02 1338.09L1275.62 1339.01Z" fill="white"/>
<g filter="url(#filter35_f_110_2)">
<ellipse rx="3.00483" ry="3.59801" transform="matrix(0.390132 -0.920759 -0.942679 -0.333699 1763.32 1366.37)" fill="white"/>
</g>
<path d="M1761.25 1366.88L1762.84 1367.19L1763.17 1369.17L1763.83 1367.37L1765.42 1367.68L1764.24 1366.27L1764.9 1364.48L1763.51 1365.4L1762.32 1363.98L1762.64 1365.96L1761.25 1366.88Z" fill="white"/>
<g filter="url(#filter36_f_110_2)">
<ellipse rx="3.00483" ry="3.59801" transform="matrix(0.390132 -0.920759 -0.942679 -0.333699 1388.53 1855.3)" fill="white"/>
</g>
<path d="M1386.46 1855.81L1388.06 1856.12L1388.38 1858.1L1389.04 1856.31L1390.64 1856.61L1389.45 1855.2L1390.11 1853.41L1388.72 1854.33L1387.53 1852.91L1387.86 1854.89L1386.46 1855.81Z" fill="white"/>
<g filter="url(#filter37_f_110_2)">
<ellipse rx="3.00483" ry="3.59801" transform="matrix(0.390132 -0.920759 -0.942679 -0.333699 1485.94 1490.1)" fill="white"/>
</g>
<path d="M1483.87 1490.62L1485.47 1490.92L1485.79 1492.9L1486.45 1491.11L1488.05 1491.42L1486.86 1490L1487.52 1488.21L1486.13 1489.13L1484.94 1487.72L1485.27 1489.7L1483.87 1490.62Z" fill="white"/>
<path d="M1715.07 1239.27L1716.67 1239.58L1716.99 1241.56L1717.65 1239.76L1719.25 1240.07L1718.06 1238.66L1718.72 1236.87L1717.33 1237.79L1716.14 1236.37L1716.47 1238.35L1715.07 1239.27Z" fill="white"/>
<g filter="url(#filter38_f_110_2)">
<ellipse rx="3.00483" ry="3.59801" transform="matrix(0.390132 -0.920759 -0.942679 -0.333699 827.598 1323.83)" fill="white"/>
</g>
<path d="M825.529 1324.34L827.125 1324.65L827.449 1326.63L828.111 1324.84L829.706 1325.14L828.52 1323.73L829.182 1321.94L827.787 1322.86L826.601 1321.45L826.924 1323.43L825.529 1324.34Z" fill="white"/>
<g filter="url(#filter39_f_110_2)">
<ellipse rx="4.44601" ry="5.26747" transform="matrix(0.385385 -0.922756 -0.941149 -0.337992 861.871 1977.12)" fill="white"/>
</g>
<path d="M858.847 1977.88L861.179 1978.33L861.652 1981.27L862.62 1978.61L864.952 1979.06L863.218 1976.97L864.186 1974.31L862.146 1975.68L860.413 1973.58L860.886 1976.52L858.847 1977.88Z" fill="white"/>
<g filter="url(#filter40_f_110_2)">
<ellipse rx="7.49701" ry="6.7514" transform="matrix(0.234245 -0.972178 -0.873125 -0.487495 689.682 1952.88)" fill="white" fill-opacity="0.9"/>
</g>
<path d="M685.403 1953.39L688.202 1953.77L688.74 1956.23L689.932 1954.01L692.732 1954.38L690.67 1952.63L691.862 1950.41L689.395 1951.55L687.333 1949.8L687.87 1952.25L685.403 1953.39Z" fill="white"/>
<g filter="url(#filter41_f_110_2)">
<ellipse rx="3.00483" ry="3.59801" transform="matrix(0.390132 -0.920759 -0.942679 -0.333699 903.398 1743.26)" fill="white"/>
</g>
<path d="M901.33 1743.78L902.926 1744.08L903.249 1746.06L903.911 1744.27L905.507 1744.58L904.321 1743.16L904.983 1741.37L903.588 1742.29L902.401 1740.88L902.725 1742.86L901.33 1743.78Z" fill="white"/>
<g filter="url(#filter42_f_110_2)">
<ellipse rx="3.00483" ry="3.59801" transform="matrix(0.85999 -0.510312 -0.561417 -0.827533 666.413 1452.98)" fill="white"/>
</g>
<path d="M664.443 1452.17L665.547 1453.36L664.635 1455.14L666.229 1454.1L667.333 1455.29L667.215 1453.45L668.809 1452.4L667.142 1452.31L667.023 1450.47L666.111 1452.25L664.443 1452.17Z" fill="white"/>
<g filter="url(#filter43_f_110_2)">
<ellipse rx="3.00483" ry="3.59801" transform="matrix(0.85999 -0.510312 -0.561417 -0.827533 775.432 1382.64)" fill="white"/>
</g>
<path d="M773.462 1381.82L774.566 1383.01L773.654 1384.8L775.248 1383.75L776.352 1384.94L776.234 1383.1L777.828 1382.05L776.161 1381.97L776.042 1380.12L775.13 1381.91L773.462 1381.82Z" fill="white"/>
<g filter="url(#filter44_f_110_2)">
<ellipse rx="3.00483" ry="3.59801" transform="matrix(0.390132 -0.920759 -0.942679 -0.333699 761.462 1892.24)" fill="white"/>
</g>
<path d="M759.393 1892.75L760.988 1893.06L761.312 1895.04L761.974 1893.25L763.569 1893.55L762.383 1892.14L763.045 1890.35L761.65 1891.27L760.464 1889.85L760.788 1891.83L759.393 1892.75Z" fill="white"/>
<g filter="url(#filter45_f_110_2)">
<ellipse rx="3.00483" ry="3.59801" transform="matrix(0.390132 -0.920759 -0.942679 -0.333699 1717.66 1238.04)" fill="white"/>
</g>
<g filter="url(#filter46_f_110_2)">
<ellipse rx="3.00483" ry="3.59801" transform="matrix(0.390132 -0.920759 -0.942679 -0.333699 1848.05 1435.81)" fill="white"/>
</g>
<g filter="url(#filter47_f_110_2)">
<ellipse rx="7.4285" ry="8.51405" transform="matrix(0.234245 -0.972178 -0.873125 -0.487495 1763.38 1366.33)" fill="white"/>
</g>
<path opacity="0.6" d="M1758.45 1365.92L1762.13 1366.6L1762.96 1370.39L1764.41 1367.02L1768.09 1367.69L1765.3 1364.93L1766.75 1361.55L1763.58 1363.22L1760.79 1360.46L1761.62 1364.25L1758.45 1365.92Z" fill="white" fill-opacity="0.6"/>
<g filter="url(#filter48_f_110_2)">
<ellipse rx="6.91772" ry="6.88466" transform="matrix(-0.234245 -0.972178 0.873125 -0.487495 441.574 449.146)" fill="white"/>
</g>
<path d="M446.261 449.754L442.779 450.432L441.968 454.142L440.627 450.851L437.145 451.529L439.799 448.817L438.458 445.526L441.438 447.141L444.092 444.429L443.28 448.139L446.261 449.754Z" fill="white" fill-opacity="0.6"/>
<g opacity="0.8" filter="url(#filter49_f_110_2)">
<ellipse rx="7.4285" ry="8.51405" transform="matrix(-0.234245 -0.972178 0.873125 -0.487495 -48.7132 522.941)" fill="white" fill-opacity="0.9"/>
</g>
<g filter="url(#filter50_f_110_2)">
<ellipse rx="3.00483" ry="3.59801" transform="matrix(-0.390132 -0.920759 0.942679 -0.333699 95.4727 348.097)" fill="white"/>
</g>
<path d="M97.5415 348.61L95.9462 348.916L95.6222 350.895L94.9602 349.105L93.3649 349.41L94.551 347.998L93.889 346.207L95.2841 347.125L96.4703 345.713L96.1464 347.692L97.5415 348.61Z" fill="white"/>
<g filter="url(#filter51_f_110_2)">
<ellipse rx="3.00483" ry="3.59801" transform="matrix(-0.390132 -0.920759 0.942679 -0.333699 263.463 552.813)" fill="white"/>
</g>
<path d="M265.532 553.327L263.936 553.632L263.612 555.612L262.95 553.821L261.355 554.126L262.541 552.714L261.879 550.924L263.274 551.841L264.46 550.429L264.136 552.409L265.532 553.327Z" fill="white"/>
<g filter="url(#filter52_f_110_2)">
<ellipse rx="3.00483" ry="3.59801" transform="matrix(-0.390132 -0.920759 0.942679 -0.333699 326.925 309.653)" fill="white"/>
</g>
<path d="M328.994 310.167L327.398 310.472L327.075 312.452L326.412 310.661L324.817 310.966L326.003 309.554L325.341 307.764L326.736 308.682L327.923 307.269L327.599 309.249L328.994 310.167Z" fill="white"/>
<g filter="url(#filter53_f_110_2)">
<ellipse rx="3.00483" ry="3.59801" transform="matrix(-0.390132 -0.920759 0.942679 -0.333699 345.288 412.83)" fill="white"/>
</g>
<path d="M347.357 413.343L345.762 413.649L345.438 415.628L344.776 413.837L343.181 414.143L344.367 412.731L343.705 410.94L345.1 411.858L346.286 410.446L345.962 412.425L347.357 413.343Z" fill="white"/>
<g filter="url(#filter54_f_110_2)">
<ellipse rx="4.44601" ry="5.26747" transform="matrix(-0.385385 -0.922756 0.941149 -0.337992 311.016 1066.12)" fill="white"/>
</g>
<path d="M314.04 1066.88L311.708 1067.33L311.234 1070.27L310.267 1067.61L307.935 1068.06L309.669 1065.97L308.701 1063.31L310.74 1064.68L312.474 1062.58L312.001 1065.52L314.04 1066.88Z" fill="white"/>
<g filter="url(#filter55_f_110_2)">
<ellipse rx="7.49701" ry="6.7514" transform="matrix(-0.234245 -0.972178 0.873125 -0.487495 483.205 1041.88)" fill="white" fill-opacity="0.9"/>
</g>
<path d="M487.484 1042.39L484.684 1042.77L484.147 1045.23L482.954 1043.01L480.155 1043.38L482.217 1041.63L481.024 1039.41L483.491 1040.55L485.554 1038.8L485.016 1041.25L487.484 1042.39Z" fill="white"/>
<g filter="url(#filter56_f_110_2)">
<ellipse rx="3.00483" ry="3.59801" transform="matrix(-0.390132 -0.920759 0.942679 -0.333699 269.489 832.264)" fill="white"/>
</g>
<path d="M271.557 832.777L269.961 833.082L269.637 835.061L268.975 833.271L267.38 833.576L268.566 832.164L267.904 830.373L269.299 831.291L270.485 829.879L270.161 831.859L271.557 832.777Z" fill="white"/>
<g filter="url(#filter57_f_110_2)">
<ellipse rx="3.00483" ry="3.59801" transform="matrix(-0.85999 -0.510312 0.561417 -0.827533 506.474 541.979)" fill="white"/>
</g>
<path d="M508.444 541.167L507.34 542.359L508.252 544.145L506.658 543.095L505.554 544.287L505.672 542.446L504.077 541.397L505.745 541.309L505.863 539.468L506.776 541.255L508.444 541.167Z" fill="white"/>
<g filter="url(#filter58_f_110_2)">
<ellipse rx="3.00483" ry="3.59801" transform="matrix(-0.85999 -0.510312 0.561417 -0.827533 397.455 471.636)" fill="white"/>
</g>
<path d="M399.425 470.823L398.321 472.015L399.233 473.801L397.639 472.751L396.535 473.943L396.653 472.103L395.058 471.053L396.726 470.965L396.844 469.125L397.757 470.911L399.425 470.823Z" fill="white"/>
<g filter="url(#filter59_f_110_2)">
<ellipse rx="3.00483" ry="3.59801" transform="matrix(-0.390132 -0.920759 0.942679 -0.333699 411.425 981.238)" fill="white"/>
</g>
<path d="M413.494 981.752L411.899 982.057L411.575 984.036L410.913 982.246L409.317 982.551L410.504 981.139L409.841 979.348L411.237 980.266L412.423 978.854L412.099 980.834L413.494 981.752Z" fill="white"/>
<defs>
<filter id="filter0_f_110_2" x="623.025" y="16.5632" width="121.273" height="122.662" filterUnits="userSpaceOnUse" color-interpolation-filters="sRGB">
<feFlood flood-opacity="0" result="BackgroundImageFix"/>
<feBlend mode="normal" in="SourceGraphic" in2="BackgroundImageFix" result="shape"/>
<feGaussianBlur stdDeviation="26.5" result="effect1_foregroundBlur_110_2"/>
</filter>
<filter id="filter1_f_110_2" x="1727.06" y="196.628" width="118.455" height="121.036" filterUnits="userSpaceOnUse" color-interpolation-filters="sRGB">
<feFlood flood-opacity="0" result="BackgroundImageFix"/>
<feBlend mode="normal" in="SourceGraphic" in2="BackgroundImageFix" result="shape"/>
<feGaussianBlur stdDeviation="26.5" result="effect1_foregroundBlur_110_2"/>
</filter>
<filter id="filter2_f_110_2" x="749.594" y="477.093" width="118.455" height="121.036" filterUnits="userSpaceOnUse" color-interpolation-filters="sRGB">
<feFlood flood-opacity="0" result="BackgroundImageFix"/>
<feBlend mode="normal" in="SourceGraphic" in2="BackgroundImageFix" result="shape"/>
<feGaussianBlur stdDeviation="26.5" result="effect1_foregroundBlur_110_2"/>
</filter>
<filter id="filter3_f_110_2" x="1235.36" y="269.61" width="121.273" height="122.662" filterUnits="userSpaceOnUse" color-interpolation-filters="sRGB">
<feFlood flood-opacity="0" result="BackgroundImageFix"/>
<feBlend mode="normal" in="SourceGraphic" in2="BackgroundImageFix" result="shape"/>
<feGaussianBlur stdDeviation="26.5" result="effect1_foregroundBlur_110_2"/>
</filter>
<filter id="filter4_f_110_2" x="1128.98" y="90.6452" width="121.143" height="120.335" filterUnits="userSpaceOnUse" color-interpolation-filters="sRGB">
<feFlood flood-opacity="0" result="BackgroundImageFix"/>
<feBlend mode="normal" in="SourceGraphic" in2="BackgroundImageFix" result="shape"/>
<feGaussianBlur stdDeviation="26.5" result="effect1_foregroundBlur_110_2"/>
</filter>
<filter id="filter5_f_110_2" x="1044.48" y="117.782" width="113.179" height="112.034" filterUnits="userSpaceOnUse" color-interpolation-filters="sRGB">
<feFlood flood-opacity="0" result="BackgroundImageFix"/>
<feBlend mode="normal" in="SourceGraphic" in2="BackgroundImageFix" result="shape"/>
<feGaussianBlur stdDeviation="26.5" result="effect1_foregroundBlur_110_2"/>
</filter>
<filter id="filter6_f_110_2" x="1116.47" y="17.7772" width="113.179" height="112.034" filterUnits="userSpaceOnUse" color-interpolation-filters="sRGB">
<feFlood flood-opacity="0" result="BackgroundImageFix"/>
<feBlend mode="normal" in="SourceGraphic" in2="BackgroundImageFix" result="shape"/>
<feGaussianBlur stdDeviation="26.5" result="effect1_foregroundBlur_110_2"/>
</filter>
<filter id="filter7_f_110_2" x="1383.59" y="100.08" width="113.179" height="112.034" filterUnits="userSpaceOnUse" color-interpolation-filters="sRGB">
<feFlood flood-opacity="0" result="BackgroundImageFix"/>
<feBlend mode="normal" in="SourceGraphic" in2="BackgroundImageFix" result="shape"/>
<feGaussianBlur stdDeviation="26.5" result="effect1_foregroundBlur_110_2"/>
</filter>
<filter id="filter8_f_110_2" x="1551.58" y="304.797" width="113.179" height="112.034" filterUnits="userSpaceOnUse" color-interpolation-filters="sRGB">
<feFlood flood-opacity="0" result="BackgroundImageFix"/>
<feBlend mode="normal" in="SourceGraphic" in2="BackgroundImageFix" result="shape"/>
<feGaussianBlur stdDeviation="26.5" result="effect1_foregroundBlur_110_2"/>
</filter>
<filter id="filter9_f_110_2" x="1615.05" y="61.6367" width="113.179" height="112.034" filterUnits="userSpaceOnUse" color-interpolation-filters="sRGB">
<feFlood flood-opacity="0" result="BackgroundImageFix"/>
<feBlend mode="normal" in="SourceGraphic" in2="BackgroundImageFix" result="shape"/>
<feGaussianBlur stdDeviation="26.5" result="effect1_foregroundBlur_110_2"/>
</filter>
<filter id="filter10_f_110_2" x="1183.32" y="179.476" width="113.179" height="112.034" filterUnits="userSpaceOnUse" color-interpolation-filters="sRGB">
<feFlood flood-opacity="0" result="BackgroundImageFix"/>
<feBlend mode="normal" in="SourceGraphic" in2="BackgroundImageFix" result="shape"/>
<feGaussianBlur stdDeviation="26.5" result="effect1_foregroundBlur_110_2"/>
</filter>
<filter id="filter11_f_110_2" x="697.691" y="207.35" width="113.179" height="112.034" filterUnits="userSpaceOnUse" color-interpolation-filters="sRGB">
<feFlood flood-opacity="0" result="BackgroundImageFix"/>
<feBlend mode="normal" in="SourceGraphic" in2="BackgroundImageFix" result="shape"/>
<feGaussianBlur stdDeviation="26.5" result="effect1_foregroundBlur_110_2"/>
</filter>
<filter id="filter12_f_110_2" x="1072.48" y="696.281" width="113.179" height="112.034" filterUnits="userSpaceOnUse" color-interpolation-filters="sRGB">
<feFlood flood-opacity="0" result="BackgroundImageFix"/>
<feBlend mode="normal" in="SourceGraphic" in2="BackgroundImageFix" result="shape"/>
<feGaussianBlur stdDeviation="26.5" result="effect1_foregroundBlur_110_2"/>
</filter>
<filter id="filter13_f_110_2" x="975.067" y="331.086" width="113.179" height="112.034" filterUnits="userSpaceOnUse" color-interpolation-filters="sRGB">
<feFlood flood-opacity="0" result="BackgroundImageFix"/>
<feBlend mode="normal" in="SourceGraphic" in2="BackgroundImageFix" result="shape"/>
<feGaussianBlur stdDeviation="26.5" result="effect1_foregroundBlur_110_2"/>
</filter>
<filter id="filter14_f_110_2" x="1633.41" y="164.813" width="113.179" height="112.034" filterUnits="userSpaceOnUse" color-interpolation-filters="sRGB">
<feFlood flood-opacity="0" result="BackgroundImageFix"/>
<feBlend mode="normal" in="SourceGraphic" in2="BackgroundImageFix" result="shape"/>
<feGaussianBlur stdDeviation="26.5" result="effect1_foregroundBlur_110_2"/>
</filter>
<filter id="filter15_f_110_2" x="1597.48" y="816.644" width="116.493" height="114.947" filterUnits="userSpaceOnUse" color-interpolation-filters="sRGB">
<feFlood flood-opacity="0" result="BackgroundImageFix"/>
<feBlend mode="normal" in="SourceGraphic" in2="BackgroundImageFix" result="shape"/>
<feGaussianBlur stdDeviation="26.5" result="effect1_foregroundBlur_110_2"/>
</filter>
<filter id="filter16_f_110_2" x="1768.76" y="788.883" width="118.305" height="121.998" filterUnits="userSpaceOnUse" color-interpolation-filters="sRGB">
<feFlood flood-opacity="0" result="BackgroundImageFix"/>
<feBlend mode="normal" in="SourceGraphic" in2="BackgroundImageFix" result="shape"/>
<feGaussianBlur stdDeviation="26.5" result="effect1_foregroundBlur_110_2"/>
</filter>
<filter id="filter17_f_110_2" x="1557.61" y="584.247" width="113.179" height="112.034" filterUnits="userSpaceOnUse" color-interpolation-filters="sRGB">
<feFlood flood-opacity="0" result="BackgroundImageFix"/>
<feBlend mode="normal" in="SourceGraphic" in2="BackgroundImageFix" result="shape"/>
<feGaussianBlur stdDeviation="26.5" result="effect1_foregroundBlur_110_2"/>
</filter>
<filter id="filter18_f_110_2" x="1794.9" y="293.63" width="112.56" height="112.7" filterUnits="userSpaceOnUse" color-interpolation-filters="sRGB">
<feFlood flood-opacity="0" result="BackgroundImageFix"/>
<feBlend mode="normal" in="SourceGraphic" in2="BackgroundImageFix" result="shape"/>
<feGaussianBlur stdDeviation="26.5" result="effect1_foregroundBlur_110_2"/>
</filter>
<filter id="filter19_f_110_2" x="1685.89" y="223.286" width="112.56" height="112.7" filterUnits="userSpaceOnUse" color-interpolation-filters="sRGB">
<feFlood flood-opacity="0" result="BackgroundImageFix"/>
<feBlend mode="normal" in="SourceGraphic" in2="BackgroundImageFix" result="shape"/>
<feGaussianBlur stdDeviation="26.5" result="effect1_foregroundBlur_110_2"/>
</filter>
<filter id="filter20_f_110_2" x="1699.55" y="733.221" width="113.179" height="112.034" filterUnits="userSpaceOnUse" color-interpolation-filters="sRGB">
<feFlood flood-opacity="0" result="BackgroundImageFix"/>
<feBlend mode="normal" in="SourceGraphic" in2="BackgroundImageFix" result="shape"/>
<feGaussianBlur stdDeviation="26.5" result="effect1_foregroundBlur_110_2"/>
</filter>
<filter id="filter21_f_110_2" x="743.35" y="79.0248" width="113.179" height="112.034" filterUnits="userSpaceOnUse" color-interpolation-filters="sRGB">
<feFlood flood-opacity="0" result="BackgroundImageFix"/>
<feBlend mode="normal" in="SourceGraphic" in2="BackgroundImageFix" result="shape"/>
<feGaussianBlur stdDeviation="26.5" result="effect1_foregroundBlur_110_2"/>
</filter>
<filter id="filter22_f_110_2" x="612.96" y="276.79" width="113.179" height="112.034" filterUnits="userSpaceOnUse" color-interpolation-filters="sRGB">
<feFlood flood-opacity="0" result="BackgroundImageFix"/>
<feBlend mode="normal" in="SourceGraphic" in2="BackgroundImageFix" result="shape"/>
<feGaussianBlur stdDeviation="26.5" result="effect1_foregroundBlur_110_2"/>
</filter>
<filter id="filter23_f_110_2" x="693.58" y="201.994" width="121.273" height="122.662" filterUnits="userSpaceOnUse" color-interpolation-filters="sRGB">
<feFlood flood-opacity="0" result="BackgroundImageFix"/>
<feBlend mode="normal" in="SourceGraphic" in2="BackgroundImageFix" result="shape"/>
<feGaussianBlur stdDeviation="26.5" result="effect1_foregroundBlur_110_2"/>
</filter>
<filter id="filter24_f_110_2" x="1773.3" y="1119.56" width="121.273" height="122.662" filterUnits="userSpaceOnUse" color-interpolation-filters="sRGB">
<feFlood flood-opacity="0" result="BackgroundImageFix"/>
<feBlend mode="normal" in="SourceGraphic" in2="BackgroundImageFix" result="shape"/>
<feGaussianBlur stdDeviation="26.5" result="effect1_foregroundBlur_110_2"/>
</filter>
<filter id="filter25_f_110_2" x="672.085" y="1299.63" width="118.455" height="121.036" filterUnits="userSpaceOnUse" color-interpolation-filters="sRGB">
<feFlood flood-opacity="0" result="BackgroundImageFix"/>
<feBlend mode="normal" in="SourceGraphic" in2="BackgroundImageFix" result="shape"/>
<feGaussianBlur stdDeviation="26.5" result="effect1_foregroundBlur_110_2"/>
</filter>
<filter id="filter26_f_110_2" x="1649.55" y="1580.09" width="118.455" height="121.036" filterUnits="userSpaceOnUse" color-interpolation-filters="sRGB">
<feFlood flood-opacity="0" result="BackgroundImageFix"/>
<feBlend mode="normal" in="SourceGraphic" in2="BackgroundImageFix" result="shape"/>
<feGaussianBlur stdDeviation="26.5" result="effect1_foregroundBlur_110_2"/>
</filter>
<filter id="filter27_f_110_2" x="1160.96" y="1372.61" width="121.273" height="122.662" filterUnits="userSpaceOnUse" color-interpolation-filters="sRGB">
<feFlood flood-opacity="0" result="BackgroundImageFix"/>
<feBlend mode="normal" in="SourceGraphic" in2="BackgroundImageFix" result="shape"/>
<feGaussianBlur stdDeviation="26.5" result="effect1_foregroundBlur_110_2"/>
</filter>
<filter id="filter28_f_110_2" x="1267.47" y="1193.65" width="121.143" height="120.334" filterUnits="userSpaceOnUse" color-interpolation-filters="sRGB">
<feFlood flood-opacity="0" result="BackgroundImageFix"/>
<feBlend mode="normal" in="SourceGraphic" in2="BackgroundImageFix" result="shape"/>
<feGaussianBlur stdDeviation="26.5" result="effect1_foregroundBlur_110_2"/>
</filter>
<filter id="filter29_f_110_2" x="1359.94" y="1220.78" width="113.179" height="112.034" filterUnits="userSpaceOnUse" color-interpolation-filters="sRGB">
<feFlood flood-opacity="0" result="BackgroundImageFix"/>
<feBlend mode="normal" in="SourceGraphic" in2="BackgroundImageFix" result="shape"/>
<feGaussianBlur stdDeviation="26.5" result="effect1_foregroundBlur_110_2"/>
</filter>
<filter id="filter30_f_110_2" x="1287.94" y="1120.78" width="113.179" height="112.034" filterUnits="userSpaceOnUse" color-interpolation-filters="sRGB">
<feFlood flood-opacity="0" result="BackgroundImageFix"/>
<feBlend mode="normal" in="SourceGraphic" in2="BackgroundImageFix" result="shape"/>
<feGaussianBlur stdDeviation="26.5" result="effect1_foregroundBlur_110_2"/>
</filter>
<filter id="filter31_f_110_2" x="1020.82" y="1203.08" width="113.179" height="112.034" filterUnits="userSpaceOnUse" color-interpolation-filters="sRGB">
<feFlood flood-opacity="0" result="BackgroundImageFix"/>
<feBlend mode="normal" in="SourceGraphic" in2="BackgroundImageFix" result="shape"/>
<feGaussianBlur stdDeviation="26.5" result="effect1_foregroundBlur_110_2"/>
</filter>
<filter id="filter32_f_110_2" x="852.834" y="1407.8" width="113.179" height="112.034" filterUnits="userSpaceOnUse" color-interpolation-filters="sRGB">
<feFlood flood-opacity="0" result="BackgroundImageFix"/>
<feBlend mode="normal" in="SourceGraphic" in2="BackgroundImageFix" result="shape"/>
<feGaussianBlur stdDeviation="26.5" result="effect1_foregroundBlur_110_2"/>
</filter>
<filter id="filter33_f_110_2" x="789.372" y="1164.64" width="113.179" height="112.034" filterUnits="userSpaceOnUse" color-interpolation-filters="sRGB">
<feFlood flood-opacity="0" result="BackgroundImageFix"/>
<feBlend mode="normal" in="SourceGraphic" in2="BackgroundImageFix" result="shape"/>
<feGaussianBlur stdDeviation="26.5" result="effect1_foregroundBlur_110_2"/>
</filter>
<filter id="filter34_f_110_2" x="1221.1" y="1282.48" width="113.179" height="112.034" filterUnits="userSpaceOnUse" color-interpolation-filters="sRGB">
<feFlood flood-opacity="0" result="BackgroundImageFix"/>
<feBlend mode="normal" in="SourceGraphic" in2="BackgroundImageFix" result="shape"/>
<feGaussianBlur stdDeviation="26.5" result="effect1_foregroundBlur_110_2"/>
</filter>
<filter id="filter35_f_110_2" x="1706.73" y="1310.35" width="113.179" height="112.034" filterUnits="userSpaceOnUse" color-interpolation-filters="sRGB">
<feFlood flood-opacity="0" result="BackgroundImageFix"/>
<feBlend mode="normal" in="SourceGraphic" in2="BackgroundImageFix" result="shape"/>
<feGaussianBlur stdDeviation="26.5" result="effect1_foregroundBlur_110_2"/>
</filter>
<filter id="filter36_f_110_2" x="1331.94" y="1799.28" width="113.179" height="112.034" filterUnits="userSpaceOnUse" color-interpolation-filters="sRGB">
<feFlood flood-opacity="0" result="BackgroundImageFix"/>
<feBlend mode="normal" in="SourceGraphic" in2="BackgroundImageFix" result="shape"/>
<feGaussianBlur stdDeviation="26.5" result="effect1_foregroundBlur_110_2"/>
</filter>
<filter id="filter37_f_110_2" x="1429.35" y="1434.09" width="113.179" height="112.034" filterUnits="userSpaceOnUse" color-interpolation-filters="sRGB">
<feFlood flood-opacity="0" result="BackgroundImageFix"/>
<feBlend mode="normal" in="SourceGraphic" in2="BackgroundImageFix" result="shape"/>
<feGaussianBlur stdDeviation="26.5" result="effect1_foregroundBlur_110_2"/>
</filter>
<filter id="filter38_f_110_2" x="771.009" y="1267.81" width="113.179" height="112.034" filterUnits="userSpaceOnUse" color-interpolation-filters="sRGB">
<feFlood flood-opacity="0" result="BackgroundImageFix"/>
<feBlend mode="normal" in="SourceGraphic" in2="BackgroundImageFix" result="shape"/>
<feGaussianBlur stdDeviation="26.5" result="effect1_foregroundBlur_110_2"/>
</filter>
<filter id="filter39_f_110_2" x="803.624" y="1919.64" width="116.493" height="114.947" filterUnits="userSpaceOnUse" color-interpolation-filters="sRGB">
<feFlood flood-opacity="0" result="BackgroundImageFix"/>
<feBlend mode="normal" in="SourceGraphic" in2="BackgroundImageFix" result="shape"/>
<feGaussianBlur stdDeviation="26.5" result="effect1_foregroundBlur_110_2"/>
</filter>
<filter id="filter40_f_110_2" x="630.529" y="1891.88" width="118.305" height="121.998" filterUnits="userSpaceOnUse" color-interpolation-filters="sRGB">
<feFlood flood-opacity="0" result="BackgroundImageFix"/>
<feBlend mode="normal" in="SourceGraphic" in2="BackgroundImageFix" result="shape"/>
<feGaussianBlur stdDeviation="26.5" result="effect1_foregroundBlur_110_2"/>
</filter>
<filter id="filter41_f_110_2" x="846.808" y="1687.25" width="113.179" height="112.034" filterUnits="userSpaceOnUse" color-interpolation-filters="sRGB">
<feFlood flood-opacity="0" result="BackgroundImageFix"/>
<feBlend mode="normal" in="SourceGraphic" in2="BackgroundImageFix" result="shape"/>
<feGaussianBlur stdDeviation="26.5" result="effect1_foregroundBlur_110_2"/>
</filter>
<filter id="filter42_f_110_2" x="610.132" y="1396.63" width="112.56" height="112.7" filterUnits="userSpaceOnUse" color-interpolation-filters="sRGB">
<feFlood flood-opacity="0" result="BackgroundImageFix"/>
<feBlend mode="normal" in="SourceGraphic" in2="BackgroundImageFix" result="shape"/>
<feGaussianBlur stdDeviation="26.5" result="effect1_foregroundBlur_110_2"/>
</filter>
<filter id="filter43_f_110_2" x="719.152" y="1326.29" width="112.56" height="112.7" filterUnits="userSpaceOnUse" color-interpolation-filters="sRGB">
<feFlood flood-opacity="0" result="BackgroundImageFix"/>
<feBlend mode="normal" in="SourceGraphic" in2="BackgroundImageFix" result="shape"/>
<feGaussianBlur stdDeviation="26.5" result="effect1_foregroundBlur_110_2"/>
</filter>
<filter id="filter44_f_110_2" x="704.872" y="1836.22" width="113.179" height="112.034" filterUnits="userSpaceOnUse" color-interpolation-filters="sRGB">
<feFlood flood-opacity="0" result="BackgroundImageFix"/>
<feBlend mode="normal" in="SourceGraphic" in2="BackgroundImageFix" result="shape"/>
<feGaussianBlur stdDeviation="26.5" result="effect1_foregroundBlur_110_2"/>
</filter>
<filter id="filter45_f_110_2" x="1661.07" y="1182.02" width="113.179" height="112.034" filterUnits="userSpaceOnUse" color-interpolation-filters="sRGB">
<feFlood flood-opacity="0" result="BackgroundImageFix"/>
<feBlend mode="normal" in="SourceGraphic" in2="BackgroundImageFix" result="shape"/>
<feGaussianBlur stdDeviation="26.5" result="effect1_foregroundBlur_110_2"/>
</filter>
<filter id="filter46_f_110_2" x="1791.46" y="1379.79" width="113.179" height="112.034" filterUnits="userSpaceOnUse" color-interpolation-filters="sRGB">
<feFlood flood-opacity="0" result="BackgroundImageFix"/>
<feBlend mode="normal" in="SourceGraphic" in2="BackgroundImageFix" result="shape"/>
<feGaussianBlur stdDeviation="26.5" result="effect1_foregroundBlur_110_2"/>
</filter>
<filter id="filter47_f_110_2" x="1702.74" y="1304.99" width="121.273" height="122.662" filterUnits="userSpaceOnUse" color-interpolation-filters="sRGB">
<feFlood flood-opacity="0" result="BackgroundImageFix"/>
<feBlend mode="normal" in="SourceGraphic" in2="BackgroundImageFix" result="shape"/>
<feGaussianBlur stdDeviation="26.5" result="effect1_foregroundBlur_110_2"/>
</filter>
<filter id="filter48_f_110_2" x="382.347" y="388.628" width="118.455" height="121.036" filterUnits="userSpaceOnUse" color-interpolation-filters="sRGB">
<feFlood flood-opacity="0" result="BackgroundImageFix"/>
<feBlend mode="normal" in="SourceGraphic" in2="BackgroundImageFix" result="shape"/>
<feGaussianBlur stdDeviation="26.5" result="effect1_foregroundBlur_110_2"/>
</filter>
<filter id="filter49_f_110_2" x="-109.35" y="461.61" width="121.273" height="122.662" filterUnits="userSpaceOnUse" color-interpolation-filters="sRGB">
<feFlood flood-opacity="0" result="BackgroundImageFix"/>
<feBlend mode="normal" in="SourceGraphic" in2="BackgroundImageFix" result="shape"/>
<feGaussianBlur stdDeviation="26.5" result="effect1_foregroundBlur_110_2"/>
</filter>
<filter id="filter50_f_110_2" x="38.8831" y="292.08" width="113.179" height="112.034" filterUnits="userSpaceOnUse" color-interpolation-filters="sRGB">
<feFlood flood-opacity="0" result="BackgroundImageFix"/>
<feBlend mode="normal" in="SourceGraphic" in2="BackgroundImageFix" result="shape"/>
<feGaussianBlur stdDeviation="26.5" result="effect1_foregroundBlur_110_2"/>
</filter>
<filter id="filter51_f_110_2" x="206.873" y="496.797" width="113.179" height="112.034" filterUnits="userSpaceOnUse" color-interpolation-filters="sRGB">
<feFlood flood-opacity="0" result="BackgroundImageFix"/>
<feBlend mode="normal" in="SourceGraphic" in2="BackgroundImageFix" result="shape"/>
<feGaussianBlur stdDeviation="26.5" result="effect1_foregroundBlur_110_2"/>
</filter>
<filter id="filter52_f_110_2" x="270.335" y="253.637" width="113.179" height="112.034" filterUnits="userSpaceOnUse" color-interpolation-filters="sRGB">
<feFlood flood-opacity="0" result="BackgroundImageFix"/>
<feBlend mode="normal" in="SourceGraphic" in2="BackgroundImageFix" result="shape"/>
<feGaussianBlur stdDeviation="26.5" result="effect1_foregroundBlur_110_2"/>
</filter>
<filter id="filter53_f_110_2" x="288.699" y="356.813" width="113.179" height="112.034" filterUnits="userSpaceOnUse" color-interpolation-filters="sRGB">
<feFlood flood-opacity="0" result="BackgroundImageFix"/>
<feBlend mode="normal" in="SourceGraphic" in2="BackgroundImageFix" result="shape"/>
<feGaussianBlur stdDeviation="26.5" result="effect1_foregroundBlur_110_2"/>
</filter>
<filter id="filter54_f_110_2" x="252.769" y="1008.64" width="116.493" height="114.947" filterUnits="userSpaceOnUse" color-interpolation-filters="sRGB">
<feFlood flood-opacity="0" result="BackgroundImageFix"/>
<feBlend mode="normal" in="SourceGraphic" in2="BackgroundImageFix" result="shape"/>
<feGaussianBlur stdDeviation="26.5" result="effect1_foregroundBlur_110_2"/>
</filter>
<filter id="filter55_f_110_2" x="424.053" y="980.884" width="118.305" height="121.998" filterUnits="userSpaceOnUse" color-interpolation-filters="sRGB">
<feFlood flood-opacity="0" result="BackgroundImageFix"/>
<feBlend mode="normal" in="SourceGraphic" in2="BackgroundImageFix" result="shape"/>
<feGaussianBlur stdDeviation="26.5" result="effect1_foregroundBlur_110_2"/>
</filter>
<filter id="filter56_f_110_2" x="212.899" y="776.247" width="113.179" height="112.034" filterUnits="userSpaceOnUse" color-interpolation-filters="sRGB">
<feFlood flood-opacity="0" result="BackgroundImageFix"/>
<feBlend mode="normal" in="SourceGraphic" in2="BackgroundImageFix" result="shape"/>
<feGaussianBlur stdDeviation="26.5" result="effect1_foregroundBlur_110_2"/>
</filter>
<filter id="filter57_f_110_2" x="450.194" y="485.63" width="112.56" height="112.7" filterUnits="userSpaceOnUse" color-interpolation-filters="sRGB">
<feFlood flood-opacity="0" result="BackgroundImageFix"/>
<feBlend mode="normal" in="SourceGraphic" in2="BackgroundImageFix" result="shape"/>
<feGaussianBlur stdDeviation="26.5" result="effect1_foregroundBlur_110_2"/>
</filter>
<filter id="filter58_f_110_2" x="341.175" y="415.286" width="112.56" height="112.7" filterUnits="userSpaceOnUse" color-interpolation-filters="sRGB">
<feFlood flood-opacity="0" result="BackgroundImageFix"/>
<feBlend mode="normal" in="SourceGraphic" in2="BackgroundImageFix" result="shape"/>
<feGaussianBlur stdDeviation="26.5" result="effect1_foregroundBlur_110_2"/>
</filter>
<filter id="filter59_f_110_2" x="354.835" y="925.221" width="113.179" height="112.034" filterUnits="userSpaceOnUse" color-interpolation-filters="sRGB">
<feFlood flood-opacity="0" result="BackgroundImageFix"/>
<feBlend mode="normal" in="SourceGraphic" in2="BackgroundImageFix" result="shape"/>
<feGaussianBlur stdDeviation="26.5" result="effect1_foregroundBlur_110_2"/>
</filter>
</defs>
</svg>
