<svg width="3514" height="2252" viewBox="0 0 3514 2252" fill="none" xmlns="http://www.w3.org/2000/svg">
<path fill-rule="evenodd" clip-rule="evenodd" d="M539.559 576.377C503.09 484.948 421.971 410.43 314.79 382.779C236.483 362.576 157.537 370.815 90.1912 400.839C127.09 494.925 211.561 570.864 322.611 596.541C398.5 614.089 474.42 605.301 539.559 576.377Z" fill="#06540E"/>
<path fill-rule="evenodd" clip-rule="evenodd" d="M600.066 521.421C550.999 490.66 511.133 433.373 495.711 362.441C480.29 291.511 492.771 222.845 524.633 174.489C573.7 205.25 613.566 262.536 628.988 333.469C644.409 404.399 631.929 473.065 600.066 521.421Z" fill="#06540E"/>
<g filter="url(#filter0_f_581_3)">
<path fill-rule="evenodd" clip-rule="evenodd" d="M539.559 576.377C503.09 484.948 421.971 410.43 314.79 382.779C236.483 362.576 157.537 370.815 90.1912 400.839C127.09 494.925 211.561 570.864 322.611 596.541C398.5 614.089 474.42 605.301 539.559 576.377Z" fill="#4EE95D"/>
</g>
<g filter="url(#filter1_f_581_3)">
<path fill-rule="evenodd" clip-rule="evenodd" d="M600.066 521.421C550.999 490.66 511.133 433.373 495.711 362.441C480.29 291.511 492.771 222.845 524.633 174.489C573.7 205.25 613.566 262.536 628.988 333.469C644.409 404.399 631.929 473.065 600.066 521.421Z" fill="#4EE95D"/>
</g>
<g filter="url(#filter2_d_581_3)">
<path d="M1140.06 1947.41C1010.11 1947.41 898.534 1924.44 805.335 1878.5C712.135 1832.55 636.001 1772.83 576.931 1699.32C519.173 1625.81 476.512 1545.73 448.946 1459.1C421.38 1372.46 407.597 1289.11 407.597 1209.04V1165.72C407.597 1076.46 421.38 988.508 448.946 901.872C477.824 815.236 521.799 736.476 580.869 665.592C639.939 594.708 714.761 538.263 805.335 496.258C897.221 452.94 1005.52 431.281 1130.22 431.281C1260.17 431.281 1373.06 454.909 1468.89 502.165C1566.03 548.108 1643.47 613.742 1701.23 699.065C1758.99 783.076 1793.77 881.526 1805.59 994.415H1524.02C1513.52 928.782 1489.89 873.65 1453.14 829.019C1417.69 783.076 1372.41 748.946 1317.27 726.631C1262.14 703.003 1199.79 691.189 1130.22 691.189C1059.34 691.189 996.328 703.659 941.196 728.6C886.064 752.228 840.12 786.357 803.366 830.988C766.611 875.619 738.389 928.125 718.699 988.508C700.321 1048.89 691.133 1115.84 691.133 1189.35C691.133 1260.23 700.321 1325.86 718.699 1386.25C738.389 1446.63 767.267 1499.79 805.335 1545.73C843.402 1590.37 890.002 1625.15 945.134 1650.09C1001.58 1675.03 1066.56 1687.5 1140.06 1687.5C1247.7 1687.5 1338.28 1661.25 1411.79 1608.74C1486.61 1554.92 1531.9 1480.1 1547.65 1384.28H1829.21C1816.09 1486.66 1781.3 1580.52 1724.86 1665.84C1668.41 1751.17 1590.97 1819.43 1492.52 1870.62C1394.07 1921.81 1276.58 1947.41 1140.06 1947.41Z" fill="#FFAC01"/>
</g>
<g filter="url(#filter3_f_581_3)">
<path d="M1113.43 1848.5L1080.78 1943.02L1106.64 1951.95L1133.45 1946.47L1113.43 1848.5ZM1369.46 1796.16L1389.49 1894.13L1389.49 1894.13L1369.46 1796.16ZM1398.03 1784.2L1453.77 1867.22L1453.77 1867.22L1398.03 1784.2ZM1631.43 1627.5L1687.17 1710.52L1710.73 1694.7L1722.47 1668.86L1631.43 1627.5ZM804.279 1847.52L1080.78 1943.02L1146.07 1753.98L869.572 1658.48L804.279 1847.52ZM1133.45 1946.47L1389.49 1894.13L1349.43 1698.19L1093.4 1750.52L1133.45 1946.47ZM1453.77 1867.22L1687.17 1710.52L1575.68 1544.48L1342.29 1701.18L1453.77 1867.22ZM1722.47 1668.86L1820.82 1452.36L1638.73 1369.64L1540.38 1586.14L1722.47 1668.86ZM1389.49 1894.13C1412.46 1889.44 1434.3 1880.3 1453.77 1867.22L1342.29 1701.18C1344.45 1699.72 1346.88 1698.71 1349.43 1698.19L1389.49 1894.13Z" fill="#FFAC00"/>
</g>
<g filter="url(#filter4_f_581_3)">
<path d="M1242.93 559.999L1274.47 481.069L1254.3 473.008L1232.74 475.612L1242.93 559.999ZM901.803 601.194L911.993 685.58L911.993 685.58L901.803 601.194ZM535.43 1312L450.822 1303.85L447.691 1336.33L467.105 1362.56L535.43 1312ZM854.906 623.967L914.924 684.157L854.906 623.967ZM574.821 903.254L514.803 843.065L493.147 864.659L490.213 895.101L574.821 903.254ZM1541.93 679.499L1614.06 634.531L1599.33 610.903L1573.48 600.569L1541.93 679.499ZM1232.74 475.612L891.612 516.807L911.993 685.58L1253.12 644.386L1232.74 475.612ZM467.105 1362.56L673.171 1641.01L809.821 1539.89L603.755 1261.44L467.105 1362.56ZM794.887 563.778L514.803 843.065L634.839 963.444L914.924 684.157L794.887 563.778ZM490.213 895.101L450.822 1303.85L620.038 1320.15L659.429 911.408L490.213 895.101ZM1753.56 858.287L1614.06 634.531L1469.8 724.467L1609.29 948.223L1753.56 858.287ZM1573.48 600.569L1274.47 481.069L1211.38 638.929L1510.39 758.429L1573.48 600.569ZM891.612 516.807C855.03 521.224 820.98 537.759 794.887 563.778L914.924 684.157C914.133 684.946 913.101 685.447 911.993 685.58L891.612 516.807Z" fill="#FFAC00"/>
</g>
<path d="M2106.2 1417.96C2078.73 1417.96 2055.4 1412.89 2036.2 1402.76C2017.27 1392.36 2002.87 1377.69 1993 1358.76C1983.13 1339.83 1978.2 1317.43 1978.2 1291.56V1118.36H2043.8V1293.96C2043.8 1306.76 2046.2 1317.96 2051 1327.56C2056.07 1336.89 2063.13 1344.09 2072.2 1349.16C2081.53 1354.23 2092.87 1356.76 2106.2 1356.76C2119.8 1356.76 2131.13 1354.23 2140.2 1349.16C2149.53 1344.09 2156.6 1336.89 2161.4 1327.56C2166.2 1318.23 2168.6 1307.03 2168.6 1293.96V1118.36H2234.2V1291.56C2234.2 1317.43 2229.27 1339.83 2219.4 1358.76C2209.53 1377.69 2195.13 1392.36 2176.2 1402.76C2157.27 1412.89 2133.93 1417.96 2106.2 1417.96ZM2351.57 1410.36V1167.56H2417.17V1410.36H2351.57ZM2269.57 1175.56V1118.36H2499.57V1175.56H2269.57ZM2541.63 1410.36V1118.36H2607.23V1410.36H2541.63ZM2673.64 1410.36V1118.36H2737.64V1410.36H2673.64ZM2729.64 1410.36V1355.96H2857.24V1410.36H2729.64ZM2729.64 1289.16V1234.76H2848.04V1289.16H2729.64ZM2729.64 1172.76V1118.36H2854.44V1172.76H2729.64ZM2172.6 1914.36V1622.36H2238.2V1914.36H2172.6ZM1983.8 1914.36V1622.36H2049.4V1914.36H1983.8ZM2037.8 1796.36V1738.76H2184.2V1796.36H2037.8ZM2276.12 1914.36L2372.52 1622.36H2478.52L2578.52 1914.36H2510.52L2429.72 1667.56L2450.52 1675.96H2398.92L2420.52 1667.56L2341.72 1914.36H2276.12ZM2349.32 1841.96L2369.32 1787.56H2483.72L2504.12 1841.96H2349.32ZM2738.11 1921.96C2711.71 1921.96 2689.05 1917.43 2670.11 1908.36C2651.18 1899.03 2635.71 1886.89 2623.71 1871.96C2611.71 1856.76 2602.78 1840.49 2596.91 1823.16C2591.31 1805.56 2588.51 1788.49 2588.51 1771.96V1763.16C2588.51 1745.03 2591.45 1727.16 2597.31 1709.56C2603.18 1691.69 2612.11 1675.56 2624.11 1661.16C2636.38 1646.76 2651.71 1635.29 2670.11 1626.76C2688.78 1617.96 2710.78 1613.56 2736.11 1613.56C2762.51 1613.56 2785.85 1618.49 2806.11 1628.36C2826.38 1638.23 2842.51 1651.96 2854.51 1669.56C2866.78 1686.89 2873.98 1707.29 2876.11 1730.76H2810.11C2808.25 1719.03 2803.98 1709.03 2797.31 1700.76C2790.65 1692.49 2781.98 1686.09 2771.31 1681.56C2760.91 1677.03 2749.18 1674.76 2736.11 1674.76C2723.05 1674.76 2711.45 1677.03 2701.31 1681.56C2691.18 1686.09 2682.65 1692.49 2675.71 1700.76C2669.05 1709.03 2663.85 1718.89 2660.11 1730.36C2656.65 1741.56 2654.91 1754.09 2654.91 1767.96C2654.91 1781.56 2656.65 1794.09 2660.11 1805.56C2663.85 1816.76 2669.18 1826.63 2676.11 1835.16C2683.31 1843.43 2692.11 1849.83 2702.51 1854.36C2712.91 1858.63 2724.78 1860.76 2738.11 1860.76C2758.38 1860.76 2775.45 1855.83 2789.31 1845.96C2803.45 1836.09 2811.98 1822.49 2814.91 1805.16H2880.51C2878.11 1826.49 2870.91 1846.09 2858.91 1863.96C2847.18 1881.56 2831.05 1895.69 2810.51 1906.36C2790.25 1916.76 2766.11 1921.96 2738.11 1921.96ZM3116.03 1914.36L3015.23 1777.96H2974.83L3097.23 1622.36H3172.43L3062.43 1761.96L3061.63 1733.56L3195.23 1914.36H3116.03ZM2924.03 1914.36V1622.36H2989.63V1914.36H2924.03Z" fill="#FFAC00"/>
<g filter="url(#filter5_f_581_3)">
<path d="M2106.2 1417.6C2078.73 1417.6 2055.4 1412.53 2036.2 1402.4C2017.27 1392 2002.87 1377.33 1993 1358.4C1983.13 1339.47 1978.2 1317.07 1978.2 1291.2V1118H2043.8V1293.6C2043.8 1306.4 2046.2 1317.6 2051 1327.2C2056.07 1336.53 2063.13 1343.73 2072.2 1348.8C2081.53 1353.87 2092.87 1356.4 2106.2 1356.4C2119.8 1356.4 2131.13 1353.87 2140.2 1348.8C2149.53 1343.73 2156.6 1336.53 2161.4 1327.2C2166.2 1317.87 2168.6 1306.67 2168.6 1293.6V1118H2234.2V1291.2C2234.2 1317.07 2229.27 1339.47 2219.4 1358.4C2209.53 1377.33 2195.13 1392 2176.2 1402.4C2157.27 1412.53 2133.93 1417.6 2106.2 1417.6ZM2351.57 1410V1167.2H2417.17V1410H2351.57ZM2269.57 1175.2V1118H2499.57V1175.2H2269.57ZM2541.63 1410V1118H2607.23V1410H2541.63ZM2673.64 1410V1118H2737.64V1410H2673.64ZM2729.64 1410V1355.6H2857.24V1410H2729.64ZM2729.64 1288.8V1234.4H2848.04V1288.8H2729.64ZM2729.64 1172.4V1118H2854.44V1172.4H2729.64ZM2172.6 1914V1622H2238.2V1914H2172.6ZM1983.8 1914V1622H2049.4V1914H1983.8ZM2037.8 1796V1738.4H2184.2V1796H2037.8ZM2276.12 1914L2372.52 1622H2478.52L2578.52 1914H2510.52L2429.72 1667.2L2450.52 1675.6H2398.92L2420.52 1667.2L2341.72 1914H2276.12ZM2349.32 1841.6L2369.32 1787.2H2483.72L2504.12 1841.6H2349.32ZM2738.11 1921.6C2711.71 1921.6 2689.05 1917.07 2670.11 1908C2651.18 1898.67 2635.71 1886.53 2623.71 1871.6C2611.71 1856.4 2602.78 1840.13 2596.91 1822.8C2591.31 1805.2 2588.51 1788.13 2588.51 1771.6V1762.8C2588.51 1744.67 2591.45 1726.8 2597.31 1709.2C2603.18 1691.33 2612.11 1675.2 2624.11 1660.8C2636.38 1646.4 2651.71 1634.93 2670.11 1626.4C2688.78 1617.6 2710.78 1613.2 2736.11 1613.2C2762.51 1613.2 2785.85 1618.13 2806.11 1628C2826.38 1637.87 2842.51 1651.6 2854.51 1669.2C2866.78 1686.53 2873.98 1706.93 2876.11 1730.4H2810.11C2808.25 1718.67 2803.98 1708.67 2797.31 1700.4C2790.65 1692.13 2781.98 1685.73 2771.31 1681.2C2760.91 1676.67 2749.18 1674.4 2736.11 1674.4C2723.05 1674.4 2711.45 1676.67 2701.31 1681.2C2691.18 1685.73 2682.65 1692.13 2675.71 1700.4C2669.05 1708.67 2663.85 1718.53 2660.11 1730C2656.65 1741.2 2654.91 1753.73 2654.91 1767.6C2654.91 1781.2 2656.65 1793.73 2660.11 1805.2C2663.85 1816.4 2669.18 1826.27 2676.11 1834.8C2683.31 1843.07 2692.11 1849.47 2702.51 1854C2712.91 1858.27 2724.78 1860.4 2738.11 1860.4C2758.38 1860.4 2775.45 1855.47 2789.31 1845.6C2803.45 1835.73 2811.98 1822.13 2814.91 1804.8H2880.51C2878.11 1826.13 2870.91 1845.73 2858.91 1863.6C2847.18 1881.2 2831.05 1895.33 2810.51 1906C2790.25 1916.4 2766.11 1921.6 2738.11 1921.6ZM3116.03 1914L3015.23 1777.6H2974.83L3097.23 1622H3172.43L3062.43 1761.6L3061.63 1733.2L3195.23 1914H3116.03ZM2924.03 1914V1622H2989.63V1914H2924.03Z" fill="#FFAC00"/>
</g>
<defs>
<filter id="filter0_f_581_3" x="0.1875" y="281.697" width="629.375" height="413.857" filterUnits="userSpaceOnUse" color-interpolation-filters="sRGB">
<feFlood flood-opacity="0" result="BackgroundImageFix"/>
<feBlend mode="normal" in="SourceGraphic" in2="BackgroundImageFix" result="shape"/>
<feGaussianBlur stdDeviation="45" result="effect1_foregroundBlur_581_3"/>
</filter>
<filter id="filter1_f_581_3" x="399.125" y="84.4883" width="326.445" height="526.933" filterUnits="userSpaceOnUse" color-interpolation-filters="sRGB">
<feFlood flood-opacity="0" result="BackgroundImageFix"/>
<feBlend mode="normal" in="SourceGraphic" in2="BackgroundImageFix" result="shape"/>
<feGaussianBlur stdDeviation="45" result="effect1_foregroundBlur_581_3"/>
</filter>
<filter id="filter2_d_581_3" x="403.594" y="431.281" width="1429.62" height="1524.13" filterUnits="userSpaceOnUse" color-interpolation-filters="sRGB">
<feFlood flood-opacity="0" result="BackgroundImageFix"/>
<feColorMatrix in="SourceAlpha" type="matrix" values="0 0 0 0 0 0 0 0 0 0 0 0 0 0 0 0 0 0 127 0" result="hardAlpha"/>
<feOffset dy="4"/>
<feGaussianBlur stdDeviation="2"/>
<feComposite in2="hardAlpha" operator="out"/>
<feColorMatrix type="matrix" values="0 0 0 0 1 0 0 0 0 0.898 0 0 0 0 0.7 0 0 0 0.25 0"/>
<feBlend mode="normal" in2="BackgroundImageFix" result="effect1_dropShadow_581_3"/>
<feBlend mode="normal" in="SourceGraphic" in2="effect1_dropShadow_581_3" result="shape"/>
</filter>
<filter id="filter3_f_581_3" x="504.281" y="1069.64" width="1616.54" height="1182.31" filterUnits="userSpaceOnUse" color-interpolation-filters="sRGB">
<feFlood flood-opacity="0" result="BackgroundImageFix"/>
<feBlend mode="normal" in="SourceGraphic" in2="BackgroundImageFix" result="shape"/>
<feGaussianBlur stdDeviation="150" result="effect1_foregroundBlur_581_3"/>
</filter>
<filter id="filter4_f_581_3" x="147.688" y="173.008" width="1905.87" height="1768.01" filterUnits="userSpaceOnUse" color-interpolation-filters="sRGB">
<feFlood flood-opacity="0" result="BackgroundImageFix"/>
<feBlend mode="normal" in="SourceGraphic" in2="BackgroundImageFix" result="shape"/>
<feGaussianBlur stdDeviation="150" result="effect1_foregroundBlur_581_3"/>
</filter>
<filter id="filter5_f_581_3" x="1908.2" y="1048" width="1357.03" height="943.6" filterUnits="userSpaceOnUse" color-interpolation-filters="sRGB">
<feFlood flood-opacity="0" result="BackgroundImageFix"/>
<feBlend mode="normal" in="SourceGraphic" in2="BackgroundImageFix" result="shape"/>
<feGaussianBlur stdDeviation="35" result="effect1_foregroundBlur_581_3"/>
</filter>
</defs>
</svg>
