<svg xmlns="http://www.w3.org/2000/svg" xmlns:xlink="http://www.w3.org/1999/xlink" viewBox="0 0 3514 2252" fill="none" xmlns:v="https://vecta.io/nano"><style><![CDATA[.B{color-interpolation-filters:sRGB}.C{flood-opacity:0}.D{fill:#ffac00}.E{fill-rule:evenodd}]]></style><g fill="#06540e" class="E"><use xlink:href="#G"/><use xlink:href="#H"/></g><g filter="url(#A)" class="E"><use xlink:href="#G" fill="#4ee95d"/></g><g filter="url(#B)" class="E"><use xlink:href="#H" fill="#4ee95d"/></g><g filter="url(#C)"><path d="M1140.06 1947.41c-129.95 0-241.526-22.97-334.725-68.91-93.2-45.95-169.334-105.67-228.404-179.18-57.758-73.51-100.419-153.59-127.985-240.22-27.566-86.64-41.349-169.99-41.349-250.06v-43.32c0-89.26 13.783-177.212 41.349-263.848 28.878-86.636 72.853-165.396 131.923-236.28s133.892-127.329 224.466-169.334c91.886-43.318 200.185-64.977 324.885-64.977 129.95 0 242.84 23.628 338.67 70.884 97.14 45.943 174.58 111.577 232.34 196.9 57.76 84.011 92.54 182.461 104.36 295.35h-281.57c-10.5-65.633-34.13-120.765-70.88-165.396-35.45-45.943-80.73-80.073-135.87-102.388-55.13-23.628-117.48-35.442-187.05-35.442-70.88 0-133.892 12.47-189.024 37.411-55.132 23.628-101.076 57.757-137.83 102.388s-64.977 97.137-84.667 157.52c-18.378 60.382-27.566 127.332-27.566 200.842 0 70.88 9.188 136.51 27.566 196.9 19.69 60.38 48.568 113.54 86.636 159.48 38.067 44.64 84.667 79.42 139.799 104.36 56.446 24.94 121.426 37.41 194.926 37.41 107.64 0 198.22-26.25 271.73-78.76 74.82-53.82 120.11-128.64 135.86-224.46h281.56c-13.12 102.38-47.91 196.24-104.35 281.56-56.45 85.33-133.89 153.59-232.34 204.78s-215.94 76.79-352.46 76.79z" fill="#ffac01"/></g><g filter="url(#D)" class="D"><path d="M1113.43 1848.5l-32.65 94.52 25.86 8.93 26.81-5.48-20.02-97.97zm256.03-52.34l20.03 97.97h0l-20.03-97.97zm28.57-11.96l55.74 83.02h0l-55.74-83.02zm233.4-156.7l55.74 83.02 23.56-15.82 11.74-25.84-91.04-41.36zm-827.151 220.02l276.501 95.5 65.29-189.04-276.498-95.5-65.293 189.04zm329.171 98.95l256.04-52.34-40.06-195.94-256.03 52.33 40.05 195.95zm320.32-79.25l233.4-156.7-111.49-166.04-233.39 156.7 111.48 166.04zm268.7-198.36l98.35-216.5-182.09-82.72-98.35 216.5 182.09 82.72zm-332.98 225.27c22.97-4.69 44.81-13.83 64.28-26.91l-111.48-166.04c2.16-1.46 4.59-2.47 7.14-2.99l40.06 195.94z"/></g><g filter="url(#E)" class="D"><path d="M1242.93 559.999l31.54-78.93-20.17-8.061-21.56 2.604 10.19 84.387zm-341.127 41.195l10.19 84.386h0l-10.19-84.386zM535.43 1312l-84.608-8.15-3.131 32.48 19.414 26.23L535.43 1312zm319.476-688.033l60.018 60.19-60.018-60.19zM574.821 903.254l-60.018-60.189-21.656 21.594-2.934 30.442 84.608 8.153zm967.109-223.755l72.13-44.968-14.73-23.628-25.85-10.334-31.55 78.93zm-309.19-203.887l-341.128 41.195 20.381 168.773 341.127-41.194-20.38-168.774zM467.105 1362.56l206.066 278.45 136.65-101.12-206.066-278.45-136.65 101.12zm327.782-798.782L514.803 843.065l120.036 120.379 280.085-279.287-120.037-120.379zM490.213 895.101l-39.391 408.749 169.216 16.3 39.391-408.742-169.216-16.307zm1263.347-36.814l-139.5-223.756-144.26 89.936 139.49 223.756 144.27-89.936zm-180.08-257.718l-299.01-119.5-63.09 157.86 299.01 119.5 63.09-157.86zm-681.868-83.762c-36.582 4.417-70.632 20.952-96.725 46.971l120.037 120.379c-.791.789-1.823 1.29-2.931 1.423l-20.381-168.773z"/></g><path d="M2106.2 1417.96c-27.47 0-50.8-5.07-70-15.2-18.93-10.4-33.33-25.07-43.2-44s-14.8-41.33-14.8-67.2v-173.2h65.6v175.6c0 12.8 2.4 24 7.2 33.6 5.07 9.33 12.13 16.53 21.2 21.6 9.33 5.07 20.67 7.6 34 7.6 13.6 0 24.93-2.53 34-7.6 9.33-5.07 16.4-12.27 21.2-21.6s7.2-20.53 7.2-33.6v-175.6h65.6v173.2c0 25.87-4.93 48.27-14.8 67.2s-24.27 33.6-43.2 44c-18.93 10.13-42.27 15.2-70 15.2zm245.37-7.6v-242.8h65.6v242.8h-65.6zm-82-234.8v-57.2h230v57.2h-230zm272.06 234.8v-292h65.6v292h-65.6zm132.01 0v-292h64v292h-64zm56 0v-54.4h127.6v54.4h-127.6zm0-121.2v-54.4h118.4v54.4h-118.4zm0-116.4v-54.4h124.8v54.4h-124.8zm-557.04 741.6v-292h65.6v292h-65.6zm-188.8 0v-292h65.6v292h-65.6zm54-118v-57.6h146.4v57.6h-146.4zm238.32 118l96.4-292h106l100 292h-68l-80.8-246.8 20.8 8.4h-51.6l21.6-8.4-78.8 246.8h-65.6zm73.2-72.4l20-54.4h114.4l20.4 54.4h-154.8zm388.79 80c-26.4 0-49.06-4.53-68-13.6-18.93-9.33-34.4-21.47-46.4-36.4-12-15.2-20.93-31.47-26.8-48.8-5.6-17.6-8.4-34.67-8.4-51.2v-8.8c0-18.13 2.94-36 8.8-53.6 5.87-17.87 14.8-34 26.8-48.4 12.27-14.4 27.6-25.87 46-34.4 18.67-8.8 40.67-13.2 66-13.2 26.4 0 49.74 4.93 70 14.8 20.27 9.87 36.4 23.6 48.4 41.2 12.27 17.33 19.47 37.73 21.6 61.2h-66c-1.86-11.73-6.13-21.73-12.8-30-6.66-8.27-15.33-14.67-26-19.2-10.4-4.53-22.13-6.8-35.2-6.8-13.06 0-24.66 2.27-34.8 6.8-10.13 4.53-18.66 10.93-25.6 19.2-6.66 8.27-11.86 18.13-15.6 29.6-3.46 11.2-5.2 23.73-5.2 37.6 0 13.6 1.74 26.13 5.2 37.6 3.74 11.2 9.07 21.07 16 29.6 7.2 8.27 16 14.67 26.4 19.2 10.4 4.27 22.27 6.4 35.6 6.4 20.27 0 37.34-4.93 51.2-14.8 14.14-9.87 22.67-23.47 25.6-40.8h65.6c-2.4 21.33-9.6 40.93-21.6 58.8-11.73 17.6-27.86 31.73-48.4 42.4-20.26 10.4-44.4 15.6-72.4 15.6zm377.92-7.6l-100.8-136.4h-40.4l122.4-155.6h75.2l-110 139.6-.8-28.4 133.6 180.8h-79.2zm-192 0v-292h65.6v292h-65.6z" class="D"/><g filter="url(#F)" class="D"><path d="M2106.2 1417.6c-27.47 0-50.8-5.07-70-15.2-18.93-10.4-33.33-25.07-43.2-44s-14.8-41.33-14.8-67.2V1118h65.6v175.6c0 12.8 2.4 24 7.2 33.6 5.07 9.33 12.13 16.53 21.2 21.6 9.33 5.07 20.67 7.6 34 7.6 13.6 0 24.93-2.53 34-7.6 9.33-5.07 16.4-12.27 21.2-21.6s7.2-20.53 7.2-33.6V1118h65.6v173.2c0 25.87-4.93 48.27-14.8 67.2s-24.27 33.6-43.2 44c-18.93 10.13-42.27 15.2-70 15.2zm245.37-7.6v-242.8h65.6V1410h-65.6zm-82-234.8V1118h230v57.2h-230zm272.06 234.8v-292h65.6v292h-65.6zm132.01 0v-292h64v292h-64zm56 0v-54.4h127.6v54.4h-127.6zm0-121.2v-54.4h118.4v54.4h-118.4zm0-116.4V1118h124.8v54.4h-124.8zM2172.6 1914v-292h65.6v292h-65.6zm-188.8 0v-292h65.6v292h-65.6zm54-118v-57.6h146.4v57.6h-146.4zm238.32 118l96.4-292h106l100 292h-68l-80.8-246.8 20.8 8.4h-51.6l21.6-8.4-78.8 246.8h-65.6zm73.2-72.4l20-54.4h114.4l20.4 54.4h-154.8zm388.79 80c-26.4 0-49.06-4.53-68-13.6-18.93-9.33-34.4-21.47-46.4-36.4-12-15.2-20.93-31.47-26.8-48.8-5.6-17.6-8.4-34.67-8.4-51.2v-8.8c0-18.13 2.94-36 8.8-53.6 5.87-17.87 14.8-34 26.8-48.4 12.27-14.4 27.6-25.87 46-34.4 18.67-8.8 40.67-13.2 66-13.2 26.4 0 49.74 4.93 70 14.8 20.27 9.87 36.4 23.6 48.4 41.2 12.27 17.33 19.47 37.73 21.6 61.2h-66c-1.86-11.73-6.13-21.73-12.8-30-6.66-8.27-15.33-14.67-26-19.2-10.4-4.53-22.13-6.8-35.2-6.8-13.06 0-24.66 2.27-34.8 6.8-10.13 4.53-18.66 10.93-25.6 19.2-6.66 8.27-11.86 18.13-15.6 29.6-3.46 11.2-5.2 23.73-5.2 37.6 0 13.6 1.74 26.13 5.2 37.6 3.74 11.2 9.07 21.07 16 29.6 7.2 8.27 16 14.67 26.4 19.2 10.4 4.27 22.27 6.4 35.6 6.4 20.27 0 37.34-4.93 51.2-14.8 14.14-9.87 22.67-23.47 25.6-40.8h65.6c-2.4 21.33-9.6 40.93-21.6 58.8-11.73 17.6-27.86 31.73-48.4 42.4-20.26 10.4-44.4 15.6-72.4 15.6zm377.92-7.6l-100.8-136.4h-40.4l122.4-155.6h75.2l-110 139.6-.8-28.4 133.6 180.8h-79.2zm-192 0v-292h65.6v292h-65.6z"/></g><defs><filter id="A" x=".188" y="281.697" width="629.375" height="413.857" filterUnits="userSpaceOnUse" class="B"><feFlood class="C"/><feBlend in="SourceGraphic"/><feGaussianBlur stdDeviation="45"/></filter><filter id="B" x="399.125" y="84.488" width="326.445" height="526.933" filterUnits="userSpaceOnUse" class="B"><feFlood class="C"/><feBlend in="SourceGraphic"/><feGaussianBlur stdDeviation="45"/></filter><filter id="C" x="403.594" y="431.281" width="1429.62" height="1524.13" filterUnits="userSpaceOnUse" class="B"><feFlood result="A" class="C"/><feColorMatrix in="SourceAlpha" values="0 0 0 0 0 0 0 0 0 0 0 0 0 0 0 0 0 0 127 0" result="B"/><feOffset dy="4"/><feGaussianBlur stdDeviation="2"/><feComposite in2="B" operator="out"/><feColorMatrix values="0 0 0 0 1 0 0 0 0 0.898 0 0 0 0 0.7 0 0 0 0.25 0"/><feBlend in2="A"/><feBlend in="SourceGraphic"/></filter><filter id="D" x="504.281" y="1069.64" width="1616.54" height="1182.31" filterUnits="userSpaceOnUse" class="B"><feFlood class="C"/><feBlend in="SourceGraphic"/><feGaussianBlur stdDeviation="150"/></filter><filter id="E" x="147.688" y="173.008" width="1905.87" height="1768.01" filterUnits="userSpaceOnUse" class="B"><feFlood class="C"/><feBlend in="SourceGraphic"/><feGaussianBlur stdDeviation="150"/></filter><filter id="F" x="1908.2" y="1048" width="1357.03" height="943.6" filterUnits="userSpaceOnUse" class="B"><feFlood class="C"/><feBlend in="SourceGraphic"/><feGaussianBlur stdDeviation="35"/></filter><path id="G" d="M539.559 576.377C503.09 484.948 421.971 410.43 314.79 382.779c-78.307-20.203-157.253-11.964-224.599 18.06 36.899 94.086 121.37 170.025 232.42 195.702 75.889 17.548 151.809 8.76 216.948-20.164z"/><path id="H" d="M600.066 521.421c-49.067-30.761-88.933-88.048-104.355-158.98s-2.94-139.596 28.922-187.952c49.067 30.761 88.933 88.047 104.355 158.98s2.941 139.596-28.922 187.952z"/></defs></svg>