<svg width="113" height="198" viewBox="0 0 113 198" fill="none" xmlns="http://www.w3.org/2000/svg">
<g clip-path="url(#clip0_4_33)">
<path d="M6.33154 77.0529C6.33154 76.3046 7.93107 75.9766 8.99839 75.9766H104.585C105.652 75.9766 105.871 76.3046 105.871 77.0529V179.006C105.868 179.44 105.732 179.863 105.483 180.219C105.234 180.574 104.882 180.846 104.475 180.997L58.7335 197.735C57.6358 198.079 56.4594 198.079 55.3618 197.735L8.38274 181C7.4305 180.66 6.33154 179.765 6.33154 179.006V77.0529Z" fill="#F7F7F7"/>
<path opacity="0.42" d="M102.451 112.434V100.733H9.9173L102.451 112.434Z" fill="#E0E0E0"/>
<path d="M108.547 95.6934C108.547 95.6934 62.5805 110.892 4.58881 95.6934V66.1143C58.0983 80.0462 108.547 66.1143 108.547 66.1143V95.6934Z" fill="white"/>
<path d="M108.545 66.1147V95.6938C108.545 95.6938 88.1133 102.454 57.3136 102.454C39.5214 102.465 21.8012 100.193 4.58663 95.6938V66.1147C22.4231 70.7568 39.9144 72.3051 55.3142 72.3051C86.1196 72.3051 108.536 66.1147 108.536 66.1147H108.545ZM113.018 60.2236L107.345 61.7921C107.103 61.8583 85.058 67.8213 55.3056 67.8213C37.8028 67.8213 21.1142 65.7866 5.70573 61.7777L0.104492 60.3129V99.1646L3.45315 100.031C21.0388 104.626 39.1408 106.947 57.3165 106.938C88.4786 106.938 109.1 100.241 109.963 99.956L113.038 98.9401V60.2236H113.018Z" fill="#F7F7F7"/>
<path d="M21.7668 77.677C22.0757 77.7314 22.3697 77.85 22.6298 78.0253C22.8771 78.1884 23.0917 78.3963 23.2628 78.6383C23.4276 78.8781 23.5466 79.1465 23.6137 79.4297C23.6889 79.7271 23.6997 80.0372 23.6454 80.3391L22.0574 89.3297C22.0042 89.6324 21.8843 89.9195 21.7064 90.17C21.5308 90.4178 21.3114 90.6314 21.0591 90.8003C20.7974 90.9709 20.5038 91.0864 20.196 91.1399C19.8729 91.202 19.541 91.202 19.2179 91.1399C16.763 90.6717 14.3129 90.1604 11.8675 89.606C11.5461 89.5313 11.241 89.3987 10.9671 89.2146C10.7056 89.0402 10.4808 88.8163 10.3054 88.5555C10.1338 88.3042 10.0163 88.02 9.96018 87.7209C9.90168 87.4188 9.90953 87.1075 9.98319 86.8086C10.6909 83.854 11.4005 80.8984 12.1121 77.9418C12.1813 77.6493 12.3083 77.3735 12.4857 77.1309C12.6631 76.8882 12.8872 76.6835 13.1449 76.5288C13.4039 76.3788 13.6873 76.2756 13.982 76.2237C14.288 76.1671 14.6023 76.174 14.9055 76.2438C17.184 76.7638 19.4711 77.2415 21.7668 77.677ZM19.963 80.7161C18.4153 80.413 16.8704 80.0916 15.3284 79.752L13.8094 86.6244C15.4051 86.9794 17.0056 87.3132 18.6109 87.626C19.0539 85.3256 19.5046 83.0223 19.963 80.7161Z" fill="#122F4C"/>
<path d="M37.4536 80.09C37.4849 80.1277 37.5082 80.1714 37.5221 80.2184C37.5359 80.2654 37.54 80.3148 37.5341 80.3634L37.2666 82.9334C37.255 83.0326 37.2046 83.1231 37.1264 83.1852C37.0482 83.2472 36.9486 83.2757 36.8494 83.2644C34.6208 83.0265 32.3961 82.7511 30.1751 82.4384C30.1061 82.4384 30.0716 82.4384 30.0629 82.5017C29.9651 83.2039 29.8692 83.9081 29.7753 84.6141C29.7716 84.6272 29.7711 84.6409 29.7738 84.6542C29.7765 84.6675 29.7823 84.68 29.7907 84.6907C29.7991 84.7013 29.8099 84.7099 29.8222 84.7156C29.8345 84.7213 29.848 84.724 29.8616 84.7235C31.5666 84.9652 33.2735 85.1839 34.9824 85.3796C35.0312 85.3835 35.0787 85.3975 35.1218 85.4208C35.1649 85.4441 35.2027 85.4761 35.2327 85.5149C35.2937 85.5975 35.3196 85.701 35.3046 85.8027L35.0169 88.2316C35.0129 88.2802 34.9991 88.3274 34.9764 88.3704C34.9536 88.4134 34.9224 88.4514 34.8846 88.482C34.8453 88.5155 34.7992 88.5398 34.7494 88.5532C34.6997 88.5667 34.6476 88.5689 34.5969 88.5597C32.8708 88.3679 31.137 88.1463 29.3955 87.8949C29.3826 87.8903 29.3687 87.8889 29.3551 87.8908C29.3415 87.8926 29.3285 87.8977 29.3172 87.9056C29.306 87.9135 29.2968 87.9239 29.2904 87.9361C29.284 87.9482 29.2806 87.9618 29.2804 87.9755C29.0752 89.4298 28.869 90.8831 28.6619 92.3355C28.6274 92.583 28.4778 92.6866 28.2131 92.6492C27.2494 92.5082 26.2885 92.3614 25.3363 92.2118C25.0716 92.1686 24.9594 92.0276 24.9997 91.7801C25.6825 87.517 26.3652 83.2529 27.048 78.9878C27.0493 78.9367 27.0624 78.8865 27.0863 78.8413C27.1102 78.7961 27.1442 78.757 27.1858 78.7272C27.2273 78.6973 27.2752 78.6775 27.3256 78.6693C27.3761 78.6611 27.4278 78.6647 27.4767 78.6799C30.7102 79.1921 33.9525 79.6209 37.2033 79.9663C37.2997 79.9731 37.3896 80.0175 37.4536 80.09Z" fill="#122F4C"/>
<path d="M49.9445 80.9886C49.9781 81.0243 50.004 81.0664 50.0208 81.1124C50.0376 81.1584 50.045 81.2074 50.0423 81.2563C50.0078 82.1196 49.9762 82.983 49.9417 83.8464C49.9412 83.8957 49.9301 83.9443 49.9093 83.989C49.8884 84.0337 49.8583 84.0734 49.8208 84.1054C49.7824 84.1409 49.7369 84.168 49.6874 84.1849C49.6378 84.2017 49.5853 84.208 49.5331 84.2032C47.295 84.1112 45.0596 83.9816 42.8272 83.8147C42.761 83.8147 42.7265 83.832 42.7208 83.8838C42.669 84.5956 42.6153 85.3045 42.5597 86.0106C42.5569 86.0241 42.5574 86.0382 42.561 86.0515C42.5646 86.0649 42.5713 86.0772 42.5805 86.0875C42.5897 86.0979 42.6012 86.1059 42.6141 86.111C42.6269 86.1162 42.6408 86.1182 42.6546 86.1171C44.3673 86.2475 46.0819 86.354 47.7984 86.4365C47.8472 86.4374 47.8952 86.4486 47.9394 86.4695C47.9835 86.4903 48.0227 86.5203 48.0544 86.5574C48.0867 86.5936 48.1113 86.636 48.1266 86.682C48.1419 86.728 48.1477 86.7767 48.1436 86.825C48.1072 87.6385 48.0688 88.453 48.0286 89.2684C48.0256 89.3665 47.9843 89.4595 47.9135 89.5274C47.8773 89.5617 47.8342 89.588 47.7871 89.6043C47.7399 89.6207 47.6899 89.6269 47.6402 89.6223C45.8968 89.536 44.1553 89.4276 42.4158 89.2971C42.3468 89.2971 42.3094 89.323 42.3065 89.3864C42.1933 90.8522 42.0821 92.3161 41.9728 93.778C41.9555 94.0255 41.8117 94.1378 41.5441 94.1176C40.5746 94.0428 39.608 93.9594 38.6414 93.873C38.3738 93.8471 38.253 93.7118 38.276 93.4643C38.6788 89.1648 39.0825 84.8652 39.4872 80.5656C39.4849 80.5146 39.4946 80.4637 39.5152 80.417C39.5359 80.3704 39.5671 80.3291 39.6064 80.2965C39.6457 80.2639 39.692 80.2408 39.7417 80.2291C39.7914 80.2173 39.8431 80.2173 39.8928 80.2289C43.1532 80.5282 46.4137 80.745 49.6741 80.8793C49.7243 80.8776 49.7743 80.8864 49.8209 80.9053C49.8675 80.9241 49.9096 80.9525 49.9445 80.9886Z" fill="#122F4C"/>
<path d="M55.3552 94.3456C55.3552 94.5931 55.2171 94.7168 54.9495 94.714C53.98 94.6996 53.0077 94.6823 52.0382 94.6564C51.7706 94.6564 51.6412 94.5211 51.6469 94.2736L52.018 81.3231C52.0125 81.2723 52.0187 81.221 52.0363 81.173C52.0539 81.1251 52.0823 81.0819 52.1194 81.0468C52.1564 81.0116 52.2011 80.9856 52.2499 80.9706C52.2987 80.9556 52.3503 80.9522 52.4006 80.9605C53.3078 80.9873 54.214 81.0055 55.1193 81.0151C55.1701 81.0083 55.2219 81.0134 55.2704 81.0301C55.3189 81.0467 55.3629 81.0744 55.3989 81.1109C55.4349 81.1475 55.4619 81.192 55.4778 81.2408C55.4937 81.2896 55.498 81.3414 55.4904 81.3921C55.4444 85.709 55.3993 90.0268 55.3552 94.3456Z" fill="#122F4C"/>
<path d="M62.1841 84.4001C62.1487 84.4323 62.1211 84.4721 62.1032 84.5164C62.0853 84.5607 62.0775 84.6085 62.0805 84.6562L62.2272 90.9876C62.2268 91.0363 62.2374 91.0844 62.2584 91.1283C62.2793 91.1721 62.31 91.2107 62.3481 91.2409C62.4294 91.3057 62.5321 91.3375 62.6357 91.3301C64.8567 91.2764 67.0766 91.1805 69.2957 91.0423C69.3471 91.0373 69.3991 91.0426 69.4485 91.0579C69.4979 91.0732 69.5437 91.0983 69.5833 91.1315C69.6221 91.163 69.6537 91.2024 69.676 91.2471C69.6983 91.2917 69.7109 91.3406 69.7128 91.3905L69.8682 93.9663C69.8715 94.0164 69.8643 94.0666 69.847 94.1137C69.8296 94.1608 69.8025 94.2037 69.7675 94.2397C69.6916 94.3172 69.5882 94.3617 69.4798 94.3634C68.0126 94.4478 66.5444 94.5179 65.0753 94.5735C63.8632 94.6157 62.653 94.6493 61.4447 94.6742H61.065C60.7373 94.6826 60.4111 94.6279 60.1041 94.5131C59.8097 94.4064 59.539 94.2432 59.3072 94.0325C59.0828 93.8275 58.9026 93.5787 58.7779 93.3015C58.6503 93.0224 58.5846 92.7191 58.5851 92.4122V92.0928C58.5851 91.6179 58.5851 91.1402 58.5851 90.6538L58.5592 86.0923C58.5592 85.6693 58.5592 85.2462 58.5592 84.8203V83.3151C58.5564 83.0092 58.6151 82.7058 58.7318 82.423C58.8445 82.1493 59.0119 81.9015 59.2238 81.6949C59.4373 81.4872 59.6856 81.3187 59.9574 81.197C60.2389 81.0703 60.5434 81.0027 60.8521 80.9984H61.2059C63.6992 80.9485 66.1992 80.8526 68.7059 80.7106C68.755 80.7067 68.8043 80.7127 68.8511 80.7282C68.8978 80.7437 68.9409 80.7684 68.9779 80.8009C69.0149 80.8333 69.0451 80.8729 69.0665 80.9172C69.088 80.9615 69.1004 81.0097 69.1029 81.0589L69.2583 83.649C69.262 83.6982 69.2555 83.7476 69.2391 83.7942C69.2228 83.8408 69.197 83.8834 69.1633 83.9195C69.1302 83.9566 69.09 83.9867 69.045 84.008C69 84.0292 68.9512 84.0412 68.9015 84.0433C66.7573 84.166 64.6141 84.2553 62.4718 84.3109C62.4203 84.3057 62.3683 84.3109 62.3188 84.3262C62.2694 84.3416 62.2236 84.3667 62.1841 84.4001Z" fill="#122F4C"/>
<path d="M76.9024 93.4392C76.9255 93.6867 76.8046 93.8219 76.54 93.845C75.5705 93.9371 74.6038 94.0205 73.6343 94.0953C73.3668 94.1155 73.2258 94.0033 73.2057 93.7558C72.8758 89.4504 72.5459 85.1441 72.2161 80.8368C72.2051 80.7869 72.2061 80.7351 72.2187 80.6855C72.2314 80.636 72.2554 80.5901 72.289 80.5515C72.3225 80.513 72.3646 80.4828 72.4119 80.4633C72.4591 80.4439 72.5103 80.4358 72.5613 80.4397C73.4646 80.3687 74.3679 80.291 75.2713 80.2066C75.3209 80.1945 75.3727 80.1942 75.4225 80.2055C75.4724 80.2168 75.5189 80.2396 75.5585 80.2719C75.598 80.3043 75.6296 80.3453 75.6506 80.3919C75.6717 80.4385 75.6817 80.4893 75.6798 80.5404C76.0883 84.84 76.4958 89.1396 76.9024 93.4392Z" fill="#122F4C"/>
<path d="M87.9219 78.6059C88.2271 78.5548 88.5396 78.5676 88.8396 78.6434C89.1266 78.7155 89.3984 78.8383 89.6423 79.006C89.8833 79.1768 90.091 79.3904 90.255 79.6362C90.4258 79.8913 90.5405 80.1797 90.5916 80.4823C91.2188 84.1085 91.845 87.7337 92.4702 91.358C92.4805 91.4081 92.4797 91.4598 92.4678 91.5096C92.4558 91.5593 92.4331 91.6058 92.4012 91.6457C92.3367 91.7302 92.2417 91.786 92.1365 91.8011C91.1775 91.9642 90.209 92.1225 89.2309 92.276C89.1304 92.2929 89.0273 92.2702 88.9432 92.2127C88.9008 92.1867 88.8648 92.1514 88.8379 92.1096C88.811 92.0677 88.7939 92.0203 88.7878 91.9709L88.2527 88.5175C88.2468 88.4689 88.2313 88.422 88.2071 88.3795C88.1829 88.337 88.1505 88.2998 88.1118 88.27C88.0711 88.2395 88.0244 88.2181 87.9748 88.2072C87.9252 88.1963 87.8738 88.1961 87.8241 88.2066C86.47 88.41 85.116 88.6019 83.762 88.7822C83.7107 88.787 83.6609 88.8019 83.6155 88.8261C83.57 88.8504 83.5299 88.8834 83.4973 88.9232C83.4639 88.9625 83.4395 89.0086 83.4261 89.0584C83.4127 89.1082 83.4105 89.1603 83.4196 89.211L83.8655 92.6674C83.8972 92.912 83.7792 93.053 83.5146 93.0876C82.5479 93.2084 81.5842 93.3264 80.6176 93.4358C80.35 93.4646 80.2033 93.3552 80.1774 93.1106L78.9605 82.14C78.9253 81.8366 78.9517 81.5293 79.0382 81.2363C79.1214 80.9522 79.2613 80.6878 79.4496 80.4593C79.6418 80.2294 79.8725 80.0347 80.1314 79.8837C80.3961 79.7293 80.69 79.6313 80.9944 79.5959C83.3074 79.3062 85.6166 78.9762 87.9219 78.6059ZM87.7407 85.2251C87.568 84.0912 87.3935 82.9564 87.2171 81.8206C85.6636 82.0604 84.1081 82.281 82.5508 82.4825L82.991 85.8986C84.5771 85.6952 86.1622 85.4726 87.7464 85.2309L87.7407 85.2251Z" fill="#122F4C"/>
<path d="M104.414 85.8914C104.463 85.8783 104.513 85.8754 104.563 85.8828C104.612 85.8903 104.66 85.9079 104.702 85.9346C104.743 85.9602 104.779 85.9942 104.807 86.0343C104.835 86.0744 104.854 86.1198 104.863 86.1677L105.467 88.6772C105.481 88.7255 105.484 88.7761 105.476 88.8257C105.469 88.8753 105.451 88.9228 105.424 88.965C105.398 89.0085 105.363 89.046 105.321 89.0752C105.279 89.1044 105.232 89.1247 105.182 89.1348C102.204 89.8428 99.2157 90.4845 96.218 91.0601C95.9563 91.109 95.8009 91.0141 95.7549 90.7723C94.9494 86.5303 94.1457 82.2873 93.3441 78.0433C93.3276 77.9957 93.3223 77.9449 93.3286 77.8949C93.335 77.8449 93.3528 77.797 93.3806 77.755C93.4084 77.7129 93.4455 77.6779 93.4891 77.6525C93.5327 77.6272 93.5815 77.6122 93.6318 77.6088C94.5265 77.4361 95.4183 77.2606 96.3101 77.0764C96.3584 77.0583 96.4102 77.0518 96.4615 77.0573C96.5127 77.0629 96.562 77.0803 96.6053 77.1083C96.6486 77.1362 96.6848 77.1739 96.711 77.2183C96.7371 77.2628 96.7526 77.3127 96.756 77.3642C97.4119 80.5126 98.0669 83.6601 98.7209 86.8066C98.7299 86.8546 98.7495 86.8999 98.7784 86.9393C98.8073 86.9786 98.8447 87.011 98.8878 87.0339C98.9758 87.0814 99.0782 87.0948 99.1755 87.0713C100.932 86.701 102.679 86.3077 104.414 85.8914Z" fill="#122F4C"/>
<path d="M113.097 60.2173L107.372 57.3768L107.309 0H5.18014L5.28946 57.8459L0.0334473 60.436L5.28946 64.0881V64.1773H5.40741L5.72674 64.4018L5.75551 64.1773H7.52478C7.52478 64.1773 56.5522 78.9036 106.627 64.4018H107.375V64.1773H107.406L113.097 60.2173Z" fill="#F7F7F7"/>
<path d="M25.2988 161.574C25.569 161.686 25.8136 161.852 26.018 162.061C26.2199 162.27 26.3835 162.514 26.5013 162.78C26.6241 163.051 26.6869 163.346 26.6854 163.644V167.296C26.6875 167.6 26.6247 167.901 26.5013 168.179C26.3851 168.449 26.2214 168.695 26.018 168.907C25.8144 169.117 25.5695 169.283 25.2988 169.394C25.0193 169.511 24.7188 169.571 24.4156 169.569H16.6682C16.6201 169.576 16.571 169.572 16.5247 169.557C16.4784 169.542 16.436 169.517 16.4007 169.483C16.3654 169.45 16.338 169.409 16.3206 169.364C16.3031 169.318 16.2961 169.269 16.3 169.221V166.87C16.2992 166.821 16.3082 166.773 16.3264 166.728C16.3447 166.683 16.3718 166.642 16.4061 166.608C16.4405 166.573 16.4814 166.546 16.5264 166.528C16.5714 166.51 16.6197 166.501 16.6682 166.501H23.285C23.3817 166.504 23.4756 166.469 23.5468 166.403C23.5816 166.371 23.6092 166.332 23.6275 166.288C23.6459 166.245 23.6547 166.198 23.6532 166.15V164.539C23.6538 164.49 23.6446 164.442 23.6264 164.397C23.6081 164.352 23.581 164.311 23.5468 164.277C23.5128 164.242 23.472 164.215 23.427 164.196C23.3819 164.178 23.3336 164.169 23.285 164.17H18.5698C18.1237 164.173 17.6869 164.043 17.3142 163.798C16.9415 163.553 16.6497 163.203 16.4755 162.792C16.3588 162.519 16.2991 162.225 16.3 161.928V158.253C16.2981 157.95 16.3578 157.649 16.4755 157.37C16.5851 157.099 16.7497 156.854 16.9588 156.65C17.1718 156.448 17.418 156.285 17.6866 156.167C17.9647 156.044 18.2657 155.981 18.5698 155.983H25.8914C25.9415 155.975 25.9925 155.98 26.0405 155.996C26.0885 156.012 26.132 156.039 26.1678 156.074C26.2035 156.11 26.2305 156.154 26.2464 156.202C26.2624 156.25 26.2669 156.301 26.2597 156.351V158.74C26.2615 158.787 26.2529 158.834 26.2345 158.878C26.2161 158.922 26.1884 158.961 26.1532 158.993C26.0811 159.057 25.9876 159.09 25.8914 159.088H19.6976C19.65 159.087 19.6026 159.096 19.5589 159.115C19.5152 159.134 19.4761 159.162 19.4444 159.197C19.3794 159.269 19.3444 159.362 19.3466 159.459V161.03C19.3444 161.127 19.3794 161.221 19.4444 161.292C19.4761 161.328 19.5152 161.356 19.5589 161.375C19.6026 161.394 19.65 161.403 19.6976 161.402H24.4156C24.7185 161.401 25.0186 161.459 25.2988 161.574Z" fill="#122F4C"/>
<path d="M39.9176 156.09C39.9521 156.124 39.9793 156.165 39.9976 156.21C40.0159 156.255 40.0249 156.303 40.024 156.352V158.798C40.0251 158.846 40.0161 158.893 39.9978 158.936C39.9794 158.98 39.9521 159.019 39.9176 159.052C39.8458 159.116 39.7523 159.151 39.6558 159.149H33.1512C33.085 159.149 33.0534 159.181 33.0534 159.244V161.362C33.0534 161.414 33.085 161.44 33.1512 161.44H38.7035C38.7509 161.438 38.7982 161.447 38.8419 161.465C38.8857 161.484 38.9248 161.512 38.9567 161.547C39.0204 161.619 39.0543 161.712 39.0516 161.809V163.754C39.0546 163.85 39.0206 163.944 38.9567 164.016C38.9248 164.051 38.8857 164.079 38.8419 164.097C38.7982 164.116 38.7509 164.124 38.7035 164.122H33.1512C33.1379 164.12 33.1244 164.122 33.1116 164.126C33.0989 164.13 33.0873 164.137 33.0778 164.147C33.0683 164.156 33.0611 164.168 33.0569 164.181C33.0527 164.193 33.0515 164.207 33.0534 164.22V166.318C33.0515 166.332 33.0527 166.345 33.0569 166.358C33.0611 166.371 33.0683 166.382 33.0778 166.392C33.0873 166.401 33.0989 166.408 33.1116 166.413C33.1244 166.417 33.1379 166.418 33.1512 166.416H39.6558C39.7044 166.415 39.7527 166.424 39.7978 166.442C39.8428 166.46 39.8836 166.488 39.9176 166.523C39.9518 166.557 39.9789 166.598 39.9971 166.643C40.0154 166.688 40.0245 166.736 40.024 166.784V169.222C40.0245 169.271 40.0154 169.319 39.9971 169.364C39.9789 169.409 39.9518 169.45 39.9176 169.484C39.8836 169.519 39.8428 169.546 39.7978 169.564C39.7527 169.583 39.7044 169.592 39.6558 169.59H30.0039C29.9535 169.599 29.9018 169.595 29.853 169.579C29.8043 169.564 29.7599 169.537 29.7235 169.501C29.687 169.465 29.6596 169.421 29.6433 169.373C29.6271 169.324 29.6225 169.273 29.6299 169.222V156.352C29.6291 156.303 29.6381 156.255 29.6564 156.21C29.6747 156.165 29.7019 156.124 29.7364 156.09C29.7704 156.055 29.8111 156.028 29.8562 156.01C29.9012 155.991 29.9496 155.982 29.9982 155.984H39.65C39.6996 155.982 39.749 155.99 39.7951 156.008C39.8412 156.027 39.8829 156.055 39.9176 156.09Z" fill="#122F4C"/>
<path d="M52.2389 155.983C52.543 155.982 52.844 156.045 53.1221 156.168C53.3893 156.284 53.633 156.448 53.8413 156.651C54.0458 156.859 54.2097 157.103 54.3246 157.371C54.4487 157.649 54.5124 157.95 54.5116 158.254V169.222C54.5123 169.271 54.5029 169.319 54.4841 169.364C54.4653 169.409 54.4375 169.45 54.4023 169.484C54.3685 169.519 54.3278 169.546 54.2827 169.565C54.2376 169.583 54.1892 169.592 54.1405 169.59H51.442C51.3935 169.591 51.3452 169.582 51.3002 169.564C51.2552 169.545 51.2143 169.518 51.1799 169.484C51.1456 169.45 51.1185 169.409 51.1002 169.364C51.082 169.319 51.073 169.27 51.0738 169.222V165.734C51.0767 165.636 51.0416 165.541 50.976 165.469C50.9439 165.434 50.9046 165.407 50.861 165.388C50.8173 165.37 50.7702 165.361 50.7228 165.363H46.8937C46.8452 165.362 46.7971 165.371 46.7521 165.389C46.7072 165.408 46.6663 165.435 46.6319 165.469C46.5971 165.504 46.5696 165.545 46.5513 165.59C46.533 165.636 46.5242 165.685 46.5255 165.734V169.222C46.5327 169.272 46.5282 169.323 46.5122 169.371C46.4963 169.419 46.4694 169.463 46.4336 169.498C46.3979 169.534 46.3543 169.561 46.3063 169.577C46.2583 169.593 46.2073 169.597 46.1572 169.59H43.476C43.426 169.597 43.3749 169.593 43.327 169.577C43.279 169.561 43.2354 169.534 43.1996 169.498C43.1639 169.463 43.137 169.419 43.121 169.371C43.1051 169.323 43.1005 169.272 43.1078 169.222V158.254C43.1059 157.951 43.1656 157.65 43.2833 157.371C43.394 157.1 43.5595 156.855 43.7695 156.651C43.982 156.449 44.2283 156.285 44.4973 156.168C44.7753 156.044 45.0764 155.981 45.3805 155.983H52.2389ZM51.0738 162.45V159.031H46.5111V162.45H51.0738Z" fill="#122F4C"/>
<path d="M66.5165 161.575C66.7858 161.687 67.0296 161.852 67.2329 162.061C67.4357 162.271 67.6002 162.514 67.7191 162.781C67.8418 163.052 67.9046 163.346 67.9032 163.644V167.296C67.9053 167.6 67.8425 167.902 67.7191 168.18C67.6018 168.449 67.4371 168.696 67.2329 168.908C67.0303 169.118 66.7864 169.283 66.5165 169.394C66.2371 169.512 65.9366 169.571 65.6334 169.57H57.886C57.8359 169.577 57.7849 169.572 57.7369 169.556C57.689 169.54 57.6454 169.513 57.6096 169.478C57.5739 169.442 57.547 169.398 57.531 169.35C57.5151 169.302 57.5105 169.251 57.5177 169.201V166.85C57.5166 166.801 57.5254 166.753 57.5437 166.708C57.562 166.663 57.5894 166.622 57.6242 166.588C57.658 166.553 57.6987 166.525 57.7438 166.507C57.7889 166.489 57.8373 166.48 57.886 166.482H64.4884C64.585 166.484 64.6788 166.449 64.7502 166.384C64.785 166.352 64.8125 166.312 64.8309 166.269C64.8493 166.225 64.858 166.178 64.8566 166.131V164.519C64.8571 164.47 64.848 164.422 64.8297 164.377C64.8114 164.332 64.7844 164.291 64.7502 164.257C64.716 164.222 64.6752 164.195 64.6302 164.177C64.5852 164.159 64.5369 164.15 64.4884 164.151H59.7876C59.4843 164.152 59.1839 164.093 58.9044 163.975C58.6319 163.863 58.3844 163.698 58.1765 163.489C57.9706 163.283 57.8056 163.04 57.6904 162.772C57.576 162.499 57.5173 162.205 57.5177 161.909V158.254C57.5166 157.951 57.5753 157.65 57.6904 157.37C57.8021 157.1 57.9675 156.855 58.1765 156.651C58.3891 156.448 58.6354 156.285 58.9044 156.167C59.1825 156.044 59.4835 155.981 59.7876 155.983H67.1063C67.1566 155.975 67.2079 155.979 67.2563 155.995C67.3046 156.011 67.3486 156.038 67.3847 156.074C67.4208 156.109 67.448 156.153 67.4641 156.201C67.4802 156.25 67.4848 156.301 67.4774 156.351V158.74C67.4785 158.787 67.4695 158.834 67.4512 158.878C67.4328 158.922 67.4055 158.961 67.371 158.993C67.298 159.057 67.2034 159.091 67.1063 159.088H60.9153C60.8677 159.087 60.8203 159.096 60.7766 159.115C60.7328 159.134 60.6938 159.162 60.6621 159.198C60.5961 159.269 60.561 159.363 60.5643 159.46V161.031C60.561 161.128 60.5961 161.222 60.6621 161.293C60.6938 161.328 60.7328 161.357 60.7766 161.376C60.8203 161.395 60.8677 161.404 60.9153 161.402H65.6334C65.9362 161.401 66.2364 161.46 66.5165 161.575Z" fill="#122F4C"/>
<path d="M79.9781 155.983C80.2822 155.981 80.5833 156.044 80.8613 156.168C81.1284 156.284 81.3722 156.448 81.5805 156.651C81.7859 156.859 81.9507 157.103 82.0667 157.371C82.1885 157.649 82.2512 157.95 82.2508 158.254V167.305C82.2514 167.609 82.1887 167.91 82.0667 168.189C81.9494 168.458 81.7847 168.705 81.5805 168.917C81.3769 169.127 81.132 169.292 80.8613 169.403C80.5819 169.521 80.2814 169.581 79.9781 169.579H73.0909C72.7877 169.581 72.4872 169.521 72.2077 169.403C71.9352 169.291 71.6877 169.126 71.4799 168.917C71.2688 168.705 71.1019 168.454 70.9888 168.177C70.8757 167.9 70.8187 167.604 70.8211 167.305V158.254C70.8199 157.951 70.8786 157.651 70.9937 157.371C71.1054 157.1 71.2708 156.856 71.4799 156.651C71.6924 156.449 71.9387 156.285 72.2077 156.168C72.4858 156.045 72.7868 155.982 73.0909 155.983H79.9781ZM78.813 159.284H74.2244V166.275H78.7986L78.813 159.284Z" fill="#122F4C"/>
<path d="M96.5921 156.09C96.6266 156.124 96.6538 156.165 96.6721 156.21C96.6904 156.255 96.6994 156.303 96.6986 156.351V169.221C96.6991 169.27 96.69 169.318 96.6717 169.363C96.6534 169.408 96.6264 169.449 96.5921 169.483C96.5581 169.518 96.5173 169.546 96.4723 169.564C96.4273 169.582 96.3789 169.591 96.3303 169.59H93.534C93.4243 169.589 93.317 169.558 93.2233 169.501C93.1269 169.449 93.0463 169.373 92.9903 169.279L88.698 161.353V169.221C88.7053 169.271 88.7007 169.323 88.6848 169.37C88.6688 169.418 88.6419 169.462 88.6062 169.498C88.5704 169.534 88.5268 169.561 88.4788 169.577C88.4309 169.592 88.3798 169.597 88.3298 169.59H85.6514C85.6013 169.597 85.5502 169.592 85.5021 169.576C85.4541 169.56 85.4103 169.534 85.3744 169.498C85.3384 169.462 85.3112 169.419 85.2949 169.371C85.2786 169.323 85.2736 169.272 85.2803 169.221V156.351C85.273 156.301 85.2775 156.25 85.2936 156.201C85.3097 156.153 85.3369 156.109 85.373 156.074C85.4091 156.038 85.4531 156.011 85.5015 155.995C85.5498 155.979 85.6012 155.975 85.6514 155.983H88.4075C88.5167 155.985 88.6237 156.014 88.7182 156.069C88.8157 156.12 88.8966 156.198 88.9512 156.294L93.2665 164.237V156.351C93.2656 156.303 93.2746 156.255 93.2929 156.21C93.3112 156.165 93.3384 156.124 93.3729 156.09C93.4069 156.055 93.4477 156.027 93.4927 156.009C93.5378 155.991 93.5861 155.982 93.6347 155.983H96.3361C96.3837 155.983 96.431 155.992 96.475 156.01C96.519 156.028 96.5588 156.055 96.5921 156.09Z" fill="#122F4C"/>
<path d="M23.2658 45.3258C23.3426 45.3602 23.4127 45.408 23.4729 45.4668C23.5318 45.5264 23.5787 45.5967 23.611 45.674C23.6477 45.7533 23.6664 45.8398 23.6657 45.9273V49.093C23.6657 49.1069 23.6629 49.1208 23.6575 49.1336C23.652 49.1465 23.6441 49.1581 23.634 49.1678C23.6242 49.1775 23.6125 49.185 23.5996 49.19C23.5867 49.1949 23.573 49.1972 23.5592 49.1966H22.7825C22.7691 49.1977 22.7556 49.1957 22.7431 49.1907C22.7306 49.1857 22.7195 49.1779 22.7105 49.1678C22.7009 49.158 22.6933 49.1462 22.6884 49.1334C22.6834 49.1205 22.6812 49.1068 22.6818 49.093V46.2352H22.0546V49.093C22.0554 49.1202 22.0462 49.1468 22.0287 49.1678C22.019 49.1776 22.0073 49.1852 21.9944 49.1902C21.9815 49.1952 21.9677 49.1973 21.9539 49.1966H21.252C21.2377 49.1974 21.2235 49.1952 21.2101 49.1903C21.1968 49.1853 21.1846 49.1777 21.1743 49.1678C21.1646 49.158 21.1571 49.1462 21.1522 49.1334C21.1472 49.1205 21.145 49.1068 21.1455 49.093V46.2352H20.5184V49.093C20.5204 49.1073 20.519 49.1219 20.5143 49.1356C20.5096 49.1493 20.5018 49.1617 20.4914 49.1718C20.481 49.1819 20.4684 49.1894 20.4546 49.1937C20.4408 49.198 20.4262 49.199 20.4119 49.1966H19.6409C19.6268 49.1984 19.6124 49.197 19.5989 49.1924C19.5853 49.1879 19.573 49.1804 19.5628 49.1704C19.5525 49.1605 19.5447 49.1483 19.5398 49.1349C19.5349 49.1215 19.5331 49.1072 19.5345 49.093V45.3805C19.5326 45.366 19.5341 45.3514 19.5387 45.3376C19.5434 45.3238 19.5512 45.3113 19.5615 45.301C19.5718 45.2907 19.5843 45.2829 19.5981 45.2782C19.6118 45.2736 19.6265 45.2721 19.6409 45.274H23.0155C23.1016 45.2741 23.1867 45.2918 23.2658 45.3258Z" fill="#242425"/>
<path d="M27.1748 45.2732C27.2628 45.2729 27.3499 45.2905 27.4309 45.325C27.5077 45.3594 27.5778 45.4072 27.638 45.466C27.6969 45.5256 27.7438 45.5959 27.7761 45.6732C27.8115 45.753 27.8301 45.8392 27.8308 45.9265V49.0922C27.8308 49.1061 27.828 49.12 27.8226 49.1328C27.8171 49.1457 27.8092 49.1573 27.7991 49.167C27.7893 49.1767 27.7776 49.1842 27.7647 49.1892C27.7518 49.1941 27.7381 49.1964 27.7243 49.1958H26.9476C26.9338 49.1965 26.92 49.1944 26.9071 49.1894C26.8942 49.1844 26.8825 49.1768 26.8728 49.167C26.8623 49.1577 26.854 49.1461 26.8485 49.1331C26.8431 49.1202 26.8405 49.1062 26.8411 49.0922V48.0907C26.8417 48.0769 26.8394 48.0631 26.8345 48.0503C26.8295 48.0374 26.822 48.0257 26.8123 48.0158C26.8033 48.0057 26.7922 47.9977 26.7798 47.9922C26.7674 47.9868 26.754 47.984 26.7404 47.9842H25.6328C25.6048 47.9849 25.5782 47.9964 25.5584 48.0162C25.5386 48.036 25.5271 48.0627 25.5264 48.0907V49.0922C25.5284 49.1065 25.527 49.1211 25.5223 49.1348C25.5176 49.1485 25.5098 49.1609 25.4994 49.171C25.4891 49.1811 25.4765 49.1886 25.4627 49.1929C25.4488 49.1972 25.4342 49.1982 25.42 49.1958H24.649C24.6349 49.1977 24.6206 49.1963 24.6072 49.1918C24.5937 49.1872 24.5815 49.1797 24.5715 49.1696C24.5615 49.1596 24.5539 49.1474 24.5494 49.134C24.5449 49.1205 24.5435 49.1062 24.5454 49.0922V45.9265C24.5441 45.8396 24.5607 45.7534 24.5943 45.6732C24.6295 45.5955 24.6804 45.5259 24.7439 45.4689C24.8046 45.4107 24.8746 45.363 24.951 45.3279C25.032 45.2934 25.1191 45.2758 25.2071 45.2761L27.1748 45.2732ZM26.8411 47.1352V46.151H25.5264V47.1352H26.8411Z" fill="#242425"/>
<path d="M31.3607 45.305C31.3709 45.3146 31.379 45.3262 31.3844 45.3391C31.3899 45.352 31.3926 45.3658 31.3924 45.3798V48.5311C31.3927 48.6191 31.3751 48.7063 31.3406 48.7873C31.3055 48.8637 31.2579 48.9338 31.1996 48.9945C31.141 49.0552 31.0705 49.1032 30.9925 49.1355C30.9124 49.1691 30.8262 49.1857 30.7393 49.1844H29.0564C28.9695 49.1857 28.8833 49.1691 28.8032 49.1355C28.7248 49.1025 28.6534 49.0546 28.5932 48.9945C28.5331 48.9353 28.4852 48.8649 28.4522 48.7873C28.42 48.7057 28.4034 48.6188 28.4033 48.5311V47.3368C28.4008 47.3223 28.4018 47.3073 28.4063 47.2932C28.4107 47.2792 28.4185 47.2664 28.4289 47.2559C28.4394 47.2455 28.4522 47.2377 28.4662 47.2333C28.4803 47.2288 28.4952 47.2278 28.5098 47.2303H29.2808C29.2952 47.2284 29.3099 47.2299 29.3236 47.2346C29.3374 47.2393 29.3499 47.247 29.3602 47.2573C29.3705 47.2676 29.3783 47.2801 29.383 47.2939C29.3877 47.3077 29.3891 47.3224 29.3872 47.3368V48.134C29.3862 48.1481 29.3885 48.1622 29.394 48.1752C29.3995 48.1882 29.408 48.1997 29.4189 48.2088C29.4395 48.2267 29.4663 48.236 29.4937 48.2347H30.3021C30.3294 48.236 30.3562 48.2267 30.3769 48.2088C30.3877 48.1997 30.3962 48.1882 30.4017 48.1752C30.4072 48.1622 30.4095 48.1481 30.4085 48.134V45.3798C30.4077 45.366 30.4099 45.3522 30.4149 45.3393C30.4198 45.3264 30.4275 45.3147 30.4373 45.305C30.4459 45.2944 30.4569 45.286 30.4694 45.2805C30.4819 45.275 30.4956 45.2725 30.5092 45.2733H31.2859C31.3 45.2728 31.314 45.2753 31.3269 45.2808C31.3398 45.2862 31.3514 45.2945 31.3607 45.305Z" fill="#242425"/>
<path d="M34.8792 45.2732C34.9662 45.2729 35.0524 45.2905 35.1323 45.325C35.2883 45.3927 35.4127 45.5172 35.4804 45.6732C35.5149 45.7532 35.5325 45.8394 35.5322 45.9265V48.5166C35.5325 48.6046 35.5149 48.6918 35.4804 48.7727C35.4453 48.8492 35.3977 48.9192 35.3395 48.9799C35.2808 49.0407 35.2103 49.0887 35.1323 49.121C35.0522 49.1546 34.966 49.1712 34.8792 49.1699H32.8999C32.813 49.1712 32.7268 49.1546 32.6467 49.121C32.5683 49.088 32.4969 49.0401 32.4367 48.9799C32.3766 48.9214 32.3295 48.8508 32.2986 48.7727C32.2641 48.6918 32.2465 48.6046 32.2468 48.5166V45.9265C32.2465 45.8394 32.2641 45.7532 32.2986 45.6732C32.329 45.5949 32.3761 45.5242 32.4367 45.466C32.4984 45.4077 32.5694 45.3601 32.6467 45.325C32.7266 45.2905 32.8128 45.2729 32.8999 45.2732H34.8792ZM34.5426 46.2229H33.2307V48.2374H34.5426V46.2229Z" fill="#242425"/>
<path d="M39.8172 49.0964C39.8233 49.1064 39.8265 49.1178 39.8265 49.1295C39.8265 49.1412 39.8233 49.1526 39.8172 49.1626C39.8172 49.1799 39.7855 49.1856 39.7539 49.1856H38.8649C38.8337 49.1859 38.803 49.178 38.7758 49.1626C38.7483 49.1467 38.7255 49.1239 38.7096 49.0964L38.117 48.0345C38.1135 48.0277 38.1081 48.0222 38.1014 48.0186C38.0947 48.015 38.0871 48.0135 38.0796 48.0143H37.4121C37.4086 48.0138 37.405 48.0142 37.4017 48.0153C37.3983 48.0164 37.3953 48.0183 37.3928 48.0209C37.3903 48.0234 37.3884 48.0264 37.3872 48.0298C37.3861 48.0331 37.3858 48.0367 37.3862 48.0402V49.082C37.3877 49.0962 37.3858 49.1106 37.3809 49.124C37.3761 49.1374 37.3682 49.1495 37.358 49.1595C37.3477 49.1694 37.3354 49.177 37.3219 49.1815C37.3083 49.186 37.294 49.1874 37.2798 49.1856H36.5088C36.4945 49.188 36.4799 49.187 36.4661 49.1827C36.4523 49.1784 36.4397 49.1709 36.4293 49.1608C36.419 49.1507 36.4111 49.1383 36.4064 49.1246C36.4017 49.1109 36.4003 49.0963 36.4024 49.082V45.381C36.3998 45.3665 36.4008 45.3515 36.4053 45.3375C36.4098 45.3234 36.4175 45.3106 36.428 45.3002C36.4384 45.2897 36.4512 45.282 36.4653 45.2775C36.4793 45.273 36.4943 45.272 36.5088 45.2745H39.0347C39.1217 45.2742 39.2079 45.2918 39.2878 45.3264C39.4438 45.3941 39.5683 45.5185 39.6359 45.6746C39.6704 45.7545 39.6881 45.8407 39.6877 45.9278V47.3984C39.6881 47.5364 39.6437 47.6707 39.5611 47.7812C39.4817 47.8905 39.37 47.972 39.2418 48.0143H39.2246C39.1987 48.0143 39.1929 48.0316 39.2073 48.046L39.8172 49.0964ZM38.7038 46.184H37.3575V47.1366H38.7038V46.184Z" fill="#242425"/>
<path d="M45.0862 48.2359C45.1002 48.2357 45.1141 48.2384 45.127 48.2439C45.1398 48.2493 45.1514 48.2574 45.161 48.2676C45.1785 48.2885 45.1877 48.3151 45.1869 48.3424V49.082C45.1877 49.1093 45.1785 49.1359 45.161 49.1568C45.1513 49.1667 45.1396 49.1743 45.1267 49.1792C45.1138 49.1842 45.1 49.1864 45.0862 49.1856H42.6726C42.6584 49.1874 42.644 49.186 42.6305 49.1815C42.6169 49.177 42.6046 49.1694 42.5944 49.1595C42.5841 49.1495 42.5763 49.1374 42.5714 49.124C42.5665 49.1106 42.5647 49.0962 42.5661 49.082V45.381C42.5642 45.3666 42.5657 45.3519 42.5704 45.3381C42.575 45.3244 42.5828 45.3119 42.5931 45.3016C42.6034 45.2913 42.6159 45.2835 42.6297 45.2788C42.6435 45.2741 42.6581 45.2727 42.6726 45.2745H43.4407C43.4552 45.272 43.4701 45.273 43.4842 45.2775C43.4983 45.282 43.5111 45.2897 43.5215 45.3002C43.5319 45.3106 43.5397 45.3234 43.5442 45.3375C43.5486 45.3515 43.5496 45.3665 43.5471 45.381V48.1352C43.5469 48.1492 43.5496 48.1631 43.5551 48.1759C43.5605 48.1888 43.5686 48.2004 43.5788 48.21C43.5997 48.2275 43.6263 48.2367 43.6536 48.2359H45.0862Z" fill="#242425"/>
<path d="M48.6957 45.3051C48.7058 45.3147 48.7139 45.3263 48.7194 45.3392C48.7248 45.352 48.7275 45.3659 48.7273 45.3799V46.0821C48.7275 46.0961 48.7248 46.11 48.7194 46.1229C48.7139 46.1357 48.7058 46.1474 48.6957 46.1569C48.6747 46.1744 48.6481 46.1836 48.6209 46.1828H46.748C46.7308 46.1828 46.7221 46.1828 46.7221 46.2116V46.8217C46.7221 46.8361 46.7221 46.8448 46.748 46.8448H48.3476C48.3609 46.8442 48.3742 46.8465 48.3866 46.8515C48.399 46.8564 48.4102 46.864 48.4195 46.8735C48.4382 46.8951 48.4484 46.9227 48.4483 46.9512V47.5096C48.4479 47.5371 48.4377 47.5637 48.4195 47.5844C48.4103 47.5944 48.3992 47.6023 48.3868 47.6078C48.3745 47.6132 48.3611 47.616 48.3476 47.616H46.748C46.7445 47.6156 46.7409 47.6159 46.7376 47.617C46.7342 47.6182 46.7312 47.6201 46.7287 47.6226C46.7262 47.6251 46.7243 47.6281 46.7231 47.6315C46.722 47.6349 46.7217 47.6384 46.7221 47.6419V47.9297V48.2549C46.7221 48.2751 46.7221 48.2837 46.748 48.2837H48.6209C48.6346 48.2831 48.6484 48.2854 48.6613 48.2903C48.6741 48.2953 48.6858 48.3028 48.6957 48.3125C48.7159 48.3333 48.7272 48.3612 48.7273 48.3902V49.0895C48.7273 49.1035 48.7246 49.1173 48.7191 49.1302C48.7137 49.143 48.7057 49.1547 48.6957 49.1644C48.6858 49.174 48.6741 49.1816 48.6613 49.1865C48.6484 49.1915 48.6346 49.1937 48.6209 49.1931H45.8447C45.8304 49.1955 45.8158 49.1945 45.802 49.1902C45.7882 49.1859 45.7756 49.1784 45.7652 49.1683C45.7549 49.1582 45.747 49.1458 45.7423 49.1322C45.7376 49.1185 45.7362 49.1039 45.7383 49.0895V45.3799C45.7375 45.3661 45.7397 45.3523 45.7446 45.3394C45.7496 45.3265 45.7572 45.3148 45.767 45.3051C45.7767 45.2942 45.7887 45.2857 45.8022 45.2802C45.8156 45.2747 45.8302 45.2724 45.8447 45.2734H48.6209C48.6349 45.2728 48.6489 45.2754 48.6618 45.2809C48.6748 45.2863 48.6863 45.2946 48.6957 45.3051Z" fill="#242425"/>
<path d="M52.2376 45.2732C52.3256 45.2726 52.4128 45.2902 52.4937 45.325C52.5705 45.3594 52.6406 45.4072 52.7008 45.466C52.7597 45.5256 52.8066 45.596 52.8389 45.6732C52.8757 45.7526 52.8943 45.8391 52.8936 45.9265V49.0922C52.8936 49.1062 52.8908 49.12 52.8854 49.1328C52.8799 49.1457 52.872 49.1573 52.8619 49.167C52.8521 49.1767 52.8404 49.1842 52.8275 49.1892C52.8146 49.1941 52.8009 49.1964 52.7871 49.1958H52.0104C51.9966 49.1966 51.9828 49.1944 51.9699 49.1894C51.957 49.1845 51.9453 49.1768 51.9356 49.167C51.9255 49.1573 51.9175 49.1457 51.9121 49.1328C51.9067 49.12 51.9039 49.1062 51.9039 49.0922V48.0907C51.9045 48.0769 51.9023 48.0632 51.8973 48.0503C51.8924 48.0374 51.8848 48.0257 51.8752 48.0159C51.8661 48.0057 51.855 47.9977 51.8426 47.9922C51.8302 47.9868 51.8168 47.984 51.8032 47.9842H50.6956C50.6676 47.9849 50.641 47.9964 50.6212 48.0162C50.6014 48.036 50.5899 48.0627 50.5892 48.0907V49.0922C50.5911 49.1062 50.5897 49.1205 50.5852 49.134C50.5807 49.1474 50.5731 49.1596 50.5631 49.1697C50.553 49.1797 50.5408 49.1873 50.5274 49.1918C50.514 49.1963 50.4997 49.1977 50.4856 49.1958H49.7146C49.7004 49.1982 49.6857 49.1972 49.6719 49.1929C49.6581 49.1886 49.6455 49.1811 49.6352 49.171C49.6248 49.1609 49.6169 49.1485 49.6123 49.1348C49.6076 49.1211 49.6062 49.1065 49.6082 49.0922V45.9265C49.6083 45.8397 49.6249 45.7538 49.6571 45.6732C49.6894 45.5952 49.7374 45.5247 49.7981 45.466C49.8588 45.4078 49.9288 45.3601 50.0052 45.325C50.0861 45.2905 50.1733 45.2729 50.2612 45.2732H52.2376ZM51.9039 47.1352V46.151H50.5892V47.1352H51.9039Z" fill="#242425"/>
<path d="M57.0194 47.0831C57.0295 47.0928 57.0374 47.1044 57.0429 47.1172C57.0483 47.1301 57.0511 47.1439 57.0511 47.1579V48.5335C57.0519 48.6219 57.0332 48.7093 56.9964 48.7897C56.9634 48.8666 56.9166 48.9368 56.8583 48.9969C56.7997 49.0576 56.7292 49.1056 56.6512 49.1379C56.5701 49.1717 56.483 49.1884 56.3951 49.1868H54.4187C54.3327 49.188 54.2472 49.1719 54.1675 49.1394C54.0877 49.107 54.0153 49.0589 53.9544 48.9981C53.8935 48.9372 53.8455 48.8647 53.813 48.7849C53.7806 48.7051 53.7645 48.6196 53.7657 48.5335V45.9434C53.7644 45.8565 53.781 45.7703 53.8146 45.6902C53.8469 45.6121 53.8949 45.5416 53.9556 45.4829C54.0163 45.4247 54.0863 45.377 54.1627 45.3419C54.2436 45.3074 54.3308 45.2898 54.4187 45.2901H56.7202C56.7343 45.2895 56.7482 45.2921 56.7612 45.2975C56.7741 45.303 56.7857 45.3113 56.795 45.3218C56.8052 45.3314 56.8133 45.343 56.8187 45.3559C56.8242 45.3687 56.8269 45.3826 56.8267 45.3966V46.1334C56.8259 46.1614 56.8145 46.188 56.7947 46.2078C56.7749 46.2277 56.7482 46.2391 56.7202 46.2398H54.8474C54.8336 46.2393 54.8199 46.2415 54.807 46.2465C54.7941 46.2514 54.7824 46.2589 54.7726 46.2686C54.7625 46.2777 54.7544 46.2887 54.749 46.3012C54.7435 46.3136 54.7408 46.327 54.741 46.3406V48.1508C54.7407 48.1647 54.7434 48.1786 54.7489 48.1915C54.7543 48.2044 54.7624 48.216 54.7726 48.2256C54.7936 48.243 54.8201 48.2522 54.8474 48.2515H55.955C55.9814 48.2526 56.0073 48.2433 56.0269 48.2256C56.0367 48.2159 56.0443 48.2042 56.0493 48.1913C56.0543 48.1784 56.0564 48.1646 56.0557 48.1508V47.1723C56.0551 47.1582 56.0576 47.1442 56.0631 47.1313C56.0686 47.1184 56.0768 47.1068 56.0873 47.0974C56.0969 47.0873 56.1085 47.0792 56.1214 47.0737C56.1343 47.0683 56.1481 47.0656 56.1621 47.0658H56.9389C56.9528 47.063 56.9671 47.0631 56.9809 47.0661C56.9948 47.069 57.0079 47.0748 57.0194 47.0831Z" fill="#242425"/>
<path d="M61.1414 45.3062C61.1515 45.3158 61.1596 45.3274 61.1651 45.3403C61.1705 45.3532 61.1732 45.367 61.173 45.381V48.5323C61.1733 48.6204 61.1557 48.7075 61.1212 48.7885C61.0861 48.8649 61.0385 48.935 60.9803 48.9957C60.9216 49.0564 60.8511 49.1044 60.7731 49.1367C60.693 49.1703 60.6068 49.187 60.52 49.1856H58.5407C58.4538 49.187 58.3676 49.1703 58.2875 49.1367C58.2091 49.1037 58.1378 49.0558 58.0775 48.9957C58.0174 48.9365 57.9695 48.8661 57.9366 48.7885C57.9043 48.7069 57.8878 48.62 57.8876 48.5323V45.381C57.8851 45.3665 57.8861 45.3515 57.8906 45.3375C57.895 45.3234 57.9028 45.3106 57.9133 45.3002C57.9237 45.2897 57.9365 45.282 57.9505 45.2775C57.9646 45.273 57.9795 45.272 57.9941 45.2745H58.7651C58.7795 45.2727 58.7942 45.2741 58.808 45.2788C58.8217 45.2835 58.8342 45.2913 58.8445 45.3016C58.8548 45.3119 58.8626 45.3244 58.8673 45.3381C58.872 45.3519 58.8734 45.3666 58.8715 45.381V48.1352C58.8708 48.149 58.8729 48.1628 58.8779 48.1757C58.8829 48.1886 58.8905 48.2003 58.9003 48.21C58.9224 48.2274 58.9499 48.2366 58.978 48.2359H60.0827C60.0964 48.2378 60.1103 48.2365 60.1234 48.2322C60.1365 48.2278 60.1484 48.2204 60.1581 48.2106C60.1679 48.2009 60.1752 48.189 60.1796 48.1759C60.184 48.1628 60.1853 48.1489 60.1834 48.1352V45.381C60.1832 45.367 60.1859 45.3532 60.1913 45.3403C60.1968 45.3274 60.2048 45.3158 60.215 45.3062C60.2244 45.2957 60.2359 45.2874 60.2489 45.282C60.2618 45.2765 60.2758 45.274 60.2898 45.2745H61.0666C61.0806 45.274 61.0946 45.2765 61.1075 45.282C61.1205 45.2874 61.132 45.2957 61.1414 45.3062Z" fill="#242425"/>
<path d="M65.0196 45.3051C65.0298 45.3147 65.0379 45.3263 65.0433 45.3392C65.0488 45.352 65.0515 45.3659 65.0513 45.3799V46.0821C65.0515 46.0961 65.0488 46.11 65.0433 46.1229C65.0379 46.1357 65.0298 46.1474 65.0196 46.1569C64.999 46.1749 64.9722 46.1841 64.9448 46.1828H63.0749C63.071 46.1824 63.0671 46.1828 63.0634 46.1841C63.0596 46.1854 63.0563 46.1875 63.0535 46.1903C63.0507 46.193 63.0486 46.1964 63.0474 46.2001C63.0461 46.2038 63.0457 46.2077 63.0461 46.2116V46.8217C63.0461 46.8361 63.0461 46.8448 63.0749 46.8448H64.6715C64.6849 46.844 64.6983 46.8462 64.7107 46.8512C64.7231 46.8562 64.7343 46.8638 64.7435 46.8735C64.7533 46.8838 64.761 46.896 64.7659 46.9094C64.7709 46.9228 64.773 46.937 64.7722 46.9512V47.5096C64.7728 47.5233 64.7706 47.5371 64.7656 47.55C64.7607 47.5628 64.7531 47.5745 64.7435 47.5844C64.7344 47.5945 64.7233 47.6025 64.7109 47.608C64.6985 47.6135 64.6851 47.6162 64.6715 47.616H63.0749C63.0547 47.616 63.0461 47.616 63.0461 47.6419V47.9297V48.2549C63.0461 48.2751 63.0461 48.2837 63.0749 48.2837H64.9448C64.9586 48.283 64.9724 48.2851 64.9853 48.2901C64.9982 48.2951 65.0099 48.3027 65.0196 48.3125C65.0398 48.3333 65.0512 48.3612 65.0513 48.3902V49.0895C65.0513 49.1035 65.0485 49.1173 65.0431 49.1302C65.0377 49.143 65.0297 49.1547 65.0196 49.1644C65.0099 49.1742 64.9982 49.1818 64.9853 49.1868C64.9724 49.1917 64.9586 49.1939 64.9448 49.1931H62.1687C62.1544 49.1955 62.1398 49.1945 62.126 49.1902C62.1122 49.1859 62.0996 49.1784 62.0892 49.1683C62.0788 49.1582 62.071 49.1458 62.0663 49.1322C62.0616 49.1185 62.0602 49.1039 62.0622 49.0895V45.3799C62.062 45.3659 62.0647 45.352 62.0702 45.3392C62.0756 45.3263 62.0837 45.3147 62.0939 45.3051C62.1032 45.2946 62.1148 45.2863 62.1277 45.2808C62.1407 45.2754 62.1546 45.2728 62.1687 45.2734H64.9448C64.9589 45.2724 64.973 45.2747 64.9861 45.2802C64.9991 45.2857 65.0106 45.2943 65.0196 45.3051Z" fill="#242425"/>
<path d="M71.0126 45.2743C71.027 45.2737 71.0414 45.2762 71.0548 45.2816C71.0682 45.2871 71.0803 45.2954 71.0902 45.3059C71.1 45.3157 71.1077 45.3274 71.1126 45.3403C71.1176 45.3532 71.1198 45.367 71.119 45.3808V49.0818C71.1196 49.0955 71.1173 49.1093 71.1124 49.1222C71.1074 49.135 71.0999 49.1467 71.0902 49.1566C71.0691 49.176 71.0412 49.1863 71.0126 49.1854H70.2358C70.222 49.1859 70.2083 49.1837 70.1954 49.1787C70.1825 49.1738 70.1708 49.1662 70.161 49.1566C70.151 49.1469 70.143 49.1353 70.1375 49.1224C70.1321 49.1095 70.1293 49.0957 70.1294 49.0818V47.7896C70.1305 47.7631 70.1212 47.7373 70.1035 47.7176C70.0937 47.7078 70.082 47.7002 70.0691 47.6952C70.0563 47.6903 70.0425 47.6881 70.0287 47.6889H68.924C68.9102 47.6883 68.8964 47.6905 68.8836 47.6955C68.8707 47.7004 68.859 47.708 68.8492 47.7176C68.8391 47.7267 68.831 47.7378 68.8255 47.7502C68.8201 47.7626 68.8173 47.776 68.8175 47.7896V49.0818C68.8195 49.0961 68.8181 49.1107 68.8134 49.1244C68.8088 49.1381 68.8009 49.1505 68.7905 49.1606C68.7802 49.1706 68.7676 49.1781 68.7538 49.1825C68.74 49.1868 68.7253 49.1878 68.7111 49.1854H67.9401C67.9259 49.1872 67.9115 49.1858 67.898 49.1812C67.8845 49.1767 67.8721 49.1692 67.8619 49.1592C67.8517 49.1493 67.8438 49.1371 67.8389 49.1237C67.834 49.1103 67.8322 49.096 67.8336 49.0818V45.3808C67.8317 45.3663 67.8332 45.3517 67.8379 45.3379C67.8426 45.3241 67.8503 45.3116 67.8606 45.3013C67.8709 45.291 67.8834 45.2832 67.8972 45.2785C67.911 45.2739 67.9256 45.2724 67.9401 45.2743H68.7111C68.7256 45.2718 68.7405 45.2728 68.7546 45.2772C68.7687 45.2817 68.7815 45.2895 68.7919 45.2999C68.8023 45.3103 68.8101 45.3231 68.8146 45.3372C68.819 45.3513 68.82 45.3662 68.8175 45.3808V46.6212C68.8156 46.6356 68.8171 46.6503 68.8218 46.664C68.8264 46.6778 68.8342 46.6903 68.8445 46.7006C68.8548 46.7109 68.8673 46.7187 68.8811 46.7234C68.8949 46.7281 68.9095 46.7295 68.924 46.7276H70.0287C70.0426 46.7278 70.0565 46.7251 70.0694 46.7197C70.0823 46.7142 70.0939 46.7062 70.1035 46.696C70.1209 46.675 70.1301 46.6484 70.1294 46.6212V45.3693C70.1292 45.3553 70.1319 45.3414 70.1373 45.3285C70.1428 45.3156 70.1508 45.304 70.161 45.2944C70.1704 45.284 70.1819 45.2757 70.1948 45.2702C70.2078 45.2647 70.2218 45.2622 70.2358 45.2628L71.0126 45.2743Z" fill="#242425"/>
<path d="M74.6369 45.2732C74.724 45.2729 74.8102 45.2905 74.8901 45.325C75.0461 45.3927 75.1705 45.5172 75.2382 45.6732C75.2727 45.7532 75.2903 45.8394 75.29 45.9265V49.0922C75.2906 49.106 75.2883 49.1197 75.2834 49.1326C75.2784 49.1454 75.2709 49.1572 75.2612 49.167C75.2401 49.1864 75.2122 49.1968 75.1835 49.1958H74.4068C74.393 49.1964 74.3793 49.1941 74.3664 49.1892C74.3535 49.1842 74.3418 49.1767 74.332 49.167C74.3219 49.1573 74.314 49.1457 74.3085 49.1328C74.3031 49.12 74.3003 49.1061 74.3003 49.0922V48.0907C74.3011 48.0634 74.2919 48.0368 74.2745 48.0158C74.2649 48.0057 74.2533 47.9976 74.2404 47.9921C74.2275 47.9867 74.2136 47.984 74.1997 47.9842H73.0949C73.081 47.984 73.0671 47.9867 73.0542 47.9921C73.0413 47.9976 73.0297 48.0057 73.0201 48.0158C73.0101 48.0255 73.0021 48.0372 72.9967 48.05C72.9912 48.0629 72.9885 48.0767 72.9885 48.0907V49.0922C72.9905 49.1065 72.9891 49.1211 72.9844 49.1348C72.9797 49.1485 72.9719 49.1609 72.9615 49.171C72.9512 49.1811 72.9386 49.1886 72.9248 49.1929C72.9109 49.1972 72.8963 49.1982 72.8821 49.1958H72.1111C72.0968 49.1982 72.0822 49.1972 72.0684 49.1929C72.0546 49.1886 72.042 49.1811 72.0316 49.171C72.0212 49.1609 72.0134 49.1485 72.0087 49.1348C72.004 49.1211 72.0026 49.1065 72.0046 49.0922V45.9265C72.0043 45.8394 72.0219 45.7532 72.0564 45.6732C72.0868 45.5949 72.1339 45.5242 72.1945 45.466C72.2562 45.4077 72.3272 45.3601 72.4045 45.325C72.4844 45.2905 72.5706 45.2729 72.6577 45.2732H74.6369ZM74.3003 47.1352V46.151H72.9885V47.1352H74.3003Z" fill="#242425"/>
<path d="M77.1705 46.2542C77.1604 46.2633 77.1523 46.2744 77.1469 46.2868C77.1414 46.2992 77.1387 46.3126 77.1389 46.3262V48.1364C77.1386 48.1504 77.1413 48.1642 77.1468 48.1771C77.1522 48.19 77.1603 48.2016 77.1705 48.2112C77.1915 48.2286 77.218 48.2378 77.2453 48.2371H79.0404C79.0544 48.2371 79.0682 48.2398 79.0811 48.2453C79.0939 48.2507 79.1056 48.2587 79.1152 48.2688C79.1249 48.2786 79.1325 48.2903 79.1374 48.3032C79.1423 48.3161 79.1446 48.3298 79.144 48.3436V49.0832C79.1449 49.097 79.1428 49.1109 79.1378 49.1238C79.1329 49.1368 79.1253 49.1485 79.1155 49.1583C79.1058 49.1681 79.094 49.1757 79.0811 49.1806C79.0681 49.1855 79.0543 49.1877 79.0404 49.1868H76.8138C76.726 49.1884 76.6388 49.1717 76.5577 49.1379C76.4793 49.1049 76.408 49.057 76.3477 48.9969C76.2885 48.9375 76.2416 48.8671 76.2096 48.7897C76.1751 48.7087 76.1575 48.6215 76.1578 48.5335V45.9434C76.1575 45.8563 76.1751 45.7701 76.2096 45.6902C76.2408 45.6123 76.2879 45.5417 76.3477 45.4829C76.4094 45.4246 76.4804 45.377 76.5577 45.3419C76.6386 45.3071 76.7258 45.2895 76.8138 45.2901H79.0433C79.0574 45.2895 79.0713 45.2921 79.0843 45.2975C79.0972 45.303 79.1088 45.3113 79.1181 45.3218C79.1279 45.3315 79.1356 45.3432 79.1405 45.3561C79.1455 45.369 79.1476 45.3828 79.1469 45.3966V46.1334C79.1475 46.1471 79.1452 46.1609 79.1403 46.1738C79.1353 46.1866 79.1278 46.1983 79.1181 46.2082C79.1084 46.2182 79.0968 46.2262 79.084 46.2316C79.0711 46.2371 79.0573 46.2399 79.0433 46.2398H77.2453C77.2194 46.2346 77.1926 46.2398 77.1705 46.2542Z" fill="#242425"/>
<path d="M82.2569 46.9236C82.2529 46.929 82.2507 46.9356 82.2507 46.9423C82.2507 46.949 82.2529 46.9556 82.2569 46.961L83.5658 49.0964C83.5719 49.1064 83.5752 49.1178 83.5752 49.1295C83.5752 49.1412 83.5719 49.1526 83.5658 49.1626C83.5658 49.1799 83.5342 49.1856 83.5025 49.1856H82.5676C82.5363 49.1862 82.5055 49.1782 82.4784 49.1626C82.4509 49.1467 82.4281 49.1239 82.4122 49.0964L81.5664 47.5711C81.5664 47.5539 81.5463 47.551 81.5405 47.5711L81.0745 48.0805C81.0534 48.1037 81.0377 48.1312 81.0284 48.1611C81.0154 48.1921 81.0086 48.2253 81.0083 48.2589V49.0878C81.0103 49.1021 81.0089 49.1167 81.0042 49.1304C80.9996 49.1441 80.9917 49.1565 80.9813 49.1666C80.971 49.1767 80.9584 49.1842 80.9446 49.1885C80.9308 49.1928 80.9161 49.1938 80.9019 49.1914H80.1309C80.1167 49.1932 80.1023 49.1918 80.0888 49.1872C80.0753 49.1827 80.0629 49.1752 80.0527 49.1652C80.0425 49.1553 80.0346 49.1431 80.0297 49.1297C80.0248 49.1163 80.023 49.102 80.0244 49.0878V45.381C80.0225 45.3666 80.024 45.3519 80.0287 45.3381C80.0334 45.3244 80.0411 45.3119 80.0514 45.3016C80.0617 45.2913 80.0742 45.2835 80.088 45.2788C80.1018 45.2741 80.1164 45.2727 80.1309 45.2745H80.9019C80.9164 45.272 80.9313 45.273 80.9454 45.2775C80.9595 45.282 80.9723 45.2897 80.9827 45.3002C80.9931 45.3106 81.0009 45.3234 81.0054 45.3375C81.0098 45.3515 81.0108 45.3665 81.0083 45.381V47.0416L82.4467 45.3523C82.4684 45.3286 82.4949 45.31 82.5244 45.2976C82.5538 45.2824 82.5863 45.2745 82.6193 45.2745H83.5486C83.5773 45.2745 83.5946 45.2745 83.6004 45.2976C83.6061 45.3206 83.6003 45.3292 83.5802 45.3523L82.2569 46.9236Z" fill="#242425"/>
<path d="M85.2669 49.082C85.2689 49.0963 85.2675 49.1109 85.2628 49.1246C85.2582 49.1383 85.2503 49.1507 85.2399 49.1608C85.2296 49.1709 85.217 49.1784 85.2032 49.1827C85.1894 49.187 85.1747 49.188 85.1605 49.1856H84.3895C84.3753 49.1874 84.3609 49.186 84.3474 49.1815C84.3339 49.177 84.3215 49.1694 84.3113 49.1595C84.3011 49.1495 84.2932 49.1374 84.2883 49.124C84.2834 49.1106 84.2816 49.0962 84.283 49.082V45.381C84.2811 45.3666 84.2826 45.3519 84.2873 45.3381C84.292 45.3244 84.2997 45.3119 84.31 45.3016C84.3203 45.2913 84.3328 45.2835 84.3466 45.2788C84.3604 45.2741 84.375 45.2727 84.3895 45.2745H85.1547C85.1693 45.272 85.1842 45.273 85.1983 45.2775C85.2123 45.282 85.2251 45.2897 85.2355 45.3002C85.246 45.3106 85.2538 45.3234 85.2582 45.3375C85.2627 45.3515 85.2637 45.3665 85.2612 45.381L85.2669 49.082Z" fill="#242425"/>
<path d="M89.0288 45.3264C89.1848 45.3941 89.3092 45.5185 89.3769 45.6746C89.4114 45.7545 89.429 45.8407 89.4287 45.9278V49.0935C89.4293 49.1076 89.4267 49.1216 89.4213 49.1345C89.4158 49.1474 89.4075 49.159 89.397 49.1684C89.3873 49.1782 89.3756 49.1858 89.3627 49.1908C89.3498 49.1957 89.336 49.1979 89.3222 49.1971H88.5455C88.5321 49.1979 88.5188 49.1957 88.5064 49.1907C88.4939 49.1857 88.4828 49.1781 88.4736 49.1684C88.4553 49.1477 88.4451 49.1211 88.4448 49.0935V46.3336C88.4455 46.3203 88.4433 46.3069 88.4384 46.2945C88.4334 46.282 88.4258 46.2709 88.416 46.2617C88.3949 46.2423 88.367 46.2319 88.3384 46.2329H87.2337C87.2199 46.2323 87.2061 46.2346 87.1933 46.2395C87.1804 46.2445 87.1687 46.252 87.1589 46.2617C87.1483 46.2703 87.1399 46.2813 87.1344 46.2938C87.1289 46.3063 87.1264 46.32 87.1272 46.3336V49.0907C87.1292 49.105 87.1278 49.1196 87.1231 49.1333C87.1185 49.147 87.1106 49.1594 87.1002 49.1694C87.0899 49.1795 87.0773 49.187 87.0635 49.1914C87.0497 49.1957 87.035 49.1967 87.0208 49.1943H86.2498C86.2355 49.1967 86.2209 49.1957 86.2071 49.1914C86.1933 49.187 86.1807 49.1795 86.1703 49.1694C86.1599 49.1594 86.1521 49.147 86.1474 49.1333C86.1427 49.1196 86.1413 49.105 86.1433 49.0907V45.381C86.1408 45.3665 86.1418 45.3515 86.1463 45.3375C86.1507 45.3234 86.1585 45.3106 86.1689 45.3002C86.1794 45.2897 86.1922 45.282 86.2062 45.2775C86.2203 45.273 86.2352 45.272 86.2498 45.2745H88.7756C88.8627 45.2742 88.9489 45.2918 89.0288 45.3264Z" fill="#242425"/>
<path d="M93.5582 47.0832C93.5683 47.0929 93.5762 47.1045 93.5817 47.1174C93.5871 47.1303 93.5899 47.1441 93.5899 47.158V48.5337C93.5902 48.6217 93.5726 48.7088 93.5381 48.7898C93.503 48.8663 93.4553 48.9363 93.3971 48.997C93.3385 49.0577 93.268 49.1057 93.19 49.138C93.1099 49.1716 93.0237 49.1883 92.9368 49.187H90.9575C90.8707 49.1883 90.7845 49.1716 90.7044 49.138C90.6259 49.105 90.5546 49.0572 90.4944 48.997C90.4343 48.9378 90.3864 48.8674 90.3534 48.7898C90.3212 48.7083 90.3046 48.6214 90.3045 48.5337V45.9436C90.3046 45.8568 90.3212 45.7709 90.3534 45.6903C90.3857 45.6123 90.4337 45.5418 90.4944 45.4831C90.5561 45.4248 90.6271 45.3772 90.7044 45.3421C90.7843 45.3076 90.8705 45.2899 90.9575 45.2903H93.259C93.2735 45.2892 93.2881 45.2916 93.3016 45.2971C93.315 45.3025 93.327 45.3111 93.3367 45.3219C93.3465 45.3317 93.3541 45.3434 93.3591 45.3563C93.3641 45.3692 93.3662 45.383 93.3655 45.3968V46.1335C93.3661 46.1473 93.3638 46.161 93.3589 46.1739C93.3539 46.1868 93.3464 46.1985 93.3367 46.2083C93.3266 46.2186 93.3145 46.2267 93.3011 46.2321C93.2878 46.2376 93.2734 46.2402 93.259 46.24H91.3891C91.3753 46.2392 91.3615 46.2414 91.3486 46.2464C91.3357 46.2513 91.324 46.259 91.3143 46.2688C91.3037 46.2774 91.2953 46.2884 91.2898 46.3009C91.2843 46.3134 91.2818 46.3271 91.2826 46.3407V48.1509C91.2816 48.165 91.2839 48.1791 91.2894 48.1921C91.2949 48.2052 91.3035 48.2167 91.3143 48.2257C91.335 48.2437 91.3617 48.253 91.3891 48.2516H92.4938C92.5075 48.2536 92.5214 48.2523 92.5345 48.2479C92.5476 48.2435 92.5595 48.2361 92.5692 48.2264C92.579 48.2166 92.5863 48.2047 92.5907 48.1916C92.5951 48.1785 92.5964 48.1646 92.5945 48.1509V47.1724C92.5952 47.1444 92.6067 47.1178 92.6265 47.0979C92.6463 47.0781 92.6729 47.0667 92.7009 47.0659H93.4777C93.4916 47.063 93.5059 47.063 93.5198 47.066C93.5337 47.0689 93.5468 47.0748 93.5582 47.0832Z" fill="#242425"/>
<path d="M43.1079 18.3377C43.5943 18.5486 44.0373 18.8482 44.414 19.2212C44.7875 19.5965 45.0872 20.0388 45.2972 20.5249C45.5194 21.03 45.6331 21.5761 45.6309 22.1279V42.656C45.6335 42.7442 45.6177 42.832 45.5845 42.9137C45.5513 42.9955 45.5015 43.0694 45.4382 43.1309C45.3761 43.1944 45.3018 43.2445 45.2196 43.2782C45.1375 43.3118 45.0494 43.3283 44.9606 43.3266H40.0527C39.9664 43.3295 39.8804 43.3135 39.8009 43.2797C39.7214 43.2459 39.6502 43.1951 39.5924 43.1309C39.4739 43.0018 39.4108 42.8312 39.4169 42.656V23.9957H35.4612V42.656C35.4673 42.8312 35.4043 43.0018 35.2857 43.1309C35.2279 43.1951 35.1568 43.2459 35.0772 43.2797C34.9977 43.3135 34.9118 43.3295 34.8255 43.3266H30.3778C30.2891 43.3283 30.2009 43.3118 30.1188 43.2782C30.0367 43.2445 29.9623 43.1944 29.9003 43.1309C29.8366 43.0696 29.7863 42.9957 29.7527 42.914C29.719 42.8323 29.7026 42.7444 29.7046 42.656V23.9957H25.7518V42.656C25.7643 42.7473 25.7555 42.8402 25.726 42.9274C25.6965 43.0146 25.6472 43.0939 25.582 43.1588C25.5168 43.2238 25.4374 43.2728 25.35 43.3019C25.2627 43.331 25.1698 43.3394 25.0787 43.3266H20.2081C20.117 43.3394 20.0241 43.331 19.9368 43.3019C19.8494 43.2728 19.77 43.2238 19.7048 43.1588C19.6396 43.0939 19.5903 43.0146 19.5608 42.9274C19.5313 42.8402 19.5225 42.7473 19.535 42.656V18.6744C19.5225 18.5832 19.5313 18.4903 19.5608 18.4031C19.5903 18.3158 19.6396 18.2366 19.7048 18.1716C19.77 18.1067 19.8494 18.0577 19.9368 18.0286C20.0241 17.9995 20.117 17.991 20.2081 18.0039H41.4969C42.0513 18.0013 42.6001 18.115 43.1079 18.3377Z" fill="#E73427"/>
<path d="M43.1079 18.3377C43.5943 18.5486 44.0373 18.8482 44.414 19.2212C44.7875 19.5965 45.0871 20.0388 45.2972 20.5249C45.5194 21.03 45.6331 21.5761 45.6309 22.1279V23.9583L39.4169 23.9957H25.7518L19.535 23.9583V18.6744C19.5225 18.5832 19.5313 18.4903 19.5608 18.4031C19.5903 18.3158 19.6396 18.2366 19.7048 18.1716C19.77 18.1067 19.8494 18.0577 19.9368 18.0286C20.0241 17.9995 20.117 17.991 20.2081 18.0039H41.4969C42.0513 18.0013 42.6001 18.115 43.1079 18.3377Z" fill="#E73427"/>
<path d="M67.0318 37.1792C67.1223 37.1762 67.2124 37.1923 67.2962 37.2265C67.38 37.2607 67.4556 37.3123 67.518 37.3778C67.6419 37.5102 67.709 37.6858 67.705 37.8671V42.6415C67.709 42.8228 67.6419 42.9984 67.518 43.1307C67.4556 43.1963 67.38 43.2479 67.2962 43.2821C67.2124 43.3163 67.1223 43.3324 67.0318 43.3293H50.2224C50.1277 43.3443 50.0307 43.3371 49.9393 43.3082C49.8478 43.2793 49.7644 43.2296 49.6954 43.1629C49.6265 43.0962 49.574 43.0143 49.5422 42.9238C49.5103 42.8334 49.4999 42.7367 49.5118 42.6415V18.7059C49.4999 18.6108 49.5103 18.5141 49.5422 18.4236C49.574 18.3331 49.6265 18.2513 49.6954 18.1846C49.7644 18.1179 49.8478 18.0681 49.9393 18.0392C50.0307 18.0103 50.1277 18.0031 50.2224 18.0181H55.4007C55.4946 18.0051 55.5902 18.0138 55.6801 18.0436C55.7701 18.0733 55.852 18.1234 55.9195 18.1899C55.9871 18.2563 56.0385 18.3374 56.0697 18.4269C56.101 18.5164 56.1113 18.6119 56.0998 18.7059V36.549C56.0962 36.6379 56.1127 36.7266 56.1481 36.8083C56.1834 36.89 56.2368 36.9627 56.304 37.0209C56.4441 37.1428 56.6248 37.2075 56.8104 37.2023L67.0318 37.1792Z" fill="#1D539F"/>
<path d="M56.0422 43.3289H50.2194C50.1249 43.3434 50.0284 43.3358 49.9373 43.3067C49.8462 43.2776 49.7631 43.2277 49.6945 43.1611C49.626 43.0944 49.5738 43.0128 49.542 42.9225C49.5103 42.8323 49.5 42.736 49.5117 42.641V18.7055C49.5 18.6106 49.5103 18.5142 49.542 18.424C49.5738 18.3338 49.626 18.2521 49.6945 18.1855C49.7631 18.1188 49.8462 18.069 49.9373 18.0399C50.0284 18.0107 50.1249 18.0031 50.2194 18.0177H55.3719C55.4664 18.0031 55.563 18.0107 55.654 18.0399C55.7451 18.069 55.8282 18.1188 55.8968 18.1855C55.9654 18.2521 56.0176 18.3338 56.0493 18.424C56.081 18.5142 56.0914 18.6106 56.0796 18.7055V36.5485C56.0796 36.7212 56.0422 43.3289 56.0422 43.3289Z" fill="#1D539F"/>
<path d="M92.8743 18.0024C92.9676 18.0003 93.0604 18.0168 93.1473 18.0508C93.2343 18.0849 93.3135 18.136 93.3806 18.201C93.4475 18.264 93.5005 18.3403 93.5362 18.4251C93.5719 18.5098 93.5894 18.6011 93.5877 18.6931V42.7092C93.5897 42.8008 93.5723 42.8917 93.5366 42.9761C93.5009 43.0604 93.4477 43.1362 93.3806 43.1985C93.3141 43.2644 93.2349 43.3162 93.1479 43.3508C93.061 43.3854 92.9679 43.4021 92.8743 43.3999H87.6441C87.5501 43.4023 87.4565 43.3857 87.369 43.3511C87.2815 43.3165 87.2019 43.2646 87.1349 43.1985C87.0682 43.1361 87.0154 43.0602 86.9802 42.9758C86.945 42.8915 86.9281 42.8006 86.9307 42.7092V34.3287C86.9339 34.2411 86.9187 34.1539 86.886 34.0725C86.8533 33.9912 86.8038 33.9177 86.7408 33.8568C86.6754 33.7957 86.5984 33.7482 86.5145 33.717C86.4305 33.6859 86.3412 33.6718 86.2517 33.6755H78.9186C78.7322 33.67 78.5505 33.7347 78.4094 33.8568C78.3419 33.915 78.2883 33.9876 78.2525 34.0693C78.2166 34.151 78.1995 34.2396 78.2023 34.3287V42.7092C78.2142 42.8048 78.2037 42.9018 78.1717 42.9926C78.1396 43.0835 78.087 43.1656 78.0178 43.2326C77.9486 43.2995 77.8648 43.3495 77.773 43.3786C77.6812 43.4076 77.5839 43.4149 77.4888 43.3999H72.2961C72.2009 43.4155 72.1034 43.4087 72.0113 43.3798C71.9192 43.351 71.8352 43.3011 71.7658 43.234C71.6965 43.1668 71.6438 43.0844 71.612 42.9933C71.5802 42.9022 71.5702 42.8049 71.5827 42.7092V18.7046C71.5702 18.6089 71.5802 18.5116 71.612 18.4205C71.6438 18.3294 71.6965 18.247 71.7658 18.1798C71.8352 18.1127 71.9192 18.0628 72.0113 18.0339C72.1034 18.0051 72.2009 17.9983 72.2961 18.0139H77.4888C77.5839 17.9989 77.6812 18.0062 77.773 18.0352C77.8648 18.0643 77.9486 18.1142 78.0178 18.1812C78.087 18.2482 78.1396 18.3303 78.1717 18.4212C78.2037 18.512 78.2142 18.609 78.2023 18.7046V26.8174C78.2023 27.2779 78.4411 27.5081 78.9186 27.5081H86.2517C86.3427 27.5114 86.4332 27.4954 86.5175 27.4612C86.6018 27.427 86.6779 27.3753 86.7408 27.3095C86.8034 27.2441 86.8524 27.167 86.885 27.0825C86.9176 26.998 86.9331 26.9079 86.9307 26.8174V18.7046C86.9284 18.6128 86.9454 18.5216 86.9806 18.4368C87.0158 18.3521 87.0684 18.2756 87.1349 18.2125C87.2024 18.1472 87.2822 18.0961 87.3696 18.062C87.457 18.0279 87.5503 18.0116 87.6441 18.0139L92.8743 18.0024Z" fill="#F8B92A"/>
<path d="M78.2023 34.3294V42.7098C78.2142 42.8054 78.2037 42.9024 78.1717 42.9933C78.1396 43.0841 78.087 43.1662 78.0178 43.2332C77.9486 43.3002 77.8648 43.3501 77.773 43.3792C77.6812 43.4082 77.5839 43.4155 77.4888 43.4005H72.2961C72.2009 43.4162 72.1034 43.4093 72.0113 43.3805C71.9192 43.3517 71.8352 43.3017 71.7658 43.2346C71.6965 43.1675 71.6438 43.0851 71.612 42.9939C71.5802 42.9028 71.5702 42.8055 71.5827 42.7098V18.7052C71.5702 18.6095 71.5802 18.5122 71.612 18.4211C71.6438 18.33 71.6965 18.2476 71.7658 18.1805C71.8352 18.1133 71.9192 18.0634 72.0113 18.0346C72.1034 18.0058 72.2009 17.9989 72.2961 18.0145H77.4888C77.5839 17.9995 77.6812 18.0068 77.773 18.0359C77.8648 18.0649 77.9486 18.1149 78.0178 18.1818C78.087 18.2488 78.1396 18.331 78.1717 18.4218C78.2037 18.5126 78.2142 18.6096 78.2023 18.7052V34.3409V34.3294Z" fill="#F8B92A"/>
<path d="M92.8757 18.0024C92.9691 18.0003 93.0619 18.0168 93.1488 18.0508C93.2357 18.0849 93.315 18.136 93.382 18.201C93.449 18.264 93.502 18.3403 93.5377 18.4251C93.5733 18.5098 93.5909 18.6011 93.5892 18.6931V42.7092C93.5912 42.8008 93.5738 42.8917 93.5381 42.9761C93.5024 43.0604 93.4492 43.1362 93.382 43.1984C93.3155 43.2644 93.2364 43.3162 93.1494 43.3508C93.0624 43.3854 92.9693 43.4021 92.8757 43.3999H87.6456C87.5515 43.4023 87.458 43.3857 87.3705 43.3511C87.283 43.3165 87.2034 43.2646 87.1364 43.1984C87.0696 43.136 87.0169 43.0602 86.9817 42.9758C86.9464 42.8915 86.9296 42.8006 86.9321 42.7092V18.7046C86.9299 18.6128 86.9469 18.5216 86.9821 18.4368C87.0173 18.3521 87.0698 18.2756 87.1364 18.2125C87.2039 18.1472 87.2836 18.0961 87.3711 18.062C87.4585 18.0279 87.5518 18.0116 87.6456 18.0139L92.8757 18.0024Z" fill="#F8B92A"/>
<path d="M22.0534 140.394V143.321C22.0679 143.464 22.1382 143.596 22.2491 143.688C22.3599 143.78 22.5024 143.825 22.646 143.813H33.6615C33.7414 143.81 33.8209 143.825 33.8945 143.856C33.968 143.888 34.0338 143.935 34.0872 143.994C34.1968 144.116 34.2555 144.274 34.2512 144.438V148.406C34.2555 148.57 34.1968 148.728 34.0872 148.849C34.0338 148.909 33.968 148.956 33.8945 148.987C33.8209 149.019 33.7414 149.033 33.6615 149.031H17.5281C17.4434 149.043 17.3571 149.035 17.2759 149.008C17.1948 148.981 17.1211 148.935 17.0608 148.874C17.0005 148.814 16.9551 148.74 16.9283 148.659C16.9016 148.577 16.8942 148.491 16.9067 148.406V139.004C16.9009 138.497 16.9988 137.995 17.1943 137.528C17.3874 137.074 17.6658 136.662 18.0143 136.313C18.366 135.961 18.7846 135.682 19.2455 135.493C19.7182 135.299 20.2248 135.201 20.7358 135.205H28.5033C28.5854 135.207 28.6671 135.192 28.7433 135.161C28.8196 135.13 28.8889 135.085 28.9471 135.027C29.0054 134.969 29.0514 134.9 29.0824 134.824C29.1133 134.747 29.1287 134.666 29.1275 134.584V131.924C29.1292 131.843 29.114 131.761 29.0828 131.685C29.0516 131.61 29.0052 131.541 28.9463 131.484C28.8888 131.425 28.8198 131.379 28.7436 131.347C28.6674 131.316 28.5856 131.301 28.5033 131.303H18.2185C18.1403 131.305 18.0624 131.292 17.9896 131.263C17.9168 131.234 17.8507 131.191 17.7952 131.135C17.7397 131.08 17.6961 131.014 17.667 130.942C17.6379 130.869 17.6239 130.791 17.6259 130.713V126.684C17.6219 126.52 17.6806 126.362 17.7899 126.241C17.845 126.183 17.9116 126.137 17.9854 126.106C18.0592 126.075 18.1386 126.06 18.2185 126.062H30.4509C30.9594 126.059 31.4627 126.165 31.9267 126.373C32.3757 126.574 32.7865 126.852 33.1408 127.193C33.4927 127.539 33.7715 127.952 33.9607 128.408C34.1552 128.881 34.253 129.389 34.2483 129.901V130.819C34.2607 130.832 34.2701 130.848 34.2761 130.865C34.282 130.881 34.2843 130.899 34.2829 130.917V139.292C34.2856 139.372 34.2708 139.451 34.2395 139.525C34.2082 139.599 34.1611 139.664 34.1016 139.718C33.979 139.821 33.8218 139.875 33.6615 139.867H22.646C22.4985 139.863 22.3548 139.914 22.2445 140.012C22.1343 140.11 22.0658 140.247 22.0534 140.394Z" fill="#122F4C"/>
<path d="M51.4047 126.054C51.9187 126.051 52.4274 126.157 52.8978 126.364C53.35 126.56 53.7617 126.838 54.1119 127.185C54.4571 127.536 54.735 127.947 54.9318 128.399C55.1392 128.869 55.2451 129.378 55.2425 129.893V145.18C55.2445 145.694 55.1386 146.203 54.9318 146.674C54.7333 147.129 54.4557 147.545 54.1119 147.903C53.7678 148.256 53.3545 148.536 52.8978 148.723C52.4246 148.918 51.9167 149.016 51.4047 149.011H41.5342C41.0222 149.017 40.5143 148.919 40.0412 148.723C39.5817 148.533 39.1642 148.254 38.8127 147.903C38.4612 147.551 38.1826 147.133 37.9928 146.674C37.7976 146.2 37.6997 145.692 37.7052 145.18V129.896C37.6992 129.383 37.797 128.875 37.9928 128.402C38.1799 127.945 38.459 127.532 38.8127 127.187C39.1697 126.843 39.5858 126.565 40.0412 126.367C40.5115 126.16 41.0202 126.054 41.5342 126.056H51.4047V126.054ZM49.6786 131.631H43.2719V143.43H49.6671L49.6786 131.631Z" fill="#122F4C"/>
<path d="M63.7397 140.394V143.321C63.7536 143.462 63.8212 143.591 63.9284 143.683C64.0357 143.775 64.1742 143.821 64.3151 143.813H75.3334C75.4133 143.81 75.4929 143.825 75.5664 143.857C75.64 143.888 75.7058 143.935 75.7592 143.995C75.8687 144.116 75.9275 144.274 75.9232 144.438V148.406C75.9275 148.57 75.8687 148.728 75.7592 148.85C75.7058 148.909 75.64 148.956 75.5664 148.988C75.4929 149.019 75.4133 149.034 75.3334 149.031H59.2115C59.1269 149.043 59.0405 149.035 58.9594 149.008C58.8783 148.981 58.8046 148.935 58.7443 148.875C58.6839 148.814 58.6386 148.74 58.6118 148.659C58.585 148.577 58.5776 148.491 58.5901 148.406V139.004C58.5844 138.498 58.6823 137.995 58.8778 137.528C59.0719 137.075 59.3502 136.663 59.6977 136.313C60.0495 135.961 60.4681 135.682 60.929 135.493C61.4026 135.299 61.9102 135.201 62.4221 135.205H70.1896C70.2718 135.207 70.3534 135.192 70.4297 135.161C70.5059 135.131 70.5752 135.085 70.6335 135.027C70.6917 134.969 70.7377 134.9 70.7687 134.824C70.7997 134.748 70.8151 134.666 70.8139 134.584V131.925C70.8156 131.843 70.8004 131.761 70.7692 131.686C70.738 131.61 70.6915 131.541 70.6326 131.484C70.5751 131.425 70.5062 131.379 70.4299 131.348C70.3537 131.316 70.2719 131.301 70.1896 131.303H59.902C59.824 131.305 59.7464 131.291 59.674 131.262C59.6015 131.233 59.5357 131.19 59.4806 131.135C59.4254 131.079 59.382 131.014 59.3531 130.941C59.3242 130.869 59.3103 130.791 59.3122 130.713V126.684C59.3083 126.521 59.3669 126.362 59.4762 126.241C59.5301 126.182 59.5961 126.136 59.6696 126.105C59.7431 126.074 59.8223 126.06 59.902 126.062H72.1344C72.6429 126.059 73.1461 126.165 73.6102 126.373C74.0596 126.574 74.4705 126.851 74.8242 127.193C75.1761 127.539 75.455 127.952 75.6441 128.408C75.8386 128.882 75.9365 129.389 75.9318 129.901V130.82C75.9442 130.832 75.9536 130.848 75.9596 130.865C75.9655 130.882 75.9678 130.9 75.9663 130.917V139.292C75.9691 139.372 75.9543 139.452 75.923 139.525C75.8917 139.599 75.8446 139.665 75.7851 139.718C75.664 139.828 75.5053 139.886 75.3421 139.882H64.3295C64.1848 139.878 64.0437 139.928 63.9344 140.023C63.8251 140.118 63.7556 140.25 63.7397 140.394Z" fill="#122F4C"/>
<path d="M84.464 140.394V143.321C84.4786 143.464 84.5488 143.596 84.6597 143.688C84.7705 143.78 84.9131 143.825 85.0566 143.813H96.0893C96.1693 143.81 96.2488 143.825 96.3224 143.856C96.3959 143.888 96.4617 143.935 96.5151 143.994C96.6247 144.116 96.6834 144.274 96.6791 144.438V148.406C96.6834 148.57 96.6247 148.728 96.5151 148.849C96.4617 148.909 96.3959 148.956 96.3224 148.987C96.2488 149.019 96.1693 149.033 96.0893 149.031H79.9387C79.8539 149.043 79.7675 149.035 79.6863 149.008C79.6051 148.981 79.5313 148.935 79.4707 148.874C79.4102 148.814 79.3646 148.74 79.3374 148.659C79.3103 148.577 79.3024 148.491 79.3144 148.406V139.004C79.3087 138.497 79.4066 137.995 79.6021 137.528C79.7941 137.074 80.0726 136.661 80.422 136.313C80.7737 135.961 81.1924 135.682 81.6533 135.493C82.1259 135.299 82.6326 135.201 83.1435 135.205H90.911C90.9932 135.207 91.0748 135.192 91.1511 135.161C91.2273 135.13 91.2966 135.085 91.3549 135.027C91.4131 134.969 91.4591 134.9 91.4901 134.824C91.5211 134.747 91.5365 134.666 91.5353 134.584V131.924C91.537 131.843 91.5217 131.761 91.4906 131.685C91.4594 131.61 91.4129 131.541 91.354 131.484C91.2965 131.425 91.2275 131.379 91.1513 131.347C91.0751 131.316 90.9933 131.301 90.911 131.303H80.6291C80.5509 131.305 80.473 131.292 80.4002 131.263C80.3274 131.234 80.2613 131.191 80.2058 131.135C80.1503 131.08 80.1067 131.014 80.0776 130.942C80.0485 130.869 80.0345 130.791 80.0365 130.713V126.684C80.0325 126.52 80.0912 126.362 80.2005 126.241C80.2556 126.183 80.3222 126.137 80.396 126.106C80.4698 126.075 80.5492 126.06 80.6291 126.062H92.8615C93.37 126.059 93.8733 126.165 94.3373 126.373C94.7864 126.574 95.1971 126.852 95.5514 127.193C95.9033 127.539 96.1821 127.952 96.3713 128.408C96.5658 128.881 96.6636 129.389 96.659 129.901V130.819C96.6708 130.833 96.6797 130.848 96.6852 130.865C96.6906 130.882 96.6925 130.9 96.6906 130.917V139.292C96.6933 139.372 96.6788 139.451 96.648 139.524C96.6173 139.598 96.5709 139.664 96.5122 139.718C96.3941 139.817 96.2438 139.871 96.0893 139.867H85.071C84.9211 139.859 84.7738 139.909 84.6604 140.007C84.547 140.106 84.4765 140.244 84.464 140.394Z" fill="#122F4C"/>
</g>
<defs>
<clipPath id="clip0_4_33">
<rect width="113" height="198" fill="white"/>
</clipPath>
</defs>
</svg>
