<svg xmlns="http://www.w3.org/2000/svg" width="1920" height="181.874" viewBox="0 0 1920 181.874">
  <path id="Subtraction_6" data-name="Subtraction 6" d="M1133.045,181.874a353.915,353.915,0,0,1-41.349-2.494c-13.309-1.572-27.14-3.93-41.107-7.009-13.15-2.9-26.863-6.534-40.756-10.8-12.93-3.975-26.487-8.645-40.295-13.882-23.891-9.061-49.656-20.222-78.768-34.121-25.774-12.305-51.1-25.266-75.6-37.8l-.01-.005c-25.977-13.292-50.513-25.847-74.508-37.125A216.081,216.081,0,0,0,712.2,27.691a252.949,252.949,0,0,0-29.886-7.143c-19.2-3.405-40.06-5.061-63.772-5.061-41.808,0-86.31,5.15-133.425,10.6l-7.4.855c-24.327,2.808-50.247,5.73-76.163,7.876-29.079,2.409-54.993,3.58-79.221,3.581-15.337,0-30.388-.479-44.735-1.423-15.464-1.018-30.735-2.615-45.387-4.749C216.621,29.96,201.163,27,186.27,23.438c-15.711-3.76-31.324-8.32-46.407-13.555A176.935,176.935,0,0,0,82.164,0H1920V117.518c-8.1,4.293-15.293,6.38-21.979,6.38a31.494,31.494,0,0,1-11.844-2.311,47.579,47.579,0,0,1-11.016-6.413c-7.253-5.468-14.486-13.129-22.862-22-22.285-23.6-52.8-55.923-112.464-76.347-7.164-2.453-14.471-4.617-21.715-6.433-7.119-1.785-14.385-3.285-21.6-4.459A268.046,268.046,0,0,0,1653.581,2.5a298.679,298.679,0,0,0-35.263,2.147,354.461,354.461,0,0,0-35.3,6.11c-22.276,4.992-45.579,12.229-71.241,22.123-47.952,18.488-96.9,43.491-148.715,69.963l-.013.007c-33.411,17.069-67.961,34.718-103.926,51.461a297.769,297.769,0,0,1-31.461,12.53,290.791,290.791,0,0,1-31.536,8.56,296.773,296.773,0,0,1-31.556,4.906C1154.275,181.345,1143.668,181.873,1133.045,181.874ZM0,19.491V0H81.328A179.506,179.506,0,0,0,39.576,5.078,191.81,191.81,0,0,0,0,19.491Z" transform="translate(0 0.001)" fill="#fff"/>
</svg>
