<svg xmlns="http://www.w3.org/2000/svg" width="1920.001" height="237.433" viewBox="0 0 1920.001 237.433">
  <path id="Subtraction_7" data-name="Subtraction 7" d="M1920,1171H0v-81.458a310.328,310.328,0,0,0,63.217,6.16,387.426,387.426,0,0,0,63.843-5.4,376.506,376.506,0,0,0,61.063-15.456c8.565-2.974,17.066-5.593,25.268-7.786,7.973-2.131,15.892-3.92,23.537-5.316,7.417-1.355,14.791-2.379,21.919-3.045,6.9-.645,13.768-.971,20.412-.971a185.508,185.508,0,0,1,79.7,17.543,246.278,246.278,0,0,1,31.889,17.981c10.665,7.019,20.437,14.359,28.59,20.614,3.346,2.567,6.694,5.166,9.931,7.68l.037.029c16.391,12.727,31.87,24.746,48.281,33.693a127.163,127.163,0,0,0,25.42,10.723,101.5,101.5,0,0,0,13.523,2.968A97.879,97.879,0,0,0,530.88,1170a109.566,109.566,0,0,0,25.836-3.224,154.464,154.464,0,0,0,28.926-10.438c26.02-12.233,47.044-22.66,65.592-31.86l.008,0,.011-.005c22.295-11.058,39.9-19.792,56.938-27.075a325.326,325.326,0,0,1,51.9-17.583c36.174-8.91,81.759-13.834,168.194-18.172,13.093-.657,25.79-1.8,37.738-3.39,11.343-1.512,22.37-3.48,32.777-5.849,9.8-2.231,19.376-4.892,28.461-7.909,8.458-2.809,16.8-6.029,24.793-9.572a290.265,290.265,0,0,0,41.167-22.544c12.284-8.006,23.453-16.353,34.254-24.425,19.041-14.23,37.023-27.669,58.814-37.676a174.024,174.024,0,0,1,36.056-12.036,198.16,198.16,0,0,1,21.2-3.388c7.607-.8,15.647-1.235,23.9-1.28l1.059,0a180.457,180.457,0,0,1,22.078,1.33,162.591,162.591,0,0,1,20.029,3.757,158.818,158.818,0,0,1,18.238,5.838,169.148,169.148,0,0,1,16.7,7.573,219.39,219.39,0,0,1,29.841,18.961c9.76,7.26,18.953,15.026,26.8,21.736,1.552,1.326,3.077,2.634,4.768,4.084,8.029,6.886,16.331,14.007,24.666,20.5a214.871,214.871,0,0,0,25.914,17.624,131.711,131.711,0,0,0,28.951,12.341,119.524,119.524,0,0,0,16.174,3.437,126.592,126.592,0,0,0,17.6,1.212,153.138,153.138,0,0,0,27.215-2.564,214.8,214.8,0,0,0,31-8.231c29.858-10.225,64.954-21.77,98.873-29.874,16.555-3.956,31.693-6.849,46.279-8.846,7.672-1.05,15.263-1.853,22.563-2.384,7.544-.549,15.033-.827,22.259-.827a264.936,264.936,0,0,1,38.183,2.707,243.174,243.174,0,0,1,37.77,8.641,254.625,254.625,0,0,1,37.68,15.351A301.324,301.324,0,0,1,1920,1048.769V1171Z" transform="translate(0.001 -933.568)" fill="#fff"/>
</svg>
