<svg xmlns="http://www.w3.org/2000/svg" width="1920.001" height="223.539" viewBox="0 0 1920.001 223.539">
  <path id="Subtraction_8" data-name="Subtraction 8" d="M1920,1535h-2.5c.832,0,1.672-.038,2.5-.1v.1Zm-2.976,0H0v-139a486.464,486.464,0,0,0,55.228,36.58,467.377,467.377,0,0,0,61.2,29.2,404.648,404.648,0,0,0,64.9,19.343,330.18,330.18,0,0,0,66.341,7,280.6,280.6,0,0,0,40.087-2.833,254.793,254.793,0,0,0,39.276-8.875c9.931-3.1,19.728-5.819,29.121-8.081,9.122-2.2,18.153-4.032,26.843-5.455,8.407-1.377,16.78-2.415,24.887-3.085,7.793-.645,15.616-.972,23.251-.972a272.2,272.2,0,0,1,34.32,2.167,321.646,321.646,0,0,1,32.294,5.819c21.136,4.868,41.777,11.49,63.631,18.5l.012,0c6.183,1.984,12.577,4.035,19.084,6.077,15.849,4.976,28.461,8.664,40.893,11.959,15.865,4.2,30.96,7.617,46.147,10.432,36.943,6.849,74.79,10.178,115.7,10.178,5.585,0,11.311-.064,17.021-.19,12.838-.284,25.721-.977,38.292-2.06,11.915-1.028,23.919-2.439,35.677-4.194a590.317,590.317,0,0,0,64.505-13.376c18.018-4.769,36.673-10.551,57.029-17.676,17.988-6.3,35.044-12.834,51.538-19.156l.016-.006c26.518-10.163,51.565-19.762,76.46-26.81a324.99,324.99,0,0,1,37.423-8.422,239.961,239.961,0,0,1,38.263-3.134,224.4,224.4,0,0,1,25.2,1.425,234.059,234.059,0,0,1,26.227,4.528,264.29,264.29,0,0,1,27.515,8.008c9.491,3.317,19.271,7.309,29.068,11.864,8.736,4.062,17.347,7.638,25.591,10.627a242.656,242.656,0,0,0,23.609,7.274,191,191,0,0,0,21.822,4.176,158.426,158.426,0,0,0,20.228,1.336,140.95,140.95,0,0,0,20.819-1.531,137.93,137.93,0,0,0,19.37-4.36,162.726,162.726,0,0,0,35.465-15.8c22.547-13.214,43.336-31.127,65.346-50.092l.008-.007c18.606-16.031,37.845-32.609,59.7-47.722a332.116,332.116,0,0,1,34.9-21.236c6.343-3.326,12.827-6.43,19.272-9.225,6.784-2.941,13.749-5.638,20.7-8.016a176.6,176.6,0,0,1,24.742-6.62,119.385,119.385,0,0,1,21.637-2.108,86.786,86.786,0,0,1,21.486,2.588,74.966,74.966,0,0,1,18.219,7.305,82.162,82.162,0,0,1,15.413,11.338,108.882,108.882,0,0,1,13.069,14.683,159.985,159.985,0,0,1,11.188,17.342c3.265,5.788,6.461,12.106,9.769,19.315,6.143,13.385,11.728,27.832,17.129,41.8l.006.016c3.782,9.783,7.692,19.9,11.735,29.49,4.534,10.753,8.774,19.726,12.961,27.43a146.8,146.8,0,0,0,15.463,23.447,95.832,95.832,0,0,0,9.071,9.635,77.1,77.1,0,0,0,10.178,7.924,80.98,80.98,0,0,0,17.007,8.631,43.048,43.048,0,0,0,13.663,2.589Z" transform="translate(0.001 -1311.462)" fill="#fff"/>
</svg>
