<svg xmlns="http://www.w3.org/2000/svg" width="1901.502" height="208.535" viewBox="0 0 1901.502 208.535">
  <path id="Subtraction_3" data-name="Subtraction 3" d="M1902.5,1390H1v-205.78a64.313,64.313,0,0,1,18.255-2.755,59.013,59.013,0,0,1,12.157,1.276,66.514,66.514,0,0,1,11.667,3.651A100.483,100.483,0,0,1,65.5,1199.756c14.722,11.242,29.445,26.9,45.034,43.475,8.474,9.01,17.236,18.328,26.626,27.64,10.644,10.555,20.506,19.5,30.151,27.35a274.171,274.171,0,0,0,35.023,24.455c6.474,3.781,13.122,7.256,19.76,10.328a224.219,224.219,0,0,0,21.483,8.628c11.512,3.941,22.818,7.4,33.6,10.29,10.738,2.875,21.362,5.287,31.577,7.17,10.123,1.865,20.208,3.276,29.975,4.194,9.641.906,19.33,1.365,28.8,1.365a309.322,309.322,0,0,0,60.955-6.155,444.766,444.766,0,0,0,61.846-17.443c19.5-6.9,40.855-15.545,67.209-27.2,23.778-10.515,49.624-22.6,76.988-35.394l.054-.025q13.184-6.165,27.3-12.746a350.445,350.445,0,0,1,47.515-17.861,459.456,459.456,0,0,1,52.1-12.135c17.594-3.073,36.315-5.4,55.645-6.912,18.579-1.455,38.147-2.192,58.161-2.192a982.512,982.512,0,0,1,121.029,7.916c39.034,4.875,78.943,11.933,118.618,20.979,37.3,8.5,73.536,18.557,107.715,29.883,16.4,5.434,32.25,11.148,47.115,16.982,14.7,5.769,28.56,11.707,41.2,17.65a278.972,278.972,0,0,0,36.6,14.135,302.6,302.6,0,0,0,36.907,8.778,370.984,370.984,0,0,0,37.453,4.486c11.885.847,24.394,1.259,38.244,1.259,25.235,0,50.849-1.363,77.968-2.806l3.108-.165h.021c24.91-1.323,55.913-2.969,87.359-2.969,17.617,0,33.983.491,50.034,1.5,18.178,1.144,35.426,2.916,52.73,5.416,18.719,2.7,37.473,6.3,55.74,10.694,19.677,4.731,39.549,10.564,59.063,17.336a258.409,258.409,0,0,0,29.457,8.395,188.415,188.415,0,0,0,26.815,3.944h.027Z" transform="translate(-1 -1181.469)" fill="#fff"/>
</svg>
