<svg xmlns="http://www.w3.org/2000/svg" width="1920" height="161.846" viewBox="0 0 1920 161.846">
  <path id="Subtraction_4" data-name="Subtraction 4" d="M233.625,160.846h0a180.24,180.24,0,0,1-28.472-2.382,253.1,253.1,0,0,1-33.072-7.795c-27.093-8.225-47.831-20.144-63.4-36.44A126.191,126.191,0,0,1,92.15,92.46c-4.465-7.321-8.063-14.52-11.541-21.481-3.069-6.141-5.967-11.942-9.178-17.234A64.676,64.676,0,0,0,60.456,39.707C51.064,30.9,38.947,26.8,22.323,26.8A139.128,139.128,0,0,0,1,28.648V-1H1921V116.859a152.317,152.317,0,0,1-15.14,10.92,95.661,95.661,0,0,1-14.587,7.556,76.458,76.458,0,0,1-14.752,4.389,82.651,82.651,0,0,1-15.633,1.42c-27.309,0-61.162-11.593-117.249-30.8l-2.806-.961a260.919,260.919,0,0,0-31.818-8.551c-10.7-2.2-22.409-4.007-34.794-5.371-21.9-2.41-47.041-3.582-76.869-3.582-30.889,0-62.715,1.2-96.41,2.465h-.007l-2.2.083c-31.753,1.194-67.743,2.548-102.893,2.548-27.505,0-51.81-.816-74.3-2.5-12.57-.939-24.791-2.173-36.322-3.668-12.249-1.588-24.171-3.528-35.434-5.767-11.859-2.357-23.4-5.127-34.294-8.231-11.4-3.248-22.471-6.97-32.9-11.06A312.062,312.062,0,0,1,1151.327,51.5a279.444,279.444,0,0,1-29.367-17.811,179.067,179.067,0,0,0-27.02-15.5A185.9,185.9,0,0,0,1066.3,7.747a211.289,211.289,0,0,0-30.067-5.895A256.924,256.924,0,0,0,1004.927,0c-9.039,0-18.542.436-28.244,1.3-9.252.82-18.984,2.051-28.925,3.66a589.827,589.827,0,0,0-59.4,13.063C849.321,28.538,810.24,42.2,766.866,57.66l-6.711,2.394-.342.122-.01,0c-19.2,6.85-39.048,13.932-58.212,20.412-21.451,7.253-39.925,13.025-56.476,17.645a539.53,539.53,0,0,1-53.816,12.4c-8.873,1.523-17.494,2.687-25.625,3.461-8.52.811-16.8,1.222-24.617,1.222a200.507,200.507,0,0,1-24.344-1.428,159.61,159.61,0,0,1-23.01-4.513,288.968,288.968,0,0,0-34.9-7.5,208.369,208.369,0,0,0-30.06-2.294,164.691,164.691,0,0,0-29.851,2.632,161.879,161.879,0,0,0-25.732,6.939,218.179,218.179,0,0,0-22.892,9.811c-7.168,3.524-13.9,7.178-21.333,11.246l-1.52.833-.016.009c-6.726,3.684-13.68,7.493-20.676,10.988A215.52,215.52,0,0,1,285,151.585a149.232,149.232,0,0,1-23.961,6.719A144.75,144.75,0,0,1,233.625,160.846Z" transform="translate(-1 1)" fill="#fff"/>
</svg>
