<svg xmlns="http://www.w3.org/2000/svg" width="1430.655" height="1296.08" viewBox="0 0 1430.655 1296.08">
  <path id="Subtraction_1" data-name="Subtraction 1" d="M1920,1296.08l0,0c-3.053-4.468-6.326-9.25-9.573-13.947-9.937-14.373-21.846-31.2-34.832-46.99-13.649-16.6-26.783-30.01-40.153-40.991-32.764-26.91-68.209-39.992-108.362-39.992a211.188,211.188,0,0,0-38.994,3.819c-15,2.832-29.979,4.972-44.509,6.359-14,1.336-28.015,2.014-41.645,2.014-13.689,0-27.439-.683-40.867-2.031-12.78-1.283-25.685-3.212-38.357-5.731-11.967-2.379-24.137-5.369-36.171-8.884-11.235-3.281-22.778-7.147-34.31-11.489-10.725-4.038-21.446-8.47-32.774-13.547-10.083-4.52-20.407-9.445-31.562-15.058-20.7-10.418-41.074-21.62-60.773-32.452l-.014-.008c-14.1-7.754-28.678-15.771-43.077-23.326-16.111-8.453-30.357-15.458-43.554-21.414-15.812-7.136-30.532-12.979-45-17.862-7.835-2.644-15.691-5.028-23.349-7.087-8.03-2.159-16.13-4.037-24.077-5.584-57.077-11.107-103.511-25.793-138.013-43.649a226.473,226.473,0,0,1-24.407-14.521,153.7,153.7,0,0,1-19.709-15.994,106.219,106.219,0,0,1-14.68-17.48,80.2,80.2,0,0,1-9.321-18.981,72.907,72.907,0,0,1-3.642-24.963,90.166,90.166,0,0,1,5.251-27.2,141.4,141.4,0,0,1,14.726-29.463,241.636,241.636,0,0,1,24.785-31.752c48.047-52.684,28.55-87.757,5.974-128.368-6.872-12.362-13.978-25.144-19.616-39.144a156.491,156.491,0,0,1-7.111-21.955,131.967,131.967,0,0,1-3.528-24.191,134.807,134.807,0,0,1,1.393-26.912,165.755,165.755,0,0,1,7.653-30.119,233.8,233.8,0,0,1,15.252-33.812,355.753,355.753,0,0,1,24.189-37.991,89.634,89.634,0,0,0,8.715-14.7,69.791,69.791,0,0,0,4.949-14.6,62.615,62.615,0,0,0,1.4-14.494,66.246,66.246,0,0,0-1.931-14.392,80.09,80.09,0,0,0-4.724-13.582,104.674,104.674,0,0,0-7.351-13.491A165.98,165.98,0,0,0,986.46,323.41a307.7,307.7,0,0,0-30.112-26.356c-10.773-8.355-23.187-17.1-36.9-26-53.063-34.442-120.489-68.077-185.694-100.6l-.037-.018c-30.525-15.227-59.357-29.61-86.983-44.149-14.852-7.816-27.89-14.909-39.861-21.685-13.4-7.587-25.153-14.595-35.919-21.425C559.42,75.851,549.043,68.729,540.112,62a250.077,250.077,0,0,1-24.639-20.915,123.628,123.628,0,0,1-17.3-20.666,71.954,71.954,0,0,1-5.544-10.241A52.4,52.4,0,0,1,489.345,0H1920V1296.08Z" transform="translate(-489.345 0)" fill="#fff"/>
</svg>
