<svg xmlns="http://www.w3.org/2000/svg" viewBox="0 0 2278 1833" fill="none" xmlns:v="https://vecta.io/nano"><path d="M1445.82 504.816h69.46l198.01-197.991 9.71-84.091C1354.47-102.555 792.035-67.414 466.717 301.083 376.329 403.359 310.827 525.189 275 657c22.016-9.024 46.494-10.529 69.467-4.102l396.015-65.359s20.102-33.363 30.631-31.312c176.129-193.478 472.597-216.039 676.067-51.411h-1.36z" fill="#ea4335"/><path d="M1995.16 656.467C1949.64 488.823 1856.28 338.135 1726.42 223l-277.77 277.856c117.29 95.855 184.13 240.39 181.26 391.898v49.363c136.56 0 247.28 110.763 247.28 247.363s-110.72 247.36-247.28 247.36h-494.56l-49.35 50.05v296.73l49.35 49.36h494.56c355.13 2.74 645.34-283.05 648.07-638.3 1.64-215.78-104.57-417.608-282.82-538.213z" fill="#4285f4"/><path d="M639.752 1830.99H1135v-396.66H639.752c-35.316 0-70.085-7.67-102.253-22.33l-69.537 21.64-199.578 198.33L251 1701.56c111.835 84.64 248.445 130.12 388.752 129.43z" fill="#34a853"/><path d="M639.443 546.005C284.112 548.056-2.04 837.74.011 1193.04 1.241 1391.41 93.8 1578.15 251.163 1699l286.835-286.81c-124.414-56.19-179.785-202.74-123.594-327.15 56.192-124.399 202.754-179.766 327.167-123.579 54.825 24.744 98.711 68.759 123.594 123.579L1152 798.232c-121.95-159.675-311.718-253.047-512.557-252.227z" fill="#fbbc05"/></svg>