<svg xmlns="http://www.w3.org/2000/svg" viewBox="0 0 225 83" fill="none" xmlns:v="https://vecta.io/nano"><path d="M74.797 44.2c0-21.4 17.3-38.7 38.7-38.7s38.7 17.3 38.7 38.7-17.3 38.7-38.7 38.7-38.7-17.4-38.7-38.7z" fill="#fff"/><mask id="A" maskUnits="userSpaceOnUse" x="11.609" y="18.199" width="100" height="55" fill="#000"><path fill="#fff" d="M11.609 18.199h100v55h-100z"/><path fill-rule="evenodd" d="M81.398 33.799c.6 1.5.6 3.5.2 5.1-.1.1-.2.1-.3 0l-1.1-4.2c-.3-.8-1.3-1.5-.9-2.4.2-.2.6-.2.9-.1.5.5.8 1 1.2 1.6zm16 14c1.1 1.3 1.9 2.7 1.5 4.4-.2.3-.1.9-.6 1-.2.1-.4-.1-.4-.3-.1-.9-.1-1.9-.6-2.6-.6-.6-1.3-1.8-2.3-1.8-.7.2-1.2 1-1.6 1.5 0 .1-.1.1-.2 0-.4-1 .4-1.8.7-2.6.6-.6.5-2.3 1.8-1.8.9.6 1.1 1.6 1.7 2.2zm-2.1 11.9c.1.6.1 1.5-.5 1.9a4.87 4.87 0 0 1-2.1.2c-.2-.1-.4-.2-.3-.4.3-.9 1.2-1.9 2.2-2.1.2 0 .6 0 .7.4zm-73-36.5c2.4.6 5 .6 6.8 2.5 1 1.2 1.1 3.3.3 4.5-1.4 2.4-4.2 3.6-5.9 5.7-1.7 1.4-2.3 3.6-1.8 5.8.6 1.9 2.5 3.2 4.4 3.3 3 .1 5.2-1.4 7.6-2.8 2.4-1.7 4.6-3.9 7.3-4.6 1.8-.6 3.8-.3 5.6-1 1.9-.4 3.4-2 4.9-3.4 1.7-1.4 3.7-2.2 5.9-2.1 2 .3 3.1-1.5 4.5-2.7 2.3-2.1 5.3-2.3 8-3.5 1.9-.6 3.4-2 5.2-2.9 1.7-.7 4-.9 5.7-.2 1.1.5 2.3 1 3.3 1.8l8.1 6.8c.1.3.4.5.6.6 2.3 2.8 4.7 5.5 6.6 8.6.6 1.1.9 2.2 1.2 3.4.4 4.6 1.6 8.6 3.1 12.6.4.6 1.2 1.1 1.6 1.7 1.3 1.8 2.1 4.1 4.2 5.3l1.2.6c.1.1.1.3 0 .4l-.2.2c-2.5.4-4.4-1.1-5.7-2.9-.8-1.6-1.9-3.3-3.7-4-.1 0-.2.1-.2.1.2.6.8 1 1 1.5.7 1.1 1.3 2.3 1.6 3.5.4 1.3 1.8 2.2 2.9 2.9l1.6.8c.2.1.3.4.1.6l-.2.1c-2.7.1-5.1-.8-7-2.8-.4-.5-1-.9-1.7-.9-1.2 1.1-2.4 2.1-4 2.2-1.7-.3-3.5-.3-5 .3-1.4.5-2.8 1.1-4.3 1.1-.7 0-1.5-.3-1.8-1 0-.9-.6-1.9-.1-2.8l1-1.5c0-.2-.1-.4-.3-.4-.4-.1-1.1.6-1.3-.1.1-1.5 1.6-2.5 2.6-3.5a6.38 6.38 0 0 1 1.6-3.3c0-.1-.1-.3-.3-.3-1.3.2-2.6.5-4 .5-1.1.6-2.5 1-3.8.6-.3-.2-.2-.5-.1-.7 1.4-1.9 1.9-4.3 1.5-6.6-.1-.1-.1-.3-.3-.3s-.2.2-.3.3c-.3 2.2-1 3.9-2.2 5.8-.9.9-2.3.9-3.5 1.2-.3.1-.6.4-.6.7 0 .8.5 1.3.8 2l2.6 4.8c.1 1.3-.5 2.6-.8 3.8.1.2.3.1.5 0 .9-.8 1.5-1.9 1.9-3.1.1-.5-.1-1.1-.3-1.5l-2.7-5.4c.2-.3.6-.3.9-.4.6 0 1.2.3 1.8.5.6 1.6 1.3 3.3 2.4 4.7.2.9.5 2.1-.1 2.8a22.31 22.31 0 0 1-2 3.3c-.7.7-1.7.6-2.7.7h-.3c-2.4 1.3-4.9 2.1-7.5 2.9-1.1.5-2.4.1-3.3-.6s-1.3-1.7-1.9-2.6c-.7-.9-1.8-.1-2.6-.6-.7-1.1-1.4-2.2-2-3.4 0-.3 0-.6.3-.8.9-.3 1.9-.3 2.9-.4.9-.1 1.9.1 2.5.7 1.2 1.4 1.7 3.3 3.5 4.2 1.4.1 2.6-.3 3.8-.9.7-.4 1.5-1 1.5-1.9-.1-1.8-1.3-3.2-2.8-4.2-1.5-.8-3.1-1.9-4.2-3.3-.6-.8-.7-1.7-1-2.5-.1-.2-.5-.2-.6-.1-.6.5-.1 1.4-.1 2 .1.4.3.9.1 1.2-.9.7-2.1.3-3.2.4-2.2-.1-4.3-1-6.6-.8-2.2.1-5.2 1.6-6.8-.6-.8-2.1-.6-4.6-.2-6.7 0-.2-.2-.4-.4-.4-.2-.1-.4 0-.5.2-.6 2.1-.7 4.4-1.2 6.6-.8 1.9-2.2 3.9-4.1 4.9-1.7.9-3.7 1.2-5.8 1.4-3.8.1-7.3.8-9.7 4.1-.2.3-.5.6-.4 1 .1.1.4.2.5.1 2.6-2.9 5.9-4.1 9.7-3.9 3.6 0 7.2-.6 9.5-3.7.6-.7 1-1.4 1.5-2.2.4 0 .7.5 1 .7.1 1.1-.8 1.8-1.2 2.7-.5 1-1 2.2-2 2.8-1.2.3-2.2 1.1-3.3 1.7-1.1.5-2.5.7-3.8.4-1.6-.3-3.8-.7-5.4 0-.8.5-1.5 1.4-2.3 1.9-1.1.5-2.1 1.4-3.4 1.3-.9-.2-2-.8-2.8 0-1 .9-1.2 2.5-2.5 3.1-1.5.8-3.1 0-4.6-.1.2-1.5.4-2.9 1.4-4 .6-.1 1.1-.2 1.6-.6.6-.5 1-1.2 1.4-1.9 1.3-.8 2.8-1.4 3.6-2.8.6-1.3.6-2.5 1.6-3.7l.5-.2 2.7-.2c1.1-.5 2.1-1 3.1-1.8.3-.3.4-.8.3-1.3-.5-1.3-.9-2.2-1.2-3.6s-.1-2.8-.3-4.4c-.1-.1-.2-.4-.4-.4-1.8.4-3.5.9-5.5.6-2.7-.3-5.5-2.1-6.5-4.8-.9-2.3-.7-5.6 1-7.5 1.6-2 3.6-3.5 5.6-5.2.3-.2.3-.6.4-.9 0-.4-.4-.7-.7-.9-1.2-.3-2.6.1-3.8-.4-2.1-.7-3.7-2.7-4-4.9-.1-1 .1-1.8.6-2.6 1.6 1.4 2.8 2.6 4.3 3zm-6 44.7v.3c-.5 1.2-.8 2.6-1.2 4-.9-.1-1.7-.4-2.4-.7-.2-.2 0-.4 0-.6.9-.8.6-1.8.8-2.9.1-.6.7-1.1 1.3-1.4.7.1 1.1.8 1.5 1.3zm4.4-4.2c-.5 1-1.2 2.2-2.3 2.8-.4.1-.9.1-1.3-.1-.2-.2-.6-.4-.6-.8.1-.4-.1-.9.3-1.1.8-.5 1.6-1 2.4-1.7.2-.1.6-.2.7 0 .4.3.7.5.8.9zm50.1-.4c.1.4.7.9.3 1.3-.8.6-1.7 1-2.8.9-.8-.6-.7-1.7-1.4-2.5-.2-.6-1.1-.6-.9-1.2l.3-.2c1.1 0 2.2 0 3.3-.2 1.1-.1.8 1.2 1.2 1.9z"/></mask><path fill-rule="evenodd" d="M81.398 33.799c.6 1.5.6 3.5.2 5.1-.1.1-.2.1-.3 0l-1.1-4.2c-.3-.8-1.3-1.5-.9-2.4.2-.2.6-.2.9-.1.5.5.8 1 1.2 1.6zm16 14c1.1 1.3 1.9 2.7 1.5 4.4-.2.3-.1.9-.6 1-.2.1-.4-.1-.4-.3-.1-.9-.1-1.9-.6-2.6-.6-.6-1.3-1.8-2.3-1.8-.7.2-1.2 1-1.6 1.5 0 .1-.1.1-.2 0-.4-1 .4-1.8.7-2.6.6-.6.5-2.3 1.8-1.8.9.6 1.1 1.6 1.7 2.2zm-2.1 11.9c.1.6.1 1.5-.5 1.9a4.87 4.87 0 0 1-2.1.2c-.2-.1-.4-.2-.3-.4.3-.9 1.2-1.9 2.2-2.1.2 0 .6 0 .7.4zm-73-36.5c2.4.6 5 .6 6.8 2.5 1 1.2 1.1 3.3.3 4.5-1.4 2.4-4.2 3.6-5.9 5.7-1.7 1.4-2.3 3.6-1.8 5.8.6 1.9 2.5 3.2 4.4 3.3 3 .1 5.2-1.4 7.6-2.8 2.4-1.7 4.6-3.9 7.3-4.6 1.8-.6 3.8-.3 5.6-1 1.9-.4 3.4-2 4.9-3.4 1.7-1.4 3.7-2.2 5.9-2.1 2 .3 3.1-1.5 4.5-2.7 2.3-2.1 5.3-2.3 8-3.5 1.9-.6 3.4-2 5.2-2.9 1.7-.7 4-.9 5.7-.2 1.1.5 2.3 1 3.3 1.8l8.1 6.8c.1.3.4.5.6.6 2.3 2.8 4.7 5.5 6.6 8.6.6 1.1.9 2.2 1.2 3.4.4 4.6 1.6 8.6 3.1 12.6.4.6 1.2 1.1 1.6 1.7 1.3 1.8 2.1 4.1 4.2 5.3l1.2.6c.1.1.1.3 0 .4l-.2.2c-2.5.4-4.4-1.1-5.7-2.9-.8-1.6-1.9-3.3-3.7-4-.1 0-.2.1-.2.1.2.6.8 1 1 1.5.7 1.1 1.3 2.3 1.6 3.5.4 1.3 1.8 2.2 2.9 2.9l1.6.8c.2.1.3.4.1.6l-.2.1c-2.7.1-5.1-.8-7-2.8-.4-.5-1-.9-1.7-.9-1.2 1.1-2.4 2.1-4 2.2-1.7-.3-3.5-.3-5 .3-1.4.5-2.8 1.1-4.3 1.1-.7 0-1.5-.3-1.8-1 0-.9-.6-1.9-.1-2.8l1-1.5c0-.2-.1-.4-.3-.4-.4-.1-1.1.6-1.3-.1.1-1.5 1.6-2.5 2.6-3.5a6.38 6.38 0 0 1 1.6-3.3c0-.1-.1-.3-.3-.3-1.3.2-2.6.5-4 .5-1.1.6-2.5 1-3.8.6-.3-.2-.2-.5-.1-.7 1.4-1.9 1.9-4.3 1.5-6.6-.1-.1-.1-.3-.3-.3s-.2.2-.3.3c-.3 2.2-1 3.9-2.2 5.8-.9.9-2.3.9-3.5 1.2-.3.1-.6.4-.6.7 0 .8.5 1.3.8 2l2.6 4.8c.1 1.3-.5 2.6-.8 3.8.1.2.3.1.5 0 .9-.8 1.5-1.9 1.9-3.1.1-.5-.1-1.1-.3-1.5l-2.7-5.4c.2-.3.6-.3.9-.4.6 0 1.2.3 1.8.5.6 1.6 1.3 3.3 2.4 4.7.2.9.5 2.1-.1 2.8a22.31 22.31 0 0 1-2 3.3c-.7.7-1.7.6-2.7.7h-.3c-2.4 1.3-4.9 2.1-7.5 2.9-1.1.5-2.4.1-3.3-.6s-1.3-1.7-1.9-2.6c-.7-.9-1.8-.1-2.6-.6-.7-1.1-1.4-2.2-2-3.4 0-.3 0-.6.3-.8.9-.3 1.9-.3 2.9-.4.9-.1 1.9.1 2.5.7 1.2 1.4 1.7 3.3 3.5 4.2 1.4.1 2.6-.3 3.8-.9.7-.4 1.5-1 1.5-1.9-.1-1.8-1.3-3.2-2.8-4.2-1.5-.8-3.1-1.9-4.2-3.3-.6-.8-.7-1.7-1-2.5-.1-.2-.5-.2-.6-.1-.6.5-.1 1.4-.1 2 .1.4.3.9.1 1.2-.9.7-2.1.3-3.2.4-2.2-.1-4.3-1-6.6-.8-2.2.1-5.2 1.6-6.8-.6-.8-2.1-.6-4.6-.2-6.7 0-.2-.2-.4-.4-.4-.2-.1-.4 0-.5.2-.6 2.1-.7 4.4-1.2 6.6-.8 1.9-2.2 3.9-4.1 4.9-1.7.9-3.7 1.2-5.8 1.4-3.8.1-7.3.8-9.7 4.1-.2.3-.5.6-.4 1 .1.1.4.2.5.1 2.6-2.9 5.9-4.1 9.7-3.9 3.6 0 7.2-.6 9.5-3.7.6-.7 1-1.4 1.5-2.2.4 0 .7.5 1 .7.1 1.1-.8 1.8-1.2 2.7-.5 1-1 2.2-2 2.8-1.2.3-2.2 1.1-3.3 1.7-1.1.5-2.5.7-3.8.4-1.6-.3-3.8-.7-5.4 0-.8.5-1.5 1.4-2.3 1.9-1.1.5-2.1 1.4-3.4 1.3-.9-.2-2-.8-2.8 0-1 .9-1.2 2.5-2.5 3.1-1.5.8-3.1 0-4.6-.1.2-1.5.4-2.9 1.4-4 .6-.1 1.1-.2 1.6-.6.6-.5 1-1.2 1.4-1.9 1.3-.8 2.8-1.4 3.6-2.8.6-1.3.6-2.5 1.6-3.7l.5-.2 2.7-.2c1.1-.5 2.1-1 3.1-1.8.3-.3.4-.8.3-1.3-.5-1.3-.9-2.2-1.2-3.6s-.1-2.8-.3-4.4c-.1-.1-.2-.4-.4-.4-1.8.4-3.5.9-5.5.6-2.7-.3-5.5-2.1-6.5-4.8-.9-2.3-.7-5.6 1-7.5 1.6-2 3.6-3.5 5.6-5.2.3-.2.3-.6.4-.9 0-.4-.4-.7-.7-.9-1.2-.3-2.6.1-3.8-.4-2.1-.7-3.7-2.7-4-4.9-.1-1 .1-1.8.6-2.6 1.6 1.4 2.8 2.6 4.3 3zm-6 44.7v.3c-.5 1.2-.8 2.6-1.2 4-.9-.1-1.7-.4-2.4-.7-.2-.2 0-.4 0-.6.9-.8.6-1.8.8-2.9.1-.6.7-1.1 1.3-1.4.7.1 1.1.8 1.5 1.3zm4.4-4.2c-.5 1-1.2 2.2-2.3 2.8-.4.1-.9.1-1.3-.1-.2-.2-.6-.4-.6-.8.1-.4-.1-.9.3-1.1.8-.5 1.6-1 2.4-1.7.2-.1.6-.2.7 0 .4.3.7.5.8.9zm50.1-.4c.1.4.7.9.3 1.3-.8.6-1.7 1-2.8.9-.8-.6-.7-1.7-1.4-2.5-.2-.6-1.1-.6-.9-1.2l.3-.2c1.1 0 2.2 0 3.3-.2 1.1-.1.8 1.2 1.2 1.9z" fill="#fff"/><path d="M81.398 33.799c.6 1.5.6 3.5.2 5.1-.1.1-.2.1-.3 0l-1.1-4.2c-.3-.8-1.3-1.5-.9-2.4.2-.2.6-.2.9-.1.5.5.8 1 1.2 1.6zm16 14c1.1 1.3 1.9 2.7 1.5 4.4-.2.3-.1.9-.6 1-.2.1-.4-.1-.4-.3-.1-.9-.1-1.9-.6-2.6-.6-.6-1.3-1.8-2.3-1.8-.7.2-1.2 1-1.6 1.5 0 .1-.1.1-.2 0-.4-1 .4-1.8.7-2.6.6-.6.5-2.3 1.8-1.8.9.6 1.1 1.6 1.7 2.2zm-2.1 11.9c.1.6.1 1.5-.5 1.9a4.87 4.87 0 0 1-2.1.2c-.2-.1-.4-.2-.3-.4.3-.9 1.2-1.9 2.2-2.1.2 0 .6 0 .7.4zm-73-36.5c2.4.6 5 .6 6.8 2.5 1 1.2 1.1 3.3.3 4.5-1.4 2.4-4.2 3.6-5.9 5.7-1.7 1.4-2.3 3.6-1.8 5.8.6 1.9 2.5 3.2 4.4 3.3 3 .1 5.2-1.4 7.6-2.8 2.4-1.7 4.6-3.9 7.3-4.6 1.8-.6 3.8-.3 5.6-1 1.9-.4 3.4-2 4.9-3.4 1.7-1.4 3.7-2.2 5.9-2.1 2 .3 3.1-1.5 4.5-2.7 2.3-2.1 5.3-2.3 8-3.5 1.9-.6 3.4-2 5.2-2.9 1.7-.7 4-.9 5.7-.2 1.1.5 2.3 1 3.3 1.8l8.1 6.8c.1.3.4.5.6.6 2.3 2.8 4.7 5.5 6.6 8.6.6 1.1.9 2.2 1.2 3.4.4 4.6 1.6 8.6 3.1 12.6.4.6 1.2 1.1 1.6 1.7 1.3 1.8 2.1 4.1 4.2 5.3l1.2.6c.1.1.1.3 0 .4l-.2.2c-2.5.4-4.4-1.1-5.7-2.9-.8-1.6-1.9-3.3-3.7-4-.1 0-.2.1-.2.1.2.6.8 1 1 1.5.7 1.1 1.3 2.3 1.6 3.5.4 1.3 1.8 2.2 2.9 2.9l1.6.8c.2.1.3.4.1.6l-.2.1c-2.7.1-5.1-.8-7-2.8-.4-.5-1-.9-1.7-.9-1.2 1.1-2.4 2.1-4 2.2-1.7-.3-3.5-.3-5 .3-1.4.5-2.8 1.1-4.3 1.1-.7 0-1.5-.3-1.8-1 0-.9-.6-1.9-.1-2.8l1-1.5c0-.2-.1-.4-.3-.4-.4-.1-1.1.6-1.3-.1.1-1.5 1.6-2.5 2.6-3.5a6.38 6.38 0 0 1 1.6-3.3c0-.1-.1-.3-.3-.3-1.3.2-2.6.5-4 .5-1.1.6-2.5 1-3.8.6-.3-.2-.2-.5-.1-.7 1.4-1.9 1.9-4.3 1.5-6.6-.1-.1-.1-.3-.3-.3s-.2.2-.3.3c-.3 2.2-1 3.9-2.2 5.8-.9.9-2.3.9-3.5 1.2-.3.1-.6.4-.6.7 0 .8.5 1.3.8 2l2.6 4.8c.1 1.3-.5 2.6-.8 3.8.1.2.3.1.5 0 .9-.8 1.5-1.9 1.9-3.1.1-.5-.1-1.1-.3-1.5l-2.7-5.4c.2-.3.6-.3.9-.4.6 0 1.2.3 1.8.5.6 1.6 1.3 3.3 2.4 4.7.2.9.5 2.1-.1 2.8a22.31 22.31 0 0 1-2 3.3c-.7.7-1.7.6-2.7.7h-.3c-2.4 1.3-4.9 2.1-7.5 2.9-1.1.5-2.4.1-3.3-.6s-1.3-1.7-1.9-2.6c-.7-.9-1.8-.1-2.6-.6-.7-1.1-1.4-2.2-2-3.4 0-.3 0-.6.3-.8.9-.3 1.9-.3 2.9-.4.9-.1 1.9.1 2.5.7 1.2 1.4 1.7 3.3 3.5 4.2 1.4.1 2.6-.3 3.8-.9.7-.4 1.5-1 1.5-1.9-.1-1.8-1.3-3.2-2.8-4.2-1.5-.8-3.1-1.9-4.2-3.3-.6-.8-.7-1.7-1-2.5-.1-.2-.5-.2-.6-.1-.6.5-.1 1.4-.1 2 .1.4.3.9.1 1.2-.9.7-2.1.3-3.2.4-2.2-.1-4.3-1-6.6-.8-2.2.1-5.2 1.6-6.8-.6-.8-2.1-.6-4.6-.2-6.7 0-.2-.2-.4-.4-.4-.2-.1-.4 0-.5.2-.6 2.1-.7 4.4-1.2 6.6-.8 1.9-2.2 3.9-4.1 4.9-1.7.9-3.7 1.2-5.8 1.4-3.8.1-7.3.8-9.7 4.1-.2.3-.5.6-.4 1 .1.1.4.2.5.1 2.6-2.9 5.9-4.1 9.7-3.9 3.6 0 7.2-.6 9.5-3.7.6-.7 1-1.4 1.5-2.2.4 0 .7.5 1 .7.1 1.1-.8 1.8-1.2 2.7-.5 1-1 2.2-2 2.8-1.2.3-2.2 1.1-3.3 1.7-1.1.5-2.5.7-3.8.4-1.6-.3-3.8-.7-5.4 0-.8.5-1.5 1.4-2.3 1.9-1.1.5-2.1 1.4-3.4 1.3-.9-.2-2-.8-2.8 0-1 .9-1.2 2.5-2.5 3.1-1.5.8-3.1 0-4.6-.1.2-1.5.4-2.9 1.4-4 .6-.1 1.1-.2 1.6-.6.6-.5 1-1.2 1.4-1.9 1.3-.8 2.8-1.4 3.6-2.8.6-1.3.6-2.5 1.6-3.7l.5-.2 2.7-.2c1.1-.5 2.1-1 3.1-1.8.3-.3.4-.8.3-1.3-.5-1.3-.9-2.2-1.2-3.6s-.1-2.8-.3-4.4c-.1-.1-.2-.4-.4-.4-1.8.4-3.5.9-5.5.6-2.7-.3-5.5-2.1-6.5-4.8-.9-2.3-.7-5.6 1-7.5 1.6-2 3.6-3.5 5.6-5.2.3-.2.3-.6.4-.9 0-.4-.4-.7-.7-.9-1.2-.3-2.6.1-3.8-.4-2.1-.7-3.7-2.7-4-4.9-.1-1 .1-1.8.6-2.6 1.6 1.4 2.8 2.6 4.3 3zm-6 44.7v.3c-.5 1.2-.8 2.6-1.2 4-.9-.1-1.7-.4-2.4-.7-.2-.2 0-.4 0-.6.9-.8.6-1.8.8-2.9.1-.6.7-1.1 1.3-1.4.7.1 1.1.8 1.5 1.3zm4.4-4.2c-.5 1-1.2 2.2-2.3 2.8-.4.1-.9.1-1.3-.1-.2-.2-.6-.4-.6-.8.1-.4-.1-.9.3-1.1.8-.5 1.6-1 2.4-1.7.2-.1.6-.2.7 0 .4.3.7.5.8.9zm50.1-.4c.1.4.7.9.3 1.3-.8.6-1.7 1-2.8.9-.8-.6-.7-1.7-1.4-2.5-.2-.6-1.1-.6-.9-1.2l.3-.2c1.1 0 2.2 0 3.3-.2 1.1-.1.8 1.2 1.2 1.9z" stroke="#000" stroke-width="1.6" mask="url(#A)"/><mask id="B" maskUnits="userSpaceOnUse" x="115.031" y="19.973" width="100" height="54" fill="#000"><path fill="#fff" d="M115.031 19.973h100v54h-100z"/><path fill-rule="evenodd" d="M133.997 46.998c.6.8 1.1 1.6 1.5 2.6.1.2 0 .4-.1.6s-.3.4-.6.2c-.7-.2-.6-1.3-1.5-1.2-.6 0-1 .5-1.5.8-.9.8-2.1 1.6-2.3 2.8-.2.4-.1 1.1-.5 1.3-.2.1-.5-.1-.5-.3-.1-1.6.4-3.1 1.5-4.2 1.1-.9 1.9-2.2 2.8-3.3.6-.1 1 .3 1.2.7zm.4 13.3c.2.4.6.9.3 1.4-.4.3-1.1.1-1.6.1-.6-.3-.8-1.1-.8-1.8 0-.2 0-.3.2-.5.7 0 1.4.2 1.9.8zm15-30.6c.3.4 0 .8-.2 1.1-1.4 1.3-3.1 2.7-4.1 4.3-.4.5-.7 1.1-.9 1.7 0 .1-.1.1-.2.1-.3-.8.1-1.7.3-2.5.7-1.9 2.3-3.7 4-5 .2-.1.9-.2 1.1.3zm5.7-6.4c1.1.7 1.5 2.2 2.8 2.5 2.2.5 4.4 1 6.4 2 1.4.7 2.7 1.7 4 2.8 1.2.6 2.7.6 4 1 1.9.5 3.4 1.9 5.1 3 2.2 1.7 5.3 1.5 7.8 2.6 4 1.3 7.2 4.4 10.9 6.2 1.9 1 4.8 1.4 6.7.3 1.3-.9 2.1-2.1 1.8-3.8-.7-4.1-5.2-6.2-7.3-9.6-.4-.8-.7-1.9-.5-2.8.8-2 2.9-3.1 4.7-3.8 1.4-.7 3.2-.5 4.5-1.3.5-.3.9-.7 1.2-1 .3 0 .3.3.4.5.4 2.4 0 4.9-2.1 6.3-.8.6-1.8.8-2.7 1-.8.3-2.4-.3-2.3 1.1.2.7.8 1.1 1.3 1.6 2.8 2.3 5.4 5.3 5.7 8.9.1 2.8-1.8 5.2-4.2 6.4-1.8.7-4 1-5.9.5-.5-.1-1.3-.6-1.7.1-.1.8.4 1.4.4 2.1.2 1.3.2 3-.2 4.3-.2 1-1.2 2.2-.3 3.2.9 1.4 2.7 1 4.2 1.2.8.1 1.1 1 1.3 1.6.3.8.3 1.7.6 2.3 0 1.5 1.7 2.1 2.5 3.1 1 1.1 1.9 3 3.6 2.9.6 1.2.9 2.3 1.1 3.7l-.2.2c-1.4 0-3.3.4-4.3-.6-1.2-.8-1.6-3-3.4-2.4-.8.6-1.9.8-2.8.4-.9-.3-1.5-1.1-2.3-1.6-2.4-1.8-5.6-2.7-8.7-2-1.8.5-3.2-.8-4.6-1.6-1.9-.8-2.4-2.8-2.8-4.5l-.3-2.1c0-.2.2-.4.4-.5h.3c1.1 2.5 3.2 5.3 5.9 6.2 2.5 1 4.8-.3 7.5.2 2.5.3 4.5 1.9 6.4 3.4.2 0 .3-.1.4-.3v-.2c-2.3-2.9-5.5-4.4-9.2-4.1-3.1.6-6.1-.4-7.9-3-1-1.5-1.7-3.1-2-4.8-.3-2-.7-4.2-1.4-6-.2-.1-.4-.3-.6-.2l-.2.3c.3 1.9.9 4.2.2 6.2-.5 1.6-2.1 2.2-3.6 2.3s-2.9-.2-4.5-.2c-3.6-.1-6.8 1.3-10.5 1 .3-.9.9-1.8.6-2.8-.1-.2-.4-.2-.6-.2-.7.4-.6 1.3-1 1.9-.8 1.3-2.3 2.5-3.8 2.8-1.1.8-2.1 1.9-3 2.9-.3.3-.3.9-.2 1.3.7 1.8 2.8 2 4.4 2.5.8.1 1.5-.2 1.9-.9.7-1.1.8-2.9 2.4-3.1h3.5c.3.1.5.3.7.6l-.1.5c-.8.9-1.1 2.2-2.1 2.8-.6.2-1.3 0-1.7.5-.2 1.2-.5 2.5-1.7 3.1-.9.8-2.2.4-3.2.1-1.9-.7-3.8-1.1-5.7-1.7-.8-.2-1.1-1.2-2-1.4-.8-.2-1.7.4-2.4-.3-.4-.9-.6-1.5-.8-2.5-.3-.6-.5-1.3-.6-2-.1-.6 0-1 .2-1.5l2.6-4.7c.2-.3.4-.6.7-.7.6.1 1.3.4 1.9.7l-.1.3-2.7 4.1c-.6 1.3 0 2.8.6 3.9.1.1.2.3.3.2-.1-.8-.2-1.6 0-2.5.2-.8.7-1.5 1.1-2.2l2.1-3.1c.2-.5.2-1.3-.2-1.8-.9-.9-2.2-1.2-3-2.4-1.7-2.3-1.9-5-2.1-7.9 0-.2-.2-.5-.5-.6-.2-.1-.4.2-.5.3-.5 1.9-.2 4.2.3 5.9.3 1.3.9 2.6 1.5 3.8.1.2-.1.5-.3.6-1.4.1-2.8 0-4.1-.2-1.8-.3-3.1-1.7-4.6-2.8-.2-.1-.3.1-.4.2.4 2 2.6 3.2 3.3 5 .4 1.5 1.9 2.6 2.2 4.2 0 .2-.2.5-.4.6-.5.1-1-.2-1.5.1-.1.9.5 1.8.1 2.6-.5.8-1.2 1.7-2.1 1.7-1.8-.6-3.6-1.4-5.4-1.9-1.3-.1-2.6.1-3.8.2-1.2-.2-2-1.3-2.9-1.9-.3-.1-.6-.1-.8.1-2 2-4.2 4.2-7.2 4.1-.2 0-.3-.2-.3-.4v-.2c1.3-1.2 2.9-2.4 3.5-4.1.4-1.4 1.6-2.4 2.1-3.7.1-.2-.1-.3-.3-.4l-.3.2c-1.5 1.5-2.6 3.2-3.7 4.8-1.1 1.1-2.7 1.8-4.4 1.4-.2-.1-.2-.4-.1-.6 6.2-3.8 6.9-10.6 8.6-16.8 1.2-4.1 2.1-8.3 5.3-11.6 4.8-5.3 10.8-8.4 16.1-13 .8-.7 1.6-1.4 2.6-1.4 2.6-.2 4.6.8 6.4 2.3zm57.1 44.2c.5.7.3 1.8.5 2.6.1.6.9 1.1.5 1.7l-2.2.7c-.4 0-.2-.5-.4-.7-.2-1.3-.5-2.2-.9-3.4-.1-.7.6-1.2 1.1-1.6.5-.2.9.4 1.4.7zm-5.1-4.5c.8.7 1.9 1.2 2.5 2.1.1.4-.2.8-.4 1.1-.3.3-.7.5-1.2.5s-.9-.3-1.2-.7c-.5-.8-1.2-1.5-1.4-2.3.3-.5 1-1.3 1.7-.7zm-48.2-.8c-.1 1-.4 1.9-.8 2.8-.3.6-1.2.4-1.8.3-.6-.2-1.6-.3-1.7-1.2-.1-.8.3-1.6.7-2.2.9-.1 2 .1 2.9-.1.4 0 .7.1.7.4z"/></mask><path fill-rule="evenodd" d="M133.997 46.998c.6.8 1.1 1.6 1.5 2.6.1.2 0 .4-.1.6s-.3.4-.6.2c-.7-.2-.6-1.3-1.5-1.2-.6 0-1 .5-1.5.8-.9.8-2.1 1.6-2.3 2.8-.2.4-.1 1.1-.5 1.3-.2.1-.5-.1-.5-.3-.1-1.6.4-3.1 1.5-4.2 1.1-.9 1.9-2.2 2.8-3.3.6-.1 1 .3 1.2.7zm.4 13.3c.2.4.6.9.3 1.4-.4.3-1.1.1-1.6.1-.6-.3-.8-1.1-.8-1.8 0-.2 0-.3.2-.5.7 0 1.4.2 1.9.8zm15-30.6c.3.4 0 .8-.2 1.1-1.4 1.3-3.1 2.7-4.1 4.3-.4.5-.7 1.1-.9 1.7 0 .1-.1.1-.2.1-.3-.8.1-1.7.3-2.5.7-1.9 2.3-3.7 4-5 .2-.1.9-.2 1.1.3zm5.7-6.4c1.1.7 1.5 2.2 2.8 2.5 2.2.5 4.4 1 6.4 2 1.4.7 2.7 1.7 4 2.8 1.2.6 2.7.6 4 1 1.9.5 3.4 1.9 5.1 3 2.2 1.7 5.3 1.5 7.8 2.6 4 1.3 7.2 4.4 10.9 6.2 1.9 1 4.8 1.4 6.7.3 1.3-.9 2.1-2.1 1.8-3.8-.7-4.1-5.2-6.2-7.3-9.6-.4-.8-.7-1.9-.5-2.8.8-2 2.9-3.1 4.7-3.8 1.4-.7 3.2-.5 4.5-1.3.5-.3.9-.7 1.2-1 .3 0 .3.3.4.5.4 2.4 0 4.9-2.1 6.3-.8.6-1.8.8-2.7 1-.8.3-2.4-.3-2.3 1.1.2.7.8 1.1 1.3 1.6 2.8 2.3 5.4 5.3 5.7 8.9.1 2.8-1.8 5.2-4.2 6.4-1.8.7-4 1-5.9.5-.5-.1-1.3-.6-1.7.1-.1.8.4 1.4.4 2.1.2 1.3.2 3-.2 4.3-.2 1-1.2 2.2-.3 3.2.9 1.4 2.7 1 4.2 1.2.8.1 1.1 1 1.3 1.6.3.8.3 1.7.6 2.3 0 1.5 1.7 2.1 2.5 3.1 1 1.1 1.9 3 3.6 2.9.6 1.2.9 2.3 1.1 3.7l-.2.2c-1.4 0-3.3.4-4.3-.6-1.2-.8-1.6-3-3.4-2.4-.8.6-1.9.8-2.8.4-.9-.3-1.5-1.1-2.3-1.6-2.4-1.8-5.6-2.7-8.7-2-1.8.5-3.2-.8-4.6-1.6-1.9-.8-2.4-2.8-2.8-4.5l-.3-2.1c0-.2.2-.4.4-.5h.3c1.1 2.5 3.2 5.3 5.9 6.2 2.5 1 4.8-.3 7.5.2 2.5.3 4.5 1.9 6.4 3.4.2 0 .3-.1.4-.3v-.2c-2.3-2.9-5.5-4.4-9.2-4.1-3.1.6-6.1-.4-7.9-3-1-1.5-1.7-3.1-2-4.8-.3-2-.7-4.2-1.4-6-.2-.1-.4-.3-.6-.2l-.2.3c.3 1.9.9 4.2.2 6.2-.5 1.6-2.1 2.2-3.6 2.3s-2.9-.2-4.5-.2c-3.6-.1-6.8 1.3-10.5 1 .3-.9.9-1.8.6-2.8-.1-.2-.4-.2-.6-.2-.7.4-.6 1.3-1 1.9-.8 1.3-2.3 2.5-3.8 2.8-1.1.8-2.1 1.9-3 2.9-.3.3-.3.9-.2 1.3.7 1.8 2.8 2 4.4 2.5.8.1 1.5-.2 1.9-.9.7-1.1.8-2.9 2.4-3.1h3.5c.3.1.5.3.7.6l-.1.5c-.8.9-1.1 2.2-2.1 2.8-.6.2-1.3 0-1.7.5-.2 1.2-.5 2.5-1.7 3.1-.9.8-2.2.4-3.2.1-1.9-.7-3.8-1.1-5.7-1.7-.8-.2-1.1-1.2-2-1.4-.8-.2-1.7.4-2.4-.3-.4-.9-.6-1.5-.8-2.5-.3-.6-.5-1.3-.6-2-.1-.6 0-1 .2-1.5l2.6-4.7c.2-.3.4-.6.7-.7.6.1 1.3.4 1.9.7l-.1.3-2.7 4.1c-.6 1.3 0 2.8.6 3.9.1.1.2.3.3.2-.1-.8-.2-1.6 0-2.5.2-.8.7-1.5 1.1-2.2l2.1-3.1c.2-.5.2-1.3-.2-1.8-.9-.9-2.2-1.2-3-2.4-1.7-2.3-1.9-5-2.1-7.9 0-.2-.2-.5-.5-.6-.2-.1-.4.2-.5.3-.5 1.9-.2 4.2.3 5.9.3 1.3.9 2.6 1.5 3.8.1.2-.1.5-.3.6-1.4.1-2.8 0-4.1-.2-1.8-.3-3.1-1.7-4.6-2.8-.2-.1-.3.1-.4.2.4 2 2.6 3.2 3.3 5 .4 1.5 1.9 2.6 2.2 4.2 0 .2-.2.5-.4.6-.5.1-1-.2-1.5.1-.1.9.5 1.8.1 2.6-.5.8-1.2 1.7-2.1 1.7-1.8-.6-3.6-1.4-5.4-1.9-1.3-.1-2.6.1-3.8.2-1.2-.2-2-1.3-2.9-1.9-.3-.1-.6-.1-.8.1-2 2-4.2 4.2-7.2 4.1-.2 0-.3-.2-.3-.4v-.2c1.3-1.2 2.9-2.4 3.5-4.1.4-1.4 1.6-2.4 2.1-3.7.1-.2-.1-.3-.3-.4l-.3.2c-1.5 1.5-2.6 3.2-3.7 4.8-1.1 1.1-2.7 1.8-4.4 1.4-.2-.1-.2-.4-.1-.6 6.2-3.8 6.9-10.6 8.6-16.8 1.2-4.1 2.1-8.3 5.3-11.6 4.8-5.3 10.8-8.4 16.1-13 .8-.7 1.6-1.4 2.6-1.4 2.6-.2 4.6.8 6.4 2.3zm57.1 44.2c.5.7.3 1.8.5 2.6.1.6.9 1.1.5 1.7l-2.2.7c-.4 0-.2-.5-.4-.7-.2-1.3-.5-2.2-.9-3.4-.1-.7.6-1.2 1.1-1.6.5-.2.9.4 1.4.7zm-5.1-4.5c.8.7 1.9 1.2 2.5 2.1.1.4-.2.8-.4 1.1-.3.3-.7.5-1.2.5s-.9-.3-1.2-.7c-.5-.8-1.2-1.5-1.4-2.3.3-.5 1-1.3 1.7-.7zm-48.2-.8c-.1 1-.4 1.9-.8 2.8-.3.6-1.2.4-1.8.3-.6-.2-1.6-.3-1.7-1.2-.1-.8.3-1.6.7-2.2.9-.1 2 .1 2.9-.1.4 0 .7.1.7.4z" fill="#fff"/><path d="M133.997 46.998c.6.8 1.1 1.6 1.5 2.6.1.2 0 .4-.1.6s-.3.4-.6.2c-.7-.2-.6-1.3-1.5-1.2-.6 0-1 .5-1.5.8-.9.8-2.1 1.6-2.3 2.8-.2.4-.1 1.1-.5 1.3-.2.1-.5-.1-.5-.3-.1-1.6.4-3.1 1.5-4.2 1.1-.9 1.9-2.2 2.8-3.3.6-.1 1 .3 1.2.7zm.4 13.3c.2.4.6.9.3 1.4-.4.3-1.1.1-1.6.1-.6-.3-.8-1.1-.8-1.8 0-.2 0-.3.2-.5.7 0 1.4.2 1.9.8zm15-30.6c.3.4 0 .8-.2 1.1-1.4 1.3-3.1 2.7-4.1 4.3-.4.5-.7 1.1-.9 1.7 0 .1-.1.1-.2.1-.3-.8.1-1.7.3-2.5.7-1.9 2.3-3.7 4-5 .2-.1.9-.2 1.1.3zm5.7-6.4c1.1.7 1.5 2.2 2.8 2.5 2.2.5 4.4 1 6.4 2 1.4.7 2.7 1.7 4 2.8 1.2.6 2.7.6 4 1 1.9.5 3.4 1.9 5.1 3 2.2 1.7 5.3 1.5 7.8 2.6 4 1.3 7.2 4.4 10.9 6.2 1.9 1 4.8 1.4 6.7.3 1.3-.9 2.1-2.1 1.8-3.8-.7-4.1-5.2-6.2-7.3-9.6-.4-.8-.7-1.9-.5-2.8.8-2 2.9-3.1 4.7-3.8 1.4-.7 3.2-.5 4.5-1.3.5-.3.9-.7 1.2-1 .3 0 .3.3.4.5.4 2.4 0 4.9-2.1 6.3-.8.6-1.8.8-2.7 1-.8.3-2.4-.3-2.3 1.1.2.7.8 1.1 1.3 1.6 2.8 2.3 5.4 5.3 5.7 8.9.1 2.8-1.8 5.2-4.2 6.4-1.8.7-4 1-5.9.5-.5-.1-1.3-.6-1.7.1-.1.8.4 1.4.4 2.1.2 1.3.2 3-.2 4.3-.2 1-1.2 2.2-.3 3.2.9 1.4 2.7 1 4.2 1.2.8.1 1.1 1 1.3 1.6.3.8.3 1.7.6 2.3 0 1.5 1.7 2.1 2.5 3.1 1 1.1 1.9 3 3.6 2.9.6 1.2.9 2.3 1.1 3.7l-.2.2c-1.4 0-3.3.4-4.3-.6-1.2-.8-1.6-3-3.4-2.4-.8.6-1.9.8-2.8.4-.9-.3-1.5-1.1-2.3-1.6-2.4-1.8-5.6-2.7-8.7-2-1.8.5-3.2-.8-4.6-1.6-1.9-.8-2.4-2.8-2.8-4.5l-.3-2.1c0-.2.2-.4.4-.5h.3c1.1 2.5 3.2 5.3 5.9 6.2 2.5 1 4.8-.3 7.5.2 2.5.3 4.5 1.9 6.4 3.4.2 0 .3-.1.4-.3v-.2c-2.3-2.9-5.5-4.4-9.2-4.1-3.1.6-6.1-.4-7.9-3-1-1.5-1.7-3.1-2-4.8-.3-2-.7-4.2-1.4-6-.2-.1-.4-.3-.6-.2l-.2.3c.3 1.9.9 4.2.2 6.2-.5 1.6-2.1 2.2-3.6 2.3s-2.9-.2-4.5-.2c-3.6-.1-6.8 1.3-10.5 1 .3-.9.9-1.8.6-2.8-.1-.2-.4-.2-.6-.2-.7.4-.6 1.3-1 1.9-.8 1.3-2.3 2.5-3.8 2.8-1.1.8-2.1 1.9-3 2.9-.3.3-.3.9-.2 1.3.7 1.8 2.8 2 4.4 2.5.8.1 1.5-.2 1.9-.9.7-1.1.8-2.9 2.4-3.1h3.5c.3.1.5.3.7.6l-.1.5c-.8.9-1.1 2.2-2.1 2.8-.6.2-1.3 0-1.7.5-.2 1.2-.5 2.5-1.7 3.1-.9.8-2.2.4-3.2.1-1.9-.7-3.8-1.1-5.7-1.7-.8-.2-1.1-1.2-2-1.4-.8-.2-1.7.4-2.4-.3-.4-.9-.6-1.5-.8-2.5-.3-.6-.5-1.3-.6-2-.1-.6 0-1 .2-1.5l2.6-4.7c.2-.3.4-.6.7-.7.6.1 1.3.4 1.9.7l-.1.3-2.7 4.1c-.6 1.3 0 2.8.6 3.9.1.1.2.3.3.2-.1-.8-.2-1.6 0-2.5.2-.8.7-1.5 1.1-2.2l2.1-3.1c.2-.5.2-1.3-.2-1.8-.9-.9-2.2-1.2-3-2.4-1.7-2.3-1.9-5-2.1-7.9 0-.2-.2-.5-.5-.6-.2-.1-.4.2-.5.3-.5 1.9-.2 4.2.3 5.9.3 1.3.9 2.6 1.5 3.8.1.2-.1.5-.3.6-1.4.1-2.8 0-4.1-.2-1.8-.3-3.1-1.7-4.6-2.8-.2-.1-.3.1-.4.2.4 2 2.6 3.2 3.3 5 .4 1.5 1.9 2.6 2.2 4.2 0 .2-.2.5-.4.6-.5.1-1-.2-1.5.1-.1.9.5 1.8.1 2.6-.5.8-1.2 1.7-2.1 1.7-1.8-.6-3.6-1.4-5.4-1.9-1.3-.1-2.6.1-3.8.2-1.2-.2-2-1.3-2.9-1.9-.3-.1-.6-.1-.8.1-2 2-4.2 4.2-7.2 4.1-.2 0-.3-.2-.3-.4v-.2c1.3-1.2 2.9-2.4 3.5-4.1.4-1.4 1.6-2.4 2.1-3.7.1-.2-.1-.3-.3-.4l-.3.2c-1.5 1.5-2.6 3.2-3.7 4.8-1.1 1.1-2.7 1.8-4.4 1.4-.2-.1-.2-.4-.1-.6 6.2-3.8 6.9-10.6 8.6-16.8 1.2-4.1 2.1-8.3 5.3-11.6 4.8-5.3 10.8-8.4 16.1-13 .8-.7 1.6-1.4 2.6-1.4 2.6-.2 4.6.8 6.4 2.3zm57.1 44.2c.5.7.3 1.8.5 2.6.1.6.9 1.1.5 1.7l-2.2.7c-.4 0-.2-.5-.4-.7-.2-1.3-.5-2.2-.9-3.4-.1-.7.6-1.2 1.1-1.6.5-.2.9.4 1.4.7zm-5.1-4.5c.8.7 1.9 1.2 2.5 2.1.1.4-.2.8-.4 1.1-.3.3-.7.5-1.2.5s-.9-.3-1.2-.7c-.5-.8-1.2-1.5-1.4-2.3.3-.5 1-1.3 1.7-.7zm-48.2-.8c-.1 1-.4 1.9-.8 2.8-.3.6-1.2.4-1.8.3-.6-.2-1.6-.3-1.7-1.2-.1-.8.3-1.6.7-2.2.9-.1 2 .1 2.9-.1.4 0 .7.1.7.4z" stroke="#000" stroke-width="1.6" mask="url(#B)"/></svg>