<svg viewBox="0 0 225 83" fill="none" xmlns="http://www.w3.org/2000/svg">
<path d="M74.7969 44.2C74.7969 22.8 92.0969 5.5 113.497 5.5C134.897 5.5 152.197 22.8 152.197 44.2C152.197 65.6 134.897 82.9 113.497 82.9C92.0969 82.9 74.7969 65.5 74.7969 44.2Z" fill="black"/>
<mask id="path-2-outside-1_744_240" maskUnits="userSpaceOnUse" x="11.6094" y="18.1992" width="100" height="55" fill="black">
<rect fill="white" x="11.6094" y="18.1992" width="100" height="55"/>
<path fill-rule="evenodd" clip-rule="evenodd" d="M81.3983 33.7992C81.9983 35.2992 81.9983 37.2992 81.5983 38.8992C81.4983 38.9992 81.3983 38.9992 81.2983 38.8992C80.9983 37.4992 80.6983 36.0992 80.1983 34.6992C79.8983 33.8992 78.8983 33.1992 79.2983 32.2992C79.4983 32.0992 79.8983 32.0992 80.1983 32.1992C80.6983 32.6992 80.9983 33.1992 81.3983 33.7992ZM97.3983 47.7992C98.4983 49.0992 99.2983 50.4992 98.8983 52.1992C98.6983 52.4992 98.7983 53.0992 98.2983 53.1992C98.0983 53.2992 97.8983 53.0992 97.8983 52.8992C97.7983 51.9992 97.7983 50.9992 97.2983 50.2992C96.6983 49.6992 95.9983 48.4992 94.9983 48.4992C94.2983 48.6992 93.7983 49.4992 93.3983 49.9992C93.3983 50.0992 93.2983 50.0992 93.1983 49.9992C92.7983 48.9992 93.5983 48.1992 93.8983 47.3992C94.4983 46.7992 94.3983 45.0992 95.6983 45.5992C96.5983 46.1992 96.7983 47.1992 97.3983 47.7992ZM95.2983 59.6992C95.3983 60.2992 95.3983 61.1992 94.7983 61.5992C94.1983 61.7992 93.3983 61.8992 92.6983 61.7992C92.4983 61.6992 92.2983 61.5992 92.3983 61.3992C92.6983 60.4992 93.5983 59.4992 94.5983 59.2992C94.7983 59.2992 95.1983 59.2992 95.2983 59.6992ZM22.2983 23.1992C24.6983 23.7992 27.2983 23.7992 29.0983 25.6992C30.0983 26.8992 30.1983 28.9992 29.3983 30.1992C27.9983 32.5992 25.1983 33.7992 23.4983 35.8992C21.7983 37.2992 21.1983 39.4992 21.6983 41.6992C22.2983 43.5992 24.1983 44.8992 26.0983 44.9992C29.0983 45.0992 31.2983 43.5992 33.6983 42.1992C36.0983 40.4992 38.2983 38.2992 40.9983 37.5992C42.7983 36.9992 44.7983 37.2992 46.5983 36.5992C48.4983 36.1992 49.9983 34.5992 51.4983 33.1992C53.1983 31.7992 55.1983 30.9992 57.3983 31.0992C59.3983 31.3992 60.4983 29.5992 61.8983 28.3992C64.1983 26.2992 67.1983 26.0992 69.8983 24.8992C71.7983 24.2992 73.2983 22.8992 75.0983 21.9992C76.7983 21.2992 79.0983 21.0992 80.7983 21.7992C81.8983 22.2992 83.0983 22.7992 84.0983 23.5992L92.1983 30.3992C92.2983 30.6992 92.5983 30.8992 92.7983 30.9992C95.0983 33.7992 97.4983 36.4992 99.3983 39.5992C99.9983 40.6992 100.298 41.7992 100.598 42.9992C100.998 47.5992 102.198 51.5992 103.698 55.5992C104.098 56.1992 104.898 56.6992 105.298 57.2992C106.598 59.0992 107.398 61.3992 109.498 62.5992L110.698 63.1992C110.798 63.2992 110.798 63.4992 110.698 63.5992L110.498 63.7992C107.998 64.1992 106.098 62.6992 104.798 60.8992C103.998 59.2992 102.898 57.5992 101.098 56.8992C100.998 56.8992 100.898 56.9992 100.898 56.9992C101.098 57.5992 101.698 57.9992 101.898 58.4992C102.598 59.5992 103.198 60.7992 103.498 61.9992C103.898 63.2992 105.298 64.1992 106.398 64.8992L107.998 65.6992C108.198 65.7992 108.298 66.0992 108.098 66.2992L107.898 66.3992C105.198 66.4992 102.798 65.5992 100.898 63.5992C100.498 63.0992 99.8983 62.6992 99.1983 62.6992C97.9983 63.7992 96.7983 64.7992 95.1983 64.8992C93.4983 64.5992 91.6983 64.5992 90.1983 65.1992C88.7983 65.6992 87.3983 66.2992 85.8983 66.2992C85.1983 66.2992 84.3983 65.9992 84.0983 65.2992C84.0983 64.3992 83.4983 63.3992 83.9983 62.4992L84.9983 60.9992C84.9983 60.7992 84.8983 60.5992 84.6983 60.5992C84.2983 60.4992 83.5983 61.1992 83.3983 60.4992C83.4983 58.9992 84.9983 57.9992 85.9983 56.9992C86.1983 55.7992 86.6983 54.6992 87.5983 53.6992C87.5983 53.5992 87.4983 53.3992 87.2983 53.3992C85.9983 53.5992 84.6983 53.8992 83.2983 53.8992C82.1983 54.4992 80.7983 54.8992 79.4983 54.4992C79.1983 54.2992 79.2983 53.9992 79.3983 53.7992C80.7983 51.8992 81.2983 49.4992 80.8983 47.1992C80.7983 47.0992 80.7983 46.8992 80.5983 46.8992C80.3983 46.8992 80.3983 47.0992 80.2983 47.1992C79.9983 49.3992 79.2983 51.0992 78.0983 52.9992C77.1983 53.8992 75.7983 53.8992 74.5983 54.1992C74.2983 54.2992 73.9983 54.5992 73.9983 54.8992C73.9983 55.6992 74.4983 56.1992 74.7983 56.8992L77.3983 61.6992C77.4983 62.9992 76.8983 64.2992 76.5983 65.4992C76.6983 65.6992 76.8983 65.5992 77.0983 65.4992C77.9983 64.6992 78.5983 63.5992 78.9983 62.3992C79.0983 61.8992 78.8983 61.2992 78.6983 60.8992L75.9983 55.4992C76.1983 55.1992 76.5983 55.1992 76.8983 55.0992C77.4983 55.0992 78.0983 55.3992 78.6983 55.5992C79.2983 57.1992 79.9983 58.8992 81.0983 60.2992C81.2983 61.1992 81.5983 62.3992 80.9983 63.0992C80.3983 64.2992 79.7983 65.2992 78.9983 66.3992C78.2983 67.0992 77.2983 66.9992 76.2983 67.0992H75.9983C73.5983 68.3992 71.0983 69.1992 68.4983 69.9992C67.3983 70.4992 66.0983 70.0992 65.1983 69.3992C64.2983 68.6992 63.8983 67.6992 63.2983 66.7992C62.5983 65.8992 61.4983 66.6992 60.6983 66.1992C59.9983 65.0992 59.2983 63.9992 58.6983 62.7992C58.6983 62.4992 58.6983 62.1992 58.9983 61.9992C59.8983 61.6992 60.8983 61.6992 61.8983 61.5992C62.7983 61.4992 63.7983 61.6992 64.3983 62.2992C65.5983 63.6992 66.0983 65.5992 67.8983 66.4992C69.2983 66.5992 70.4983 66.1992 71.6983 65.5992C72.3983 65.1992 73.1983 64.5992 73.1983 63.6992C73.0983 61.8992 71.8983 60.4992 70.3983 59.4992C68.8983 58.6992 67.2983 57.5992 66.1983 56.1992C65.5983 55.3992 65.4983 54.4992 65.1983 53.6992C65.0983 53.4992 64.6983 53.4992 64.5983 53.5992C63.9983 54.0992 64.4983 54.9992 64.4983 55.5992C64.5983 55.9992 64.7983 56.4992 64.5983 56.7992C63.6983 57.4992 62.4983 57.0992 61.3983 57.1992C59.1983 57.0992 57.0983 56.1992 54.7983 56.3992C52.5983 56.4992 49.5983 57.9992 47.9983 55.7992C47.1983 53.6992 47.3983 51.1992 47.7983 49.0992C47.7983 48.8992 47.5983 48.6992 47.3983 48.6992C47.1983 48.5992 46.9983 48.6992 46.8983 48.8992C46.2983 50.9992 46.1983 53.2992 45.6983 55.4992C44.8983 57.3992 43.4983 59.3992 41.5983 60.3992C39.8983 61.2992 37.8983 61.5992 35.7983 61.7992C31.9983 61.8992 28.4983 62.5992 26.0983 65.8992C25.8983 66.1992 25.5983 66.4992 25.6983 66.8992C25.7983 66.9992 26.0983 67.0992 26.1983 66.9992C28.7983 64.0992 32.0983 62.8992 35.8983 63.0992C39.4983 63.0992 43.0983 62.4992 45.3983 59.3992C45.9983 58.6992 46.3983 57.9992 46.8983 57.1992C47.2983 57.1992 47.5983 57.6992 47.8983 57.8992C47.9983 58.9992 47.0983 59.6992 46.6983 60.5992C46.1983 61.5992 45.6983 62.7992 44.6983 63.3992C43.4983 63.6992 42.4983 64.4992 41.3983 65.0992C40.2983 65.5992 38.8983 65.7992 37.5983 65.4992C35.9983 65.1992 33.7983 64.7992 32.1983 65.4992C31.3983 65.9992 30.6983 66.8992 29.8983 67.3992C28.7983 67.8992 27.7983 68.7992 26.4983 68.6992C25.5983 68.4992 24.4983 67.8992 23.6983 68.6992C22.6983 69.5992 22.4983 71.1992 21.1983 71.7992C19.6983 72.5992 18.0983 71.7992 16.5983 71.6992C16.7983 70.1992 16.9983 68.7992 17.9983 67.6992C18.5983 67.5992 19.0983 67.4992 19.5983 67.0992C20.1983 66.5992 20.5983 65.8992 20.9983 65.1992C22.2983 64.3992 23.7983 63.7992 24.5983 62.3992C25.1983 61.0992 25.1983 59.8992 26.1983 58.6992L26.6983 58.4992L29.3983 58.2992C30.4983 57.7992 31.4983 57.2992 32.4983 56.4992C32.7983 56.1992 32.8983 55.6992 32.7983 55.1992C32.2983 53.8992 31.8983 52.9992 31.5983 51.5992C31.2983 50.1992 31.4983 48.7992 31.2983 47.1992C31.1983 47.0992 31.0983 46.7992 30.8983 46.7992C29.0983 47.1992 27.3983 47.6992 25.3983 47.3992C22.6983 47.0992 19.8983 45.2992 18.8983 42.5992C17.9983 40.2992 18.1983 36.9992 19.8983 35.0992C21.4983 33.0992 23.4983 31.5992 25.4983 29.8992C25.7983 29.6992 25.7983 29.2992 25.8983 28.9992C25.8983 28.5992 25.4983 28.2992 25.1983 28.0992C23.9983 27.7992 22.5983 28.1992 21.3983 27.6992C19.2983 26.9992 17.6983 24.9992 17.3983 22.7992C17.2983 21.7992 17.4983 20.9992 17.9983 20.1992C19.5983 21.5992 20.7983 22.7992 22.2983 23.1992ZM16.2983 67.8992V68.1992C15.7983 69.3992 15.4983 70.7992 15.0983 72.1992C14.1983 72.0992 13.3983 71.7992 12.6983 71.4992C12.4983 71.2992 12.6983 71.0992 12.6983 70.8992C13.5983 70.0992 13.2983 69.0992 13.4983 67.9992C13.5983 67.3992 14.1983 66.8992 14.7983 66.5992C15.4983 66.6992 15.8983 67.3992 16.2983 67.8992ZM20.6983 63.6992C20.1983 64.6992 19.4983 65.8992 18.3983 66.4992C17.9983 66.5992 17.4983 66.5992 17.0983 66.3992C16.8983 66.1992 16.4983 65.9992 16.4983 65.5992C16.5983 65.1992 16.3983 64.6992 16.7983 64.4992C17.5983 63.9992 18.3983 63.4992 19.1983 62.7992C19.3983 62.6992 19.7983 62.5992 19.8983 62.7992C20.2983 63.0992 20.5983 63.2992 20.6983 63.6992ZM70.7983 63.2992C70.8983 63.6992 71.4983 64.1992 71.0983 64.5992C70.2983 65.1992 69.3983 65.5992 68.2983 65.4992C67.4983 64.8992 67.5983 63.7992 66.8983 62.9992C66.6983 62.3992 65.7983 62.3992 65.9983 61.7992L66.2983 61.5992C67.3983 61.5992 68.4983 61.5992 69.5983 61.3992C70.6983 61.2992 70.3983 62.5992 70.7983 63.2992Z"/>
</mask>
<path fill-rule="evenodd" clip-rule="evenodd" d="M81.3983 33.7992C81.9983 35.2992 81.9983 37.2992 81.5983 38.8992C81.4983 38.9992 81.3983 38.9992 81.2983 38.8992C80.9983 37.4992 80.6983 36.0992 80.1983 34.6992C79.8983 33.8992 78.8983 33.1992 79.2983 32.2992C79.4983 32.0992 79.8983 32.0992 80.1983 32.1992C80.6983 32.6992 80.9983 33.1992 81.3983 33.7992ZM97.3983 47.7992C98.4983 49.0992 99.2983 50.4992 98.8983 52.1992C98.6983 52.4992 98.7983 53.0992 98.2983 53.1992C98.0983 53.2992 97.8983 53.0992 97.8983 52.8992C97.7983 51.9992 97.7983 50.9992 97.2983 50.2992C96.6983 49.6992 95.9983 48.4992 94.9983 48.4992C94.2983 48.6992 93.7983 49.4992 93.3983 49.9992C93.3983 50.0992 93.2983 50.0992 93.1983 49.9992C92.7983 48.9992 93.5983 48.1992 93.8983 47.3992C94.4983 46.7992 94.3983 45.0992 95.6983 45.5992C96.5983 46.1992 96.7983 47.1992 97.3983 47.7992ZM95.2983 59.6992C95.3983 60.2992 95.3983 61.1992 94.7983 61.5992C94.1983 61.7992 93.3983 61.8992 92.6983 61.7992C92.4983 61.6992 92.2983 61.5992 92.3983 61.3992C92.6983 60.4992 93.5983 59.4992 94.5983 59.2992C94.7983 59.2992 95.1983 59.2992 95.2983 59.6992ZM22.2983 23.1992C24.6983 23.7992 27.2983 23.7992 29.0983 25.6992C30.0983 26.8992 30.1983 28.9992 29.3983 30.1992C27.9983 32.5992 25.1983 33.7992 23.4983 35.8992C21.7983 37.2992 21.1983 39.4992 21.6983 41.6992C22.2983 43.5992 24.1983 44.8992 26.0983 44.9992C29.0983 45.0992 31.2983 43.5992 33.6983 42.1992C36.0983 40.4992 38.2983 38.2992 40.9983 37.5992C42.7983 36.9992 44.7983 37.2992 46.5983 36.5992C48.4983 36.1992 49.9983 34.5992 51.4983 33.1992C53.1983 31.7992 55.1983 30.9992 57.3983 31.0992C59.3983 31.3992 60.4983 29.5992 61.8983 28.3992C64.1983 26.2992 67.1983 26.0992 69.8983 24.8992C71.7983 24.2992 73.2983 22.8992 75.0983 21.9992C76.7983 21.2992 79.0983 21.0992 80.7983 21.7992C81.8983 22.2992 83.0983 22.7992 84.0983 23.5992L92.1983 30.3992C92.2983 30.6992 92.5983 30.8992 92.7983 30.9992C95.0983 33.7992 97.4983 36.4992 99.3983 39.5992C99.9983 40.6992 100.298 41.7992 100.598 42.9992C100.998 47.5992 102.198 51.5992 103.698 55.5992C104.098 56.1992 104.898 56.6992 105.298 57.2992C106.598 59.0992 107.398 61.3992 109.498 62.5992L110.698 63.1992C110.798 63.2992 110.798 63.4992 110.698 63.5992L110.498 63.7992C107.998 64.1992 106.098 62.6992 104.798 60.8992C103.998 59.2992 102.898 57.5992 101.098 56.8992C100.998 56.8992 100.898 56.9992 100.898 56.9992C101.098 57.5992 101.698 57.9992 101.898 58.4992C102.598 59.5992 103.198 60.7992 103.498 61.9992C103.898 63.2992 105.298 64.1992 106.398 64.8992L107.998 65.6992C108.198 65.7992 108.298 66.0992 108.098 66.2992L107.898 66.3992C105.198 66.4992 102.798 65.5992 100.898 63.5992C100.498 63.0992 99.8983 62.6992 99.1983 62.6992C97.9983 63.7992 96.7983 64.7992 95.1983 64.8992C93.4983 64.5992 91.6983 64.5992 90.1983 65.1992C88.7983 65.6992 87.3983 66.2992 85.8983 66.2992C85.1983 66.2992 84.3983 65.9992 84.0983 65.2992C84.0983 64.3992 83.4983 63.3992 83.9983 62.4992L84.9983 60.9992C84.9983 60.7992 84.8983 60.5992 84.6983 60.5992C84.2983 60.4992 83.5983 61.1992 83.3983 60.4992C83.4983 58.9992 84.9983 57.9992 85.9983 56.9992C86.1983 55.7992 86.6983 54.6992 87.5983 53.6992C87.5983 53.5992 87.4983 53.3992 87.2983 53.3992C85.9983 53.5992 84.6983 53.8992 83.2983 53.8992C82.1983 54.4992 80.7983 54.8992 79.4983 54.4992C79.1983 54.2992 79.2983 53.9992 79.3983 53.7992C80.7983 51.8992 81.2983 49.4992 80.8983 47.1992C80.7983 47.0992 80.7983 46.8992 80.5983 46.8992C80.3983 46.8992 80.3983 47.0992 80.2983 47.1992C79.9983 49.3992 79.2983 51.0992 78.0983 52.9992C77.1983 53.8992 75.7983 53.8992 74.5983 54.1992C74.2983 54.2992 73.9983 54.5992 73.9983 54.8992C73.9983 55.6992 74.4983 56.1992 74.7983 56.8992L77.3983 61.6992C77.4983 62.9992 76.8983 64.2992 76.5983 65.4992C76.6983 65.6992 76.8983 65.5992 77.0983 65.4992C77.9983 64.6992 78.5983 63.5992 78.9983 62.3992C79.0983 61.8992 78.8983 61.2992 78.6983 60.8992L75.9983 55.4992C76.1983 55.1992 76.5983 55.1992 76.8983 55.0992C77.4983 55.0992 78.0983 55.3992 78.6983 55.5992C79.2983 57.1992 79.9983 58.8992 81.0983 60.2992C81.2983 61.1992 81.5983 62.3992 80.9983 63.0992C80.3983 64.2992 79.7983 65.2992 78.9983 66.3992C78.2983 67.0992 77.2983 66.9992 76.2983 67.0992H75.9983C73.5983 68.3992 71.0983 69.1992 68.4983 69.9992C67.3983 70.4992 66.0983 70.0992 65.1983 69.3992C64.2983 68.6992 63.8983 67.6992 63.2983 66.7992C62.5983 65.8992 61.4983 66.6992 60.6983 66.1992C59.9983 65.0992 59.2983 63.9992 58.6983 62.7992C58.6983 62.4992 58.6983 62.1992 58.9983 61.9992C59.8983 61.6992 60.8983 61.6992 61.8983 61.5992C62.7983 61.4992 63.7983 61.6992 64.3983 62.2992C65.5983 63.6992 66.0983 65.5992 67.8983 66.4992C69.2983 66.5992 70.4983 66.1992 71.6983 65.5992C72.3983 65.1992 73.1983 64.5992 73.1983 63.6992C73.0983 61.8992 71.8983 60.4992 70.3983 59.4992C68.8983 58.6992 67.2983 57.5992 66.1983 56.1992C65.5983 55.3992 65.4983 54.4992 65.1983 53.6992C65.0983 53.4992 64.6983 53.4992 64.5983 53.5992C63.9983 54.0992 64.4983 54.9992 64.4983 55.5992C64.5983 55.9992 64.7983 56.4992 64.5983 56.7992C63.6983 57.4992 62.4983 57.0992 61.3983 57.1992C59.1983 57.0992 57.0983 56.1992 54.7983 56.3992C52.5983 56.4992 49.5983 57.9992 47.9983 55.7992C47.1983 53.6992 47.3983 51.1992 47.7983 49.0992C47.7983 48.8992 47.5983 48.6992 47.3983 48.6992C47.1983 48.5992 46.9983 48.6992 46.8983 48.8992C46.2983 50.9992 46.1983 53.2992 45.6983 55.4992C44.8983 57.3992 43.4983 59.3992 41.5983 60.3992C39.8983 61.2992 37.8983 61.5992 35.7983 61.7992C31.9983 61.8992 28.4983 62.5992 26.0983 65.8992C25.8983 66.1992 25.5983 66.4992 25.6983 66.8992C25.7983 66.9992 26.0983 67.0992 26.1983 66.9992C28.7983 64.0992 32.0983 62.8992 35.8983 63.0992C39.4983 63.0992 43.0983 62.4992 45.3983 59.3992C45.9983 58.6992 46.3983 57.9992 46.8983 57.1992C47.2983 57.1992 47.5983 57.6992 47.8983 57.8992C47.9983 58.9992 47.0983 59.6992 46.6983 60.5992C46.1983 61.5992 45.6983 62.7992 44.6983 63.3992C43.4983 63.6992 42.4983 64.4992 41.3983 65.0992C40.2983 65.5992 38.8983 65.7992 37.5983 65.4992C35.9983 65.1992 33.7983 64.7992 32.1983 65.4992C31.3983 65.9992 30.6983 66.8992 29.8983 67.3992C28.7983 67.8992 27.7983 68.7992 26.4983 68.6992C25.5983 68.4992 24.4983 67.8992 23.6983 68.6992C22.6983 69.5992 22.4983 71.1992 21.1983 71.7992C19.6983 72.5992 18.0983 71.7992 16.5983 71.6992C16.7983 70.1992 16.9983 68.7992 17.9983 67.6992C18.5983 67.5992 19.0983 67.4992 19.5983 67.0992C20.1983 66.5992 20.5983 65.8992 20.9983 65.1992C22.2983 64.3992 23.7983 63.7992 24.5983 62.3992C25.1983 61.0992 25.1983 59.8992 26.1983 58.6992L26.6983 58.4992L29.3983 58.2992C30.4983 57.7992 31.4983 57.2992 32.4983 56.4992C32.7983 56.1992 32.8983 55.6992 32.7983 55.1992C32.2983 53.8992 31.8983 52.9992 31.5983 51.5992C31.2983 50.1992 31.4983 48.7992 31.2983 47.1992C31.1983 47.0992 31.0983 46.7992 30.8983 46.7992C29.0983 47.1992 27.3983 47.6992 25.3983 47.3992C22.6983 47.0992 19.8983 45.2992 18.8983 42.5992C17.9983 40.2992 18.1983 36.9992 19.8983 35.0992C21.4983 33.0992 23.4983 31.5992 25.4983 29.8992C25.7983 29.6992 25.7983 29.2992 25.8983 28.9992C25.8983 28.5992 25.4983 28.2992 25.1983 28.0992C23.9983 27.7992 22.5983 28.1992 21.3983 27.6992C19.2983 26.9992 17.6983 24.9992 17.3983 22.7992C17.2983 21.7992 17.4983 20.9992 17.9983 20.1992C19.5983 21.5992 20.7983 22.7992 22.2983 23.1992ZM16.2983 67.8992V68.1992C15.7983 69.3992 15.4983 70.7992 15.0983 72.1992C14.1983 72.0992 13.3983 71.7992 12.6983 71.4992C12.4983 71.2992 12.6983 71.0992 12.6983 70.8992C13.5983 70.0992 13.2983 69.0992 13.4983 67.9992C13.5983 67.3992 14.1983 66.8992 14.7983 66.5992C15.4983 66.6992 15.8983 67.3992 16.2983 67.8992ZM20.6983 63.6992C20.1983 64.6992 19.4983 65.8992 18.3983 66.4992C17.9983 66.5992 17.4983 66.5992 17.0983 66.3992C16.8983 66.1992 16.4983 65.9992 16.4983 65.5992C16.5983 65.1992 16.3983 64.6992 16.7983 64.4992C17.5983 63.9992 18.3983 63.4992 19.1983 62.7992C19.3983 62.6992 19.7983 62.5992 19.8983 62.7992C20.2983 63.0992 20.5983 63.2992 20.6983 63.6992ZM70.7983 63.2992C70.8983 63.6992 71.4983 64.1992 71.0983 64.5992C70.2983 65.1992 69.3983 65.5992 68.2983 65.4992C67.4983 64.8992 67.5983 63.7992 66.8983 62.9992C66.6983 62.3992 65.7983 62.3992 65.9983 61.7992L66.2983 61.5992C67.3983 61.5992 68.4983 61.5992 69.5983 61.3992C70.6983 61.2992 70.3983 62.5992 70.7983 63.2992Z" fill="black"/>
<path fill-rule="evenodd" clip-rule="evenodd" d="M81.3983 33.7992C81.9983 35.2992 81.9983 37.2992 81.5983 38.8992C81.4983 38.9992 81.3983 38.9992 81.2983 38.8992C80.9983 37.4992 80.6983 36.0992 80.1983 34.6992C79.8983 33.8992 78.8983 33.1992 79.2983 32.2992C79.4983 32.0992 79.8983 32.0992 80.1983 32.1992C80.6983 32.6992 80.9983 33.1992 81.3983 33.7992ZM97.3983 47.7992C98.4983 49.0992 99.2983 50.4992 98.8983 52.1992C98.6983 52.4992 98.7983 53.0992 98.2983 53.1992C98.0983 53.2992 97.8983 53.0992 97.8983 52.8992C97.7983 51.9992 97.7983 50.9992 97.2983 50.2992C96.6983 49.6992 95.9983 48.4992 94.9983 48.4992C94.2983 48.6992 93.7983 49.4992 93.3983 49.9992C93.3983 50.0992 93.2983 50.0992 93.1983 49.9992C92.7983 48.9992 93.5983 48.1992 93.8983 47.3992C94.4983 46.7992 94.3983 45.0992 95.6983 45.5992C96.5983 46.1992 96.7983 47.1992 97.3983 47.7992ZM95.2983 59.6992C95.3983 60.2992 95.3983 61.1992 94.7983 61.5992C94.1983 61.7992 93.3983 61.8992 92.6983 61.7992C92.4983 61.6992 92.2983 61.5992 92.3983 61.3992C92.6983 60.4992 93.5983 59.4992 94.5983 59.2992C94.7983 59.2992 95.1983 59.2992 95.2983 59.6992ZM22.2983 23.1992C24.6983 23.7992 27.2983 23.7992 29.0983 25.6992C30.0983 26.8992 30.1983 28.9992 29.3983 30.1992C27.9983 32.5992 25.1983 33.7992 23.4983 35.8992C21.7983 37.2992 21.1983 39.4992 21.6983 41.6992C22.2983 43.5992 24.1983 44.8992 26.0983 44.9992C29.0983 45.0992 31.2983 43.5992 33.6983 42.1992C36.0983 40.4992 38.2983 38.2992 40.9983 37.5992C42.7983 36.9992 44.7983 37.2992 46.5983 36.5992C48.4983 36.1992 49.9983 34.5992 51.4983 33.1992C53.1983 31.7992 55.1983 30.9992 57.3983 31.0992C59.3983 31.3992 60.4983 29.5992 61.8983 28.3992C64.1983 26.2992 67.1983 26.0992 69.8983 24.8992C71.7983 24.2992 73.2983 22.8992 75.0983 21.9992C76.7983 21.2992 79.0983 21.0992 80.7983 21.7992C81.8983 22.2992 83.0983 22.7992 84.0983 23.5992L92.1983 30.3992C92.2983 30.6992 92.5983 30.8992 92.7983 30.9992C95.0983 33.7992 97.4983 36.4992 99.3983 39.5992C99.9983 40.6992 100.298 41.7992 100.598 42.9992C100.998 47.5992 102.198 51.5992 103.698 55.5992C104.098 56.1992 104.898 56.6992 105.298 57.2992C106.598 59.0992 107.398 61.3992 109.498 62.5992L110.698 63.1992C110.798 63.2992 110.798 63.4992 110.698 63.5992L110.498 63.7992C107.998 64.1992 106.098 62.6992 104.798 60.8992C103.998 59.2992 102.898 57.5992 101.098 56.8992C100.998 56.8992 100.898 56.9992 100.898 56.9992C101.098 57.5992 101.698 57.9992 101.898 58.4992C102.598 59.5992 103.198 60.7992 103.498 61.9992C103.898 63.2992 105.298 64.1992 106.398 64.8992L107.998 65.6992C108.198 65.7992 108.298 66.0992 108.098 66.2992L107.898 66.3992C105.198 66.4992 102.798 65.5992 100.898 63.5992C100.498 63.0992 99.8983 62.6992 99.1983 62.6992C97.9983 63.7992 96.7983 64.7992 95.1983 64.8992C93.4983 64.5992 91.6983 64.5992 90.1983 65.1992C88.7983 65.6992 87.3983 66.2992 85.8983 66.2992C85.1983 66.2992 84.3983 65.9992 84.0983 65.2992C84.0983 64.3992 83.4983 63.3992 83.9983 62.4992L84.9983 60.9992C84.9983 60.7992 84.8983 60.5992 84.6983 60.5992C84.2983 60.4992 83.5983 61.1992 83.3983 60.4992C83.4983 58.9992 84.9983 57.9992 85.9983 56.9992C86.1983 55.7992 86.6983 54.6992 87.5983 53.6992C87.5983 53.5992 87.4983 53.3992 87.2983 53.3992C85.9983 53.5992 84.6983 53.8992 83.2983 53.8992C82.1983 54.4992 80.7983 54.8992 79.4983 54.4992C79.1983 54.2992 79.2983 53.9992 79.3983 53.7992C80.7983 51.8992 81.2983 49.4992 80.8983 47.1992C80.7983 47.0992 80.7983 46.8992 80.5983 46.8992C80.3983 46.8992 80.3983 47.0992 80.2983 47.1992C79.9983 49.3992 79.2983 51.0992 78.0983 52.9992C77.1983 53.8992 75.7983 53.8992 74.5983 54.1992C74.2983 54.2992 73.9983 54.5992 73.9983 54.8992C73.9983 55.6992 74.4983 56.1992 74.7983 56.8992L77.3983 61.6992C77.4983 62.9992 76.8983 64.2992 76.5983 65.4992C76.6983 65.6992 76.8983 65.5992 77.0983 65.4992C77.9983 64.6992 78.5983 63.5992 78.9983 62.3992C79.0983 61.8992 78.8983 61.2992 78.6983 60.8992L75.9983 55.4992C76.1983 55.1992 76.5983 55.1992 76.8983 55.0992C77.4983 55.0992 78.0983 55.3992 78.6983 55.5992C79.2983 57.1992 79.9983 58.8992 81.0983 60.2992C81.2983 61.1992 81.5983 62.3992 80.9983 63.0992C80.3983 64.2992 79.7983 65.2992 78.9983 66.3992C78.2983 67.0992 77.2983 66.9992 76.2983 67.0992H75.9983C73.5983 68.3992 71.0983 69.1992 68.4983 69.9992C67.3983 70.4992 66.0983 70.0992 65.1983 69.3992C64.2983 68.6992 63.8983 67.6992 63.2983 66.7992C62.5983 65.8992 61.4983 66.6992 60.6983 66.1992C59.9983 65.0992 59.2983 63.9992 58.6983 62.7992C58.6983 62.4992 58.6983 62.1992 58.9983 61.9992C59.8983 61.6992 60.8983 61.6992 61.8983 61.5992C62.7983 61.4992 63.7983 61.6992 64.3983 62.2992C65.5983 63.6992 66.0983 65.5992 67.8983 66.4992C69.2983 66.5992 70.4983 66.1992 71.6983 65.5992C72.3983 65.1992 73.1983 64.5992 73.1983 63.6992C73.0983 61.8992 71.8983 60.4992 70.3983 59.4992C68.8983 58.6992 67.2983 57.5992 66.1983 56.1992C65.5983 55.3992 65.4983 54.4992 65.1983 53.6992C65.0983 53.4992 64.6983 53.4992 64.5983 53.5992C63.9983 54.0992 64.4983 54.9992 64.4983 55.5992C64.5983 55.9992 64.7983 56.4992 64.5983 56.7992C63.6983 57.4992 62.4983 57.0992 61.3983 57.1992C59.1983 57.0992 57.0983 56.1992 54.7983 56.3992C52.5983 56.4992 49.5983 57.9992 47.9983 55.7992C47.1983 53.6992 47.3983 51.1992 47.7983 49.0992C47.7983 48.8992 47.5983 48.6992 47.3983 48.6992C47.1983 48.5992 46.9983 48.6992 46.8983 48.8992C46.2983 50.9992 46.1983 53.2992 45.6983 55.4992C44.8983 57.3992 43.4983 59.3992 41.5983 60.3992C39.8983 61.2992 37.8983 61.5992 35.7983 61.7992C31.9983 61.8992 28.4983 62.5992 26.0983 65.8992C25.8983 66.1992 25.5983 66.4992 25.6983 66.8992C25.7983 66.9992 26.0983 67.0992 26.1983 66.9992C28.7983 64.0992 32.0983 62.8992 35.8983 63.0992C39.4983 63.0992 43.0983 62.4992 45.3983 59.3992C45.9983 58.6992 46.3983 57.9992 46.8983 57.1992C47.2983 57.1992 47.5983 57.6992 47.8983 57.8992C47.9983 58.9992 47.0983 59.6992 46.6983 60.5992C46.1983 61.5992 45.6983 62.7992 44.6983 63.3992C43.4983 63.6992 42.4983 64.4992 41.3983 65.0992C40.2983 65.5992 38.8983 65.7992 37.5983 65.4992C35.9983 65.1992 33.7983 64.7992 32.1983 65.4992C31.3983 65.9992 30.6983 66.8992 29.8983 67.3992C28.7983 67.8992 27.7983 68.7992 26.4983 68.6992C25.5983 68.4992 24.4983 67.8992 23.6983 68.6992C22.6983 69.5992 22.4983 71.1992 21.1983 71.7992C19.6983 72.5992 18.0983 71.7992 16.5983 71.6992C16.7983 70.1992 16.9983 68.7992 17.9983 67.6992C18.5983 67.5992 19.0983 67.4992 19.5983 67.0992C20.1983 66.5992 20.5983 65.8992 20.9983 65.1992C22.2983 64.3992 23.7983 63.7992 24.5983 62.3992C25.1983 61.0992 25.1983 59.8992 26.1983 58.6992L26.6983 58.4992L29.3983 58.2992C30.4983 57.7992 31.4983 57.2992 32.4983 56.4992C32.7983 56.1992 32.8983 55.6992 32.7983 55.1992C32.2983 53.8992 31.8983 52.9992 31.5983 51.5992C31.2983 50.1992 31.4983 48.7992 31.2983 47.1992C31.1983 47.0992 31.0983 46.7992 30.8983 46.7992C29.0983 47.1992 27.3983 47.6992 25.3983 47.3992C22.6983 47.0992 19.8983 45.2992 18.8983 42.5992C17.9983 40.2992 18.1983 36.9992 19.8983 35.0992C21.4983 33.0992 23.4983 31.5992 25.4983 29.8992C25.7983 29.6992 25.7983 29.2992 25.8983 28.9992C25.8983 28.5992 25.4983 28.2992 25.1983 28.0992C23.9983 27.7992 22.5983 28.1992 21.3983 27.6992C19.2983 26.9992 17.6983 24.9992 17.3983 22.7992C17.2983 21.7992 17.4983 20.9992 17.9983 20.1992C19.5983 21.5992 20.7983 22.7992 22.2983 23.1992ZM16.2983 67.8992V68.1992C15.7983 69.3992 15.4983 70.7992 15.0983 72.1992C14.1983 72.0992 13.3983 71.7992 12.6983 71.4992C12.4983 71.2992 12.6983 71.0992 12.6983 70.8992C13.5983 70.0992 13.2983 69.0992 13.4983 67.9992C13.5983 67.3992 14.1983 66.8992 14.7983 66.5992C15.4983 66.6992 15.8983 67.3992 16.2983 67.8992ZM20.6983 63.6992C20.1983 64.6992 19.4983 65.8992 18.3983 66.4992C17.9983 66.5992 17.4983 66.5992 17.0983 66.3992C16.8983 66.1992 16.4983 65.9992 16.4983 65.5992C16.5983 65.1992 16.3983 64.6992 16.7983 64.4992C17.5983 63.9992 18.3983 63.4992 19.1983 62.7992C19.3983 62.6992 19.7983 62.5992 19.8983 62.7992C20.2983 63.0992 20.5983 63.2992 20.6983 63.6992ZM70.7983 63.2992C70.8983 63.6992 71.4983 64.1992 71.0983 64.5992C70.2983 65.1992 69.3983 65.5992 68.2983 65.4992C67.4983 64.8992 67.5983 63.7992 66.8983 62.9992C66.6983 62.3992 65.7983 62.3992 65.9983 61.7992L66.2983 61.5992C67.3983 61.5992 68.4983 61.5992 69.5983 61.3992C70.6983 61.2992 70.3983 62.5992 70.7983 63.2992Z" stroke="white" stroke-width="1.6" mask="url(#path-2-outside-1_744_240)"/>
<mask id="path-3-outside-2_744_240" maskUnits="userSpaceOnUse" x="115.031" y="19.9727" width="100" height="54" fill="black">
<rect fill="white" x="115.031" y="19.9727" width="100" height="54"/>
<path fill-rule="evenodd" clip-rule="evenodd" d="M133.997 46.9981C134.597 47.7981 135.097 48.5981 135.497 49.5981C135.597 49.7981 135.497 49.9981 135.397 50.1981C135.297 50.3981 135.097 50.5981 134.797 50.3981C134.097 50.1981 134.197 49.0981 133.297 49.1981C132.697 49.1981 132.297 49.6981 131.797 49.9981C130.897 50.7981 129.697 51.5981 129.497 52.7981C129.297 53.1981 129.397 53.8981 128.997 54.0981C128.797 54.1981 128.497 53.9981 128.497 53.7981C128.397 52.1981 128.897 50.6981 129.997 49.5981C131.097 48.6981 131.897 47.3981 132.797 46.2981C133.397 46.1981 133.797 46.5981 133.997 46.9981ZM134.397 60.2981C134.597 60.6981 134.997 61.1981 134.697 61.6981C134.297 61.9981 133.597 61.7981 133.097 61.7981C132.497 61.4981 132.297 60.6981 132.297 59.9981C132.297 59.7981 132.297 59.6981 132.497 59.4981C133.197 59.4981 133.897 59.6981 134.397 60.2981ZM149.397 29.6981C149.697 30.0981 149.397 30.4981 149.197 30.7981C147.797 32.0981 146.097 33.4981 145.097 35.0981C144.697 35.5981 144.397 36.1981 144.197 36.7981C144.197 36.8981 144.097 36.8981 143.997 36.8981C143.697 36.0981 144.097 35.1981 144.297 34.3981C144.997 32.4981 146.597 30.6981 148.297 29.3981C148.497 29.2981 149.197 29.1981 149.397 29.6981ZM155.097 23.2981C156.197 23.9981 156.597 25.4981 157.897 25.7981C160.097 26.2981 162.297 26.7981 164.297 27.7981C165.697 28.4981 166.997 29.4981 168.297 30.5981C169.497 31.1981 170.997 31.1981 172.297 31.5981C174.197 32.0981 175.697 33.4981 177.397 34.5981C179.597 36.2981 182.697 36.0981 185.197 37.1981C189.197 38.4981 192.397 41.5981 196.097 43.3981C197.997 44.3981 200.897 44.7981 202.797 43.6981C204.097 42.7981 204.897 41.5981 204.597 39.8981C203.897 35.7981 199.397 33.6981 197.297 30.2981C196.897 29.4981 196.597 28.3981 196.797 27.4981C197.597 25.4981 199.697 24.3981 201.497 23.6981C202.897 22.9981 204.697 23.1981 205.997 22.3981C206.497 22.0981 206.897 21.6981 207.197 21.3981C207.497 21.3981 207.497 21.6981 207.597 21.8981C207.997 24.2981 207.597 26.7981 205.497 28.1981C204.697 28.7981 203.697 28.9981 202.797 29.1981C201.997 29.4981 200.397 28.8981 200.497 30.2981C200.697 30.9981 201.297 31.3981 201.797 31.8981C204.597 34.1981 207.197 37.1981 207.497 40.7981C207.597 43.5981 205.697 45.9981 203.297 47.1981C201.497 47.8981 199.297 48.1981 197.397 47.6981C196.897 47.5981 196.097 47.0981 195.697 47.7981C195.597 48.5981 196.097 49.1981 196.097 49.8981C196.297 51.1981 196.297 52.8981 195.897 54.1981C195.697 55.1981 194.697 56.3981 195.597 57.3981C196.497 58.7981 198.297 58.3981 199.797 58.5981C200.597 58.6981 200.897 59.5981 201.097 60.1981C201.397 60.9981 201.397 61.8981 201.697 62.4981C201.697 63.9981 203.397 64.5981 204.197 65.5981C205.197 66.6981 206.097 68.5981 207.797 68.4981C208.397 69.6981 208.697 70.7981 208.897 72.1981L208.697 72.3981C207.297 72.3981 205.397 72.7981 204.397 71.7981C203.197 70.9981 202.797 68.7981 200.997 69.3981C200.197 69.9981 199.097 70.1981 198.197 69.7981C197.297 69.4981 196.697 68.6981 195.897 68.1981C193.497 66.3981 190.297 65.4981 187.197 66.1981C185.397 66.6981 183.997 65.3981 182.597 64.5981C180.697 63.7981 180.197 61.7981 179.797 60.0981L179.497 57.9981C179.497 57.7981 179.697 57.5981 179.897 57.4981H180.197C181.297 59.9981 183.397 62.7981 186.097 63.6981C188.597 64.6981 190.897 63.3981 193.597 63.8981C196.097 64.1981 198.097 65.7981 199.997 67.2981C200.197 67.2981 200.297 67.1981 200.397 66.9981V66.7981C198.097 63.8981 194.897 62.3981 191.197 62.6981C188.097 63.2981 185.097 62.2981 183.297 59.6981C182.297 58.1981 181.597 56.5981 181.297 54.8981C180.997 52.8981 180.597 50.6981 179.897 48.8981C179.697 48.7981 179.497 48.5981 179.297 48.6981L179.097 48.9981C179.397 50.8981 179.997 53.1981 179.297 55.1981C178.797 56.7981 177.197 57.3981 175.697 57.4981C174.197 57.5981 172.797 57.2981 171.197 57.2981C167.597 57.1981 164.397 58.5981 160.697 58.2981C160.997 57.3981 161.597 56.4981 161.297 55.4981C161.197 55.2981 160.897 55.2981 160.697 55.2981C159.997 55.6981 160.097 56.5981 159.697 57.1981C158.897 58.4981 157.397 59.6981 155.897 59.9981C154.797 60.7981 153.797 61.8981 152.897 62.8981C152.597 63.1981 152.597 63.7981 152.697 64.1981C153.397 65.9981 155.497 66.1981 157.097 66.6981C157.897 66.7981 158.597 66.4981 158.997 65.7981C159.697 64.6981 159.797 62.8981 161.397 62.6981H164.897C165.197 62.7981 165.397 62.9981 165.597 63.2981L165.497 63.7981C164.697 64.6981 164.397 65.9981 163.397 66.5981C162.797 66.7981 162.097 66.5981 161.697 67.0981C161.497 68.2981 161.197 69.5981 159.997 70.1981C159.097 70.9981 157.797 70.5981 156.797 70.2981C154.897 69.5981 152.997 69.1981 151.097 68.5981C150.297 68.3981 149.997 67.3981 149.097 67.1981C148.297 66.9981 147.397 67.5981 146.697 66.8981C146.297 65.9981 146.097 65.3981 145.897 64.3981C145.597 63.7981 145.397 63.0981 145.297 62.3981C145.197 61.7981 145.297 61.3981 145.497 60.8981L148.097 56.1981C148.297 55.8981 148.497 55.5981 148.797 55.4981C149.397 55.5981 150.097 55.8981 150.697 56.1981L150.597 56.4981L147.897 60.5981C147.297 61.8981 147.897 63.3981 148.497 64.4981C148.597 64.5981 148.697 64.7981 148.797 64.6981C148.697 63.8981 148.597 63.0981 148.797 62.1981C148.997 61.3981 149.497 60.6981 149.897 59.9981L151.997 56.8981C152.197 56.3981 152.197 55.5981 151.797 55.0981C150.897 54.1981 149.597 53.8981 148.797 52.6981C147.097 50.3981 146.897 47.6981 146.697 44.7981C146.697 44.5981 146.497 44.2981 146.197 44.1981C145.997 44.0981 145.797 44.3981 145.697 44.4981C145.197 46.3981 145.497 48.6981 145.997 50.3981C146.297 51.6981 146.897 52.9981 147.497 54.1981C147.597 54.3981 147.397 54.6981 147.197 54.7981C145.797 54.8981 144.397 54.7981 143.097 54.5981C141.297 54.2981 139.997 52.8981 138.497 51.7981C138.297 51.6981 138.197 51.8981 138.097 51.9981C138.497 53.9981 140.697 55.1981 141.397 56.9981C141.797 58.4981 143.297 59.5981 143.597 61.1981C143.597 61.3981 143.397 61.6981 143.197 61.7981C142.697 61.8981 142.197 61.5981 141.697 61.8981C141.597 62.7981 142.197 63.6981 141.797 64.4981C141.297 65.2981 140.597 66.1981 139.697 66.1981C137.897 65.5981 136.097 64.7981 134.297 64.2981C132.997 64.1981 131.697 64.3981 130.497 64.4981C129.297 64.2981 128.497 63.1981 127.597 62.5981C127.297 62.4981 126.997 62.4981 126.797 62.6981C124.797 64.6981 122.597 66.8981 119.597 66.7981C119.397 66.7981 119.297 66.5981 119.297 66.3981V66.1981C120.597 64.9981 122.197 63.7981 122.797 62.0981C123.197 60.6981 124.397 59.6981 124.897 58.3981C124.997 58.1981 124.797 58.0981 124.597 57.9981L124.297 58.1981C122.797 59.6981 121.697 61.3981 120.597 62.9981C119.497 64.0981 117.897 64.7981 116.197 64.3981C115.997 64.2981 115.997 63.9981 116.097 63.7981C122.297 59.9981 122.997 53.1981 124.697 46.9981C125.897 42.8981 126.797 38.6981 129.997 35.3981C134.797 30.0981 140.797 26.9981 146.097 22.3981C146.897 21.6981 147.697 20.9981 148.697 20.9981C151.297 20.7981 153.297 21.7981 155.097 23.2981ZM212.197 67.4981C212.697 68.1981 212.497 69.2981 212.697 70.0981C212.797 70.6981 213.597 71.1981 213.197 71.7981L210.997 72.4981C210.597 72.4981 210.797 71.9981 210.597 71.7981C210.397 70.4981 210.097 69.5981 209.697 68.3981C209.597 67.6981 210.297 67.1981 210.797 66.7981C211.297 66.5981 211.697 67.1981 212.197 67.4981ZM207.097 62.9981C207.897 63.6981 208.997 64.1981 209.597 65.0981C209.697 65.4981 209.397 65.8981 209.197 66.1981C208.897 66.4981 208.497 66.6981 207.997 66.6981C207.497 66.6981 207.097 66.3981 206.797 65.9981C206.297 65.1981 205.597 64.4981 205.397 63.6981C205.697 63.1981 206.397 62.3981 207.097 62.9981ZM158.897 62.1981C158.797 63.1981 158.497 64.0981 158.097 64.9981C157.797 65.5981 156.897 65.3981 156.297 65.2981C155.697 65.0981 154.697 64.9981 154.597 64.0981C154.497 63.2981 154.897 62.4981 155.297 61.8981C156.197 61.7981 157.297 61.9981 158.197 61.7981C158.597 61.7981 158.897 61.8981 158.897 62.1981Z"/>
</mask>
<path fill-rule="evenodd" clip-rule="evenodd" d="M133.997 46.9981C134.597 47.7981 135.097 48.5981 135.497 49.5981C135.597 49.7981 135.497 49.9981 135.397 50.1981C135.297 50.3981 135.097 50.5981 134.797 50.3981C134.097 50.1981 134.197 49.0981 133.297 49.1981C132.697 49.1981 132.297 49.6981 131.797 49.9981C130.897 50.7981 129.697 51.5981 129.497 52.7981C129.297 53.1981 129.397 53.8981 128.997 54.0981C128.797 54.1981 128.497 53.9981 128.497 53.7981C128.397 52.1981 128.897 50.6981 129.997 49.5981C131.097 48.6981 131.897 47.3981 132.797 46.2981C133.397 46.1981 133.797 46.5981 133.997 46.9981ZM134.397 60.2981C134.597 60.6981 134.997 61.1981 134.697 61.6981C134.297 61.9981 133.597 61.7981 133.097 61.7981C132.497 61.4981 132.297 60.6981 132.297 59.9981C132.297 59.7981 132.297 59.6981 132.497 59.4981C133.197 59.4981 133.897 59.6981 134.397 60.2981ZM149.397 29.6981C149.697 30.0981 149.397 30.4981 149.197 30.7981C147.797 32.0981 146.097 33.4981 145.097 35.0981C144.697 35.5981 144.397 36.1981 144.197 36.7981C144.197 36.8981 144.097 36.8981 143.997 36.8981C143.697 36.0981 144.097 35.1981 144.297 34.3981C144.997 32.4981 146.597 30.6981 148.297 29.3981C148.497 29.2981 149.197 29.1981 149.397 29.6981ZM155.097 23.2981C156.197 23.9981 156.597 25.4981 157.897 25.7981C160.097 26.2981 162.297 26.7981 164.297 27.7981C165.697 28.4981 166.997 29.4981 168.297 30.5981C169.497 31.1981 170.997 31.1981 172.297 31.5981C174.197 32.0981 175.697 33.4981 177.397 34.5981C179.597 36.2981 182.697 36.0981 185.197 37.1981C189.197 38.4981 192.397 41.5981 196.097 43.3981C197.997 44.3981 200.897 44.7981 202.797 43.6981C204.097 42.7981 204.897 41.5981 204.597 39.8981C203.897 35.7981 199.397 33.6981 197.297 30.2981C196.897 29.4981 196.597 28.3981 196.797 27.4981C197.597 25.4981 199.697 24.3981 201.497 23.6981C202.897 22.9981 204.697 23.1981 205.997 22.3981C206.497 22.0981 206.897 21.6981 207.197 21.3981C207.497 21.3981 207.497 21.6981 207.597 21.8981C207.997 24.2981 207.597 26.7981 205.497 28.1981C204.697 28.7981 203.697 28.9981 202.797 29.1981C201.997 29.4981 200.397 28.8981 200.497 30.2981C200.697 30.9981 201.297 31.3981 201.797 31.8981C204.597 34.1981 207.197 37.1981 207.497 40.7981C207.597 43.5981 205.697 45.9981 203.297 47.1981C201.497 47.8981 199.297 48.1981 197.397 47.6981C196.897 47.5981 196.097 47.0981 195.697 47.7981C195.597 48.5981 196.097 49.1981 196.097 49.8981C196.297 51.1981 196.297 52.8981 195.897 54.1981C195.697 55.1981 194.697 56.3981 195.597 57.3981C196.497 58.7981 198.297 58.3981 199.797 58.5981C200.597 58.6981 200.897 59.5981 201.097 60.1981C201.397 60.9981 201.397 61.8981 201.697 62.4981C201.697 63.9981 203.397 64.5981 204.197 65.5981C205.197 66.6981 206.097 68.5981 207.797 68.4981C208.397 69.6981 208.697 70.7981 208.897 72.1981L208.697 72.3981C207.297 72.3981 205.397 72.7981 204.397 71.7981C203.197 70.9981 202.797 68.7981 200.997 69.3981C200.197 69.9981 199.097 70.1981 198.197 69.7981C197.297 69.4981 196.697 68.6981 195.897 68.1981C193.497 66.3981 190.297 65.4981 187.197 66.1981C185.397 66.6981 183.997 65.3981 182.597 64.5981C180.697 63.7981 180.197 61.7981 179.797 60.0981L179.497 57.9981C179.497 57.7981 179.697 57.5981 179.897 57.4981H180.197C181.297 59.9981 183.397 62.7981 186.097 63.6981C188.597 64.6981 190.897 63.3981 193.597 63.8981C196.097 64.1981 198.097 65.7981 199.997 67.2981C200.197 67.2981 200.297 67.1981 200.397 66.9981V66.7981C198.097 63.8981 194.897 62.3981 191.197 62.6981C188.097 63.2981 185.097 62.2981 183.297 59.6981C182.297 58.1981 181.597 56.5981 181.297 54.8981C180.997 52.8981 180.597 50.6981 179.897 48.8981C179.697 48.7981 179.497 48.5981 179.297 48.6981L179.097 48.9981C179.397 50.8981 179.997 53.1981 179.297 55.1981C178.797 56.7981 177.197 57.3981 175.697 57.4981C174.197 57.5981 172.797 57.2981 171.197 57.2981C167.597 57.1981 164.397 58.5981 160.697 58.2981C160.997 57.3981 161.597 56.4981 161.297 55.4981C161.197 55.2981 160.897 55.2981 160.697 55.2981C159.997 55.6981 160.097 56.5981 159.697 57.1981C158.897 58.4981 157.397 59.6981 155.897 59.9981C154.797 60.7981 153.797 61.8981 152.897 62.8981C152.597 63.1981 152.597 63.7981 152.697 64.1981C153.397 65.9981 155.497 66.1981 157.097 66.6981C157.897 66.7981 158.597 66.4981 158.997 65.7981C159.697 64.6981 159.797 62.8981 161.397 62.6981H164.897C165.197 62.7981 165.397 62.9981 165.597 63.2981L165.497 63.7981C164.697 64.6981 164.397 65.9981 163.397 66.5981C162.797 66.7981 162.097 66.5981 161.697 67.0981C161.497 68.2981 161.197 69.5981 159.997 70.1981C159.097 70.9981 157.797 70.5981 156.797 70.2981C154.897 69.5981 152.997 69.1981 151.097 68.5981C150.297 68.3981 149.997 67.3981 149.097 67.1981C148.297 66.9981 147.397 67.5981 146.697 66.8981C146.297 65.9981 146.097 65.3981 145.897 64.3981C145.597 63.7981 145.397 63.0981 145.297 62.3981C145.197 61.7981 145.297 61.3981 145.497 60.8981L148.097 56.1981C148.297 55.8981 148.497 55.5981 148.797 55.4981C149.397 55.5981 150.097 55.8981 150.697 56.1981L150.597 56.4981L147.897 60.5981C147.297 61.8981 147.897 63.3981 148.497 64.4981C148.597 64.5981 148.697 64.7981 148.797 64.6981C148.697 63.8981 148.597 63.0981 148.797 62.1981C148.997 61.3981 149.497 60.6981 149.897 59.9981L151.997 56.8981C152.197 56.3981 152.197 55.5981 151.797 55.0981C150.897 54.1981 149.597 53.8981 148.797 52.6981C147.097 50.3981 146.897 47.6981 146.697 44.7981C146.697 44.5981 146.497 44.2981 146.197 44.1981C145.997 44.0981 145.797 44.3981 145.697 44.4981C145.197 46.3981 145.497 48.6981 145.997 50.3981C146.297 51.6981 146.897 52.9981 147.497 54.1981C147.597 54.3981 147.397 54.6981 147.197 54.7981C145.797 54.8981 144.397 54.7981 143.097 54.5981C141.297 54.2981 139.997 52.8981 138.497 51.7981C138.297 51.6981 138.197 51.8981 138.097 51.9981C138.497 53.9981 140.697 55.1981 141.397 56.9981C141.797 58.4981 143.297 59.5981 143.597 61.1981C143.597 61.3981 143.397 61.6981 143.197 61.7981C142.697 61.8981 142.197 61.5981 141.697 61.8981C141.597 62.7981 142.197 63.6981 141.797 64.4981C141.297 65.2981 140.597 66.1981 139.697 66.1981C137.897 65.5981 136.097 64.7981 134.297 64.2981C132.997 64.1981 131.697 64.3981 130.497 64.4981C129.297 64.2981 128.497 63.1981 127.597 62.5981C127.297 62.4981 126.997 62.4981 126.797 62.6981C124.797 64.6981 122.597 66.8981 119.597 66.7981C119.397 66.7981 119.297 66.5981 119.297 66.3981V66.1981C120.597 64.9981 122.197 63.7981 122.797 62.0981C123.197 60.6981 124.397 59.6981 124.897 58.3981C124.997 58.1981 124.797 58.0981 124.597 57.9981L124.297 58.1981C122.797 59.6981 121.697 61.3981 120.597 62.9981C119.497 64.0981 117.897 64.7981 116.197 64.3981C115.997 64.2981 115.997 63.9981 116.097 63.7981C122.297 59.9981 122.997 53.1981 124.697 46.9981C125.897 42.8981 126.797 38.6981 129.997 35.3981C134.797 30.0981 140.797 26.9981 146.097 22.3981C146.897 21.6981 147.697 20.9981 148.697 20.9981C151.297 20.7981 153.297 21.7981 155.097 23.2981ZM212.197 67.4981C212.697 68.1981 212.497 69.2981 212.697 70.0981C212.797 70.6981 213.597 71.1981 213.197 71.7981L210.997 72.4981C210.597 72.4981 210.797 71.9981 210.597 71.7981C210.397 70.4981 210.097 69.5981 209.697 68.3981C209.597 67.6981 210.297 67.1981 210.797 66.7981C211.297 66.5981 211.697 67.1981 212.197 67.4981ZM207.097 62.9981C207.897 63.6981 208.997 64.1981 209.597 65.0981C209.697 65.4981 209.397 65.8981 209.197 66.1981C208.897 66.4981 208.497 66.6981 207.997 66.6981C207.497 66.6981 207.097 66.3981 206.797 65.9981C206.297 65.1981 205.597 64.4981 205.397 63.6981C205.697 63.1981 206.397 62.3981 207.097 62.9981ZM158.897 62.1981C158.797 63.1981 158.497 64.0981 158.097 64.9981C157.797 65.5981 156.897 65.3981 156.297 65.2981C155.697 65.0981 154.697 64.9981 154.597 64.0981C154.497 63.2981 154.897 62.4981 155.297 61.8981C156.197 61.7981 157.297 61.9981 158.197 61.7981C158.597 61.7981 158.897 61.8981 158.897 62.1981Z" fill="black"/>
<path fill-rule="evenodd" clip-rule="evenodd" d="M133.997 46.9981C134.597 47.7981 135.097 48.5981 135.497 49.5981C135.597 49.7981 135.497 49.9981 135.397 50.1981C135.297 50.3981 135.097 50.5981 134.797 50.3981C134.097 50.1981 134.197 49.0981 133.297 49.1981C132.697 49.1981 132.297 49.6981 131.797 49.9981C130.897 50.7981 129.697 51.5981 129.497 52.7981C129.297 53.1981 129.397 53.8981 128.997 54.0981C128.797 54.1981 128.497 53.9981 128.497 53.7981C128.397 52.1981 128.897 50.6981 129.997 49.5981C131.097 48.6981 131.897 47.3981 132.797 46.2981C133.397 46.1981 133.797 46.5981 133.997 46.9981ZM134.397 60.2981C134.597 60.6981 134.997 61.1981 134.697 61.6981C134.297 61.9981 133.597 61.7981 133.097 61.7981C132.497 61.4981 132.297 60.6981 132.297 59.9981C132.297 59.7981 132.297 59.6981 132.497 59.4981C133.197 59.4981 133.897 59.6981 134.397 60.2981ZM149.397 29.6981C149.697 30.0981 149.397 30.4981 149.197 30.7981C147.797 32.0981 146.097 33.4981 145.097 35.0981C144.697 35.5981 144.397 36.1981 144.197 36.7981C144.197 36.8981 144.097 36.8981 143.997 36.8981C143.697 36.0981 144.097 35.1981 144.297 34.3981C144.997 32.4981 146.597 30.6981 148.297 29.3981C148.497 29.2981 149.197 29.1981 149.397 29.6981ZM155.097 23.2981C156.197 23.9981 156.597 25.4981 157.897 25.7981C160.097 26.2981 162.297 26.7981 164.297 27.7981C165.697 28.4981 166.997 29.4981 168.297 30.5981C169.497 31.1981 170.997 31.1981 172.297 31.5981C174.197 32.0981 175.697 33.4981 177.397 34.5981C179.597 36.2981 182.697 36.0981 185.197 37.1981C189.197 38.4981 192.397 41.5981 196.097 43.3981C197.997 44.3981 200.897 44.7981 202.797 43.6981C204.097 42.7981 204.897 41.5981 204.597 39.8981C203.897 35.7981 199.397 33.6981 197.297 30.2981C196.897 29.4981 196.597 28.3981 196.797 27.4981C197.597 25.4981 199.697 24.3981 201.497 23.6981C202.897 22.9981 204.697 23.1981 205.997 22.3981C206.497 22.0981 206.897 21.6981 207.197 21.3981C207.497 21.3981 207.497 21.6981 207.597 21.8981C207.997 24.2981 207.597 26.7981 205.497 28.1981C204.697 28.7981 203.697 28.9981 202.797 29.1981C201.997 29.4981 200.397 28.8981 200.497 30.2981C200.697 30.9981 201.297 31.3981 201.797 31.8981C204.597 34.1981 207.197 37.1981 207.497 40.7981C207.597 43.5981 205.697 45.9981 203.297 47.1981C201.497 47.8981 199.297 48.1981 197.397 47.6981C196.897 47.5981 196.097 47.0981 195.697 47.7981C195.597 48.5981 196.097 49.1981 196.097 49.8981C196.297 51.1981 196.297 52.8981 195.897 54.1981C195.697 55.1981 194.697 56.3981 195.597 57.3981C196.497 58.7981 198.297 58.3981 199.797 58.5981C200.597 58.6981 200.897 59.5981 201.097 60.1981C201.397 60.9981 201.397 61.8981 201.697 62.4981C201.697 63.9981 203.397 64.5981 204.197 65.5981C205.197 66.6981 206.097 68.5981 207.797 68.4981C208.397 69.6981 208.697 70.7981 208.897 72.1981L208.697 72.3981C207.297 72.3981 205.397 72.7981 204.397 71.7981C203.197 70.9981 202.797 68.7981 200.997 69.3981C200.197 69.9981 199.097 70.1981 198.197 69.7981C197.297 69.4981 196.697 68.6981 195.897 68.1981C193.497 66.3981 190.297 65.4981 187.197 66.1981C185.397 66.6981 183.997 65.3981 182.597 64.5981C180.697 63.7981 180.197 61.7981 179.797 60.0981L179.497 57.9981C179.497 57.7981 179.697 57.5981 179.897 57.4981H180.197C181.297 59.9981 183.397 62.7981 186.097 63.6981C188.597 64.6981 190.897 63.3981 193.597 63.8981C196.097 64.1981 198.097 65.7981 199.997 67.2981C200.197 67.2981 200.297 67.1981 200.397 66.9981V66.7981C198.097 63.8981 194.897 62.3981 191.197 62.6981C188.097 63.2981 185.097 62.2981 183.297 59.6981C182.297 58.1981 181.597 56.5981 181.297 54.8981C180.997 52.8981 180.597 50.6981 179.897 48.8981C179.697 48.7981 179.497 48.5981 179.297 48.6981L179.097 48.9981C179.397 50.8981 179.997 53.1981 179.297 55.1981C178.797 56.7981 177.197 57.3981 175.697 57.4981C174.197 57.5981 172.797 57.2981 171.197 57.2981C167.597 57.1981 164.397 58.5981 160.697 58.2981C160.997 57.3981 161.597 56.4981 161.297 55.4981C161.197 55.2981 160.897 55.2981 160.697 55.2981C159.997 55.6981 160.097 56.5981 159.697 57.1981C158.897 58.4981 157.397 59.6981 155.897 59.9981C154.797 60.7981 153.797 61.8981 152.897 62.8981C152.597 63.1981 152.597 63.7981 152.697 64.1981C153.397 65.9981 155.497 66.1981 157.097 66.6981C157.897 66.7981 158.597 66.4981 158.997 65.7981C159.697 64.6981 159.797 62.8981 161.397 62.6981H164.897C165.197 62.7981 165.397 62.9981 165.597 63.2981L165.497 63.7981C164.697 64.6981 164.397 65.9981 163.397 66.5981C162.797 66.7981 162.097 66.5981 161.697 67.0981C161.497 68.2981 161.197 69.5981 159.997 70.1981C159.097 70.9981 157.797 70.5981 156.797 70.2981C154.897 69.5981 152.997 69.1981 151.097 68.5981C150.297 68.3981 149.997 67.3981 149.097 67.1981C148.297 66.9981 147.397 67.5981 146.697 66.8981C146.297 65.9981 146.097 65.3981 145.897 64.3981C145.597 63.7981 145.397 63.0981 145.297 62.3981C145.197 61.7981 145.297 61.3981 145.497 60.8981L148.097 56.1981C148.297 55.8981 148.497 55.5981 148.797 55.4981C149.397 55.5981 150.097 55.8981 150.697 56.1981L150.597 56.4981L147.897 60.5981C147.297 61.8981 147.897 63.3981 148.497 64.4981C148.597 64.5981 148.697 64.7981 148.797 64.6981C148.697 63.8981 148.597 63.0981 148.797 62.1981C148.997 61.3981 149.497 60.6981 149.897 59.9981L151.997 56.8981C152.197 56.3981 152.197 55.5981 151.797 55.0981C150.897 54.1981 149.597 53.8981 148.797 52.6981C147.097 50.3981 146.897 47.6981 146.697 44.7981C146.697 44.5981 146.497 44.2981 146.197 44.1981C145.997 44.0981 145.797 44.3981 145.697 44.4981C145.197 46.3981 145.497 48.6981 145.997 50.3981C146.297 51.6981 146.897 52.9981 147.497 54.1981C147.597 54.3981 147.397 54.6981 147.197 54.7981C145.797 54.8981 144.397 54.7981 143.097 54.5981C141.297 54.2981 139.997 52.8981 138.497 51.7981C138.297 51.6981 138.197 51.8981 138.097 51.9981C138.497 53.9981 140.697 55.1981 141.397 56.9981C141.797 58.4981 143.297 59.5981 143.597 61.1981C143.597 61.3981 143.397 61.6981 143.197 61.7981C142.697 61.8981 142.197 61.5981 141.697 61.8981C141.597 62.7981 142.197 63.6981 141.797 64.4981C141.297 65.2981 140.597 66.1981 139.697 66.1981C137.897 65.5981 136.097 64.7981 134.297 64.2981C132.997 64.1981 131.697 64.3981 130.497 64.4981C129.297 64.2981 128.497 63.1981 127.597 62.5981C127.297 62.4981 126.997 62.4981 126.797 62.6981C124.797 64.6981 122.597 66.8981 119.597 66.7981C119.397 66.7981 119.297 66.5981 119.297 66.3981V66.1981C120.597 64.9981 122.197 63.7981 122.797 62.0981C123.197 60.6981 124.397 59.6981 124.897 58.3981C124.997 58.1981 124.797 58.0981 124.597 57.9981L124.297 58.1981C122.797 59.6981 121.697 61.3981 120.597 62.9981C119.497 64.0981 117.897 64.7981 116.197 64.3981C115.997 64.2981 115.997 63.9981 116.097 63.7981C122.297 59.9981 122.997 53.1981 124.697 46.9981C125.897 42.8981 126.797 38.6981 129.997 35.3981C134.797 30.0981 140.797 26.9981 146.097 22.3981C146.897 21.6981 147.697 20.9981 148.697 20.9981C151.297 20.7981 153.297 21.7981 155.097 23.2981ZM212.197 67.4981C212.697 68.1981 212.497 69.2981 212.697 70.0981C212.797 70.6981 213.597 71.1981 213.197 71.7981L210.997 72.4981C210.597 72.4981 210.797 71.9981 210.597 71.7981C210.397 70.4981 210.097 69.5981 209.697 68.3981C209.597 67.6981 210.297 67.1981 210.797 66.7981C211.297 66.5981 211.697 67.1981 212.197 67.4981ZM207.097 62.9981C207.897 63.6981 208.997 64.1981 209.597 65.0981C209.697 65.4981 209.397 65.8981 209.197 66.1981C208.897 66.4981 208.497 66.6981 207.997 66.6981C207.497 66.6981 207.097 66.3981 206.797 65.9981C206.297 65.1981 205.597 64.4981 205.397 63.6981C205.697 63.1981 206.397 62.3981 207.097 62.9981ZM158.897 62.1981C158.797 63.1981 158.497 64.0981 158.097 64.9981C157.797 65.5981 156.897 65.3981 156.297 65.2981C155.697 65.0981 154.697 64.9981 154.597 64.0981C154.497 63.2981 154.897 62.4981 155.297 61.8981C156.197 61.7981 157.297 61.9981 158.197 61.7981C158.597 61.7981 158.897 61.8981 158.897 62.1981Z" stroke="white" stroke-width="1.6" mask="url(#path-3-outside-2_744_240)"/>
</svg>
