<svg xmlns="http://www.w3.org/2000/svg" viewBox="0 0 1407 1288" fill="none" xmlns:v="https://vecta.io/nano"><path d="M706.328.187L1092.4 43.751a29.55 29.55 0 0 1 20.43 11.766l287.37 387.222c8.21 11.065 7.69 26.335-1.25 36.821l-684.683 803.16c-5.3 6.21-14.635 6.96-20.85 1.66-.597-.51-1.152-1.07-1.66-1.66L7.07 479.56c-8.939-10.486-9.455-25.756-1.243-36.821L293.19 55.517a29.58 29.58 0 0 1 20.436-11.766L699.695.187c2.204-.249 4.429-.249 6.633 0zm80.144 83.541c-2.262-2.275-5.876-2.476-8.377-.467-2.456 1.973-3.035 5.416-1.49 8.055l.528.765 217.712 271.019c2.11 2.627 3.26 5.895 3.26 9.263 0 7.761-5.976 14.125-13.577 14.742l-1.213.049H422.708a14.79 14.79 0 0 1-9.263-3.26c-6.014-4.832-7.253-13.404-3.063-19.706l.796-1.088L628.891 92.082c2.009-2.501 1.807-6.115-.467-8.378-2.234-2.221-5.719-2.415-8.171-.585l-.702.609-294.937 296.546a11.83 11.83 0 0 1-8.949 3.475c-6.143-.291-10.969-5.217-11.258-11.238v-1.141l10.173-214.8a5.92 5.92 0 0 0-11.45-2.356l-.23.772-55.884 247.23c-1.911 8.457-8.279 15.147-16.529 17.522l-1.568.394-138.368 29.812a5.92 5.92 0 0 0 .443 11.646l.803.054h138.026c8.026 0 15.466 4.065 19.814 10.726l.828 1.367 331.109 590.653a8.87 8.87 0 0 0 11.517 3.7c4.139-1.95 6.074-6.69 4.619-10.91l-.365-.9-267.679-569.335c-1.111-2.363-1.687-4.941-1.687-7.552 0-9.376 7.27-17.054 16.48-17.704l1.268-.045H1060.3a17.73 17.73 0 0 1 7.55 1.687 17.76 17.76 0 0 1 9.01 22.448l-.5 1.166-267.682 569.335a8.88 8.88 0 0 0 15.253 8.93l.518-.82 331.111-590.653c3.92-7.002 11.11-11.504 19.04-12.039l1.6-.054h138.03a5.92 5.92 0 0 0 5.78-4.67c.63-2.928-1.02-5.817-3.76-6.808l-.78-.222-138.37-29.812c-8.47-1.826-15.22-8.125-17.68-16.352l-.41-1.564-55.89-247.23c-.63-2.8-3.18-4.741-6.05-4.606-2.99.142-5.36 2.482-5.61 5.385l-.02.805 10.18 214.8a11.87 11.87 0 0 1-3.48 8.949c-4.34 4.321-11.2 4.573-15.83.77l-.9-.815L786.472 83.728z" fill="#000"/></svg>