<svg xmlns="http://www.w3.org/2000/svg" viewBox="0 0 1407 1288" fill="none" xmlns:v="https://vecta.io/nano"><path d="M706.658.187l386.252 43.564a29.59 29.59 0 0 1 20.44 11.766l287.5 387.222c8.22 11.065 7.7 26.335-1.24 36.821L714.6 1282.72a14.81 14.81 0 0 1-20.859 1.66c-.597-.51-1.152-1.07-1.661-1.66L7.073 479.56c-8.943-10.486-9.459-25.756-1.244-36.821L293.327 55.517c4.889-6.585 12.294-10.846 20.446-11.766L700.022.187c2.205-.249 4.431-.249 6.636 0zm80.182 83.541a6.28 6.28 0 0 0-8.382-.467c-2.457 1.973-3.036 5.416-1.49 8.055l.528.765L995.31 363.101a14.79 14.79 0 0 1 3.262 9.263c0 7.761-5.979 14.125-13.584 14.742l-1.213.049h-560.87a14.8 14.8 0 0 1-9.267-3.26 14.79 14.79 0 0 1-3.064-19.706l.796-1.088L629.184 92.082a6.27 6.27 0 0 0-.467-8.378 6.28 6.28 0 0 0-8.174-.585l-.702.609-295.075 296.546a11.84 11.84 0 0 1-20.217-7.763v-1.141l10.178-214.8a5.92 5.92 0 0 0-4.607-6.051c-2.923-.66-5.829.965-6.849 3.695l-.229.772-55.91 247.23a23.67 23.67 0 0 1-16.537 17.522l-1.569.394-138.433 29.812a5.92 5.92 0 0 0 .443 11.646l.803.054h138.091a23.68 23.68 0 0 1 19.822 10.726l.829 1.367 331.264 590.653c2.278 4.07 7.307 5.68 11.522 3.7 4.141-1.95 6.077-6.69 4.621-10.91l-.365-.9L329.82 486.945a17.75 17.75 0 0 1-1.688-7.552c0-9.376 7.274-17.054 16.488-17.704l1.268-.045h714.902a17.81 17.81 0 0 1 7.56 1.687 17.75 17.75 0 0 1 9.01 22.448l-.5 1.166-267.804 569.335a8.88 8.88 0 0 0 3.693 11.52c3.991 2.23 8.971 1.06 11.567-2.59l.518-.82L1156.1 473.737c3.93-7.002 11.11-11.504 19.05-12.039l1.6-.054h138.09c2.79 0 5.2-1.945 5.79-4.67.63-2.928-1.03-5.817-3.77-6.808l-.77-.222-138.44-29.812c-8.48-1.826-15.23-8.125-17.69-16.352l-.41-1.564-55.91-247.23a5.92 5.92 0 0 0-6.05-4.606c-3 .142-5.37 2.482-5.62 5.385l-.02.805 10.18 214.8c.16 3.34-1.1 6.591-3.48 8.949a11.84 11.84 0 0 1-15.84.77l-.9-.815L786.84 83.728z" fill="#fff"/></svg>