<svg xmlns="http://www.w3.org/2000/svg" viewBox="0 0 1789 2701" fill="none" xmlns:v="https://vecta.io/nano"><g fill="#f7b927"><path d="M0 0h809v279H0zm0 1933h809v279H0z"/><path d="M515 0h294v2212H515zm1256 0H962v279h809zm0 1933H962v279h809z"/><path d="M1256 0H962v2212h294z"/></g><path d="M356.643 2335H0v41.98h153.087V2701h50.469v-324.02h153.087V2335zM820.5 2701l-130.893-152.32c62.244-8.61 97.011-45.75 97.011-106.03 0-68.9-44.861-107.65-124.488-107.65H433.34v366h50.468v-150.71h146.919L761 2701h59.5zm-336.692-324.02h168.789c54.954 0 82.431 21.53 82.431 65.67 0 44.13-27.477 65.66-82.431 65.66H483.808v-131.33zM883.481 2701h50.468v-366h-50.468v366zm449.569 0H1388l-180-366h-51.03l-90 183-90.006 183h52.706l47.11-96.34h209.16l47.11 96.34zm-151.41-313.25l84.11 174.92h-168.78l84.67-174.92zm410.59-52.75h-170.47v366h170.47c119.45 0 196.27-71.59 196.27-183s-76.82-183-196.27-183zm-5.6 324.02h-114.4v-282.04h114.4c93.08 0 150.28 53.83 150.28 141.02s-57.2 141.02-150.28 141.02z" fill="#000"/></svg>