<svg xmlns="http://www.w3.org/2000/svg" viewBox="0 0 3755 2927" fill="#fff" fill-rule="evenodd" xmlns:v="https://vecta.io/nano"><path d="M2615.83 1092.88l300.97-337.67-441.93-96.34 45.04-450.088-414.19 181.776L1877.5 0l-228.11 390.52-414.09-181.909 44.93 450.088-441.992 96.284 300.912 337.757-300.969 337.65 441.929 96.34-45.02 450.07 414.15-181.8 228.26 390.56 228.09-390.52 414.13 181.89-44.93-450.09 441.95-96.26-300.91-337.7zm145.99 254.01l-260.69-89.17-172.95-224.81 230.04 85.47 203.6 228.51zm-698.43 401.48l-155.91 266.95v-283.05l162.06-236.49-6.15 252.59zM1790.3 641.688l-268.27-95.392-160.52-216.728 281.34 123.592 147.45 188.528zm321.98-188.471L2393.6 329.7l-160.63 216.577-268.19 95.392 147.5-188.452zm301.05 218.416l-139.9 198.37 7.92-288.243 162.95-219.725-30.97 309.598zM1877.5 1669.93l-187.71-273.87 187.71-254.69 187.69 254.69-187.69 273.87zm-333.83-723.253l-9.13-332.279 312.98 111.284v323.388l-303.85-102.393zm363.81-220.995l312.98-111.284-9.14 332.298-303.84 102.374V725.682zM1341.77 671.5l-30.91-309.522 162.79 219.763 7.91 288.186L1341.77 671.5zm487.2 434.61l-187.64 254.6-318.74-93.97L1525 1003.7l303.97 102.41zm-143.56 389.63l162.11 236.53v283.1l-156.06-267.04-6.05-252.59zm240.6-389.63l304-102.41 202.41 263.04-318.77 93.99-187.64-254.62zm877.72-314.146l-236.79 265.696-279.25-103.757 167.76-237.893 348.28 75.954zM1877.5 118.908l179.65 307.417-179.65 229.548-179.54-229.567 179.54-307.398zM951.324 791.717l348.346-75.858 167.64 238.006-279.21 103.605-236.776-265.753zm245.426 326.513l230.13-85.38-172.99 224.83-260.806 89.06 203.666-228.51zm-190.49 287.39l266.53-91.01 277.61 81.83-239.18 75.67-304.96-66.49zm334.24 120.12l283.48-89.7 7.23 301.35-326.2 143.22 35.49-354.87zm783.14 211.73l7.34-301.41 283.45 89.8 35.42 354.88-326.21-143.27zm320.07-265.24l-239.18-75.77 277.7-81.85 266.56 91.18-305.08 66.44zM0 2415.24h129.434l60.914 336.25 89.779-336.25h113.788l106.581 342.13 62.318-342.13H685.8l-105.216 503.14H438.595l-94.425-313.91-96.587 313.89H98.616L0 2415.24zm3755 503.14h-129.43l-60.82-337.48-89.86 337.46h-113.84l-106.11-342.05-62.73 342.05h-123.03l105.24-503.14h141.97l94.4 314.17 96.68-314.15h148.89l98.64 503.14zM956.861 2406.52c163.759 0 249.199 98.81 249.199 260.27 0 160.02-86.86 260.18-249.199 260.18-162.28 0-249.138-100.16-249.138-260.18 0-161.45 85.417-260.25 249.138-260.25v-.02zm0 420.98c80.469 0 112.459-77.85 112.459-160.71 0-87.29-31.99-160.76-112.459-160.76s-112.479 73.47-112.479 160.76c0 82.88 32.012 160.71 112.46 160.71h.019zm323.249-412.33h132.43v403.68h205.03v99.41h-337.46v-503.09zm392.29 0h332.35v95.16h-199.96v110.32h191.43v95.09h-191.43v202.52H1672.4v-503.09zm401.59 0h236.34c88.3 0 160.21 40.34 160.21 126.91 0 67.06-31.33 111.7-95.39 126.83v1.48c42.67 11.53 45.57 49.75 70.47 111.02l48.36 136.85h-138.06l-28.45-90.76c-27.12-86.48-44.15-108.14-93.26-108.14h-27.82v198.9h-132.4v-503.09zm132.38 209.1h34.97c42.67 0 96.79-1.46 96.79-58.43 0-46.84-46.27-55.51-96.79-55.51h-34.95l-.02 113.94zm488.22-209.1h162.36l191.48 503.09H2903.2l-37.02-107.34H2679.7l-39.18 107.34h-134.59l188.66-503.09zm81.19 103.85h-1.38l-64.07 196.72h124.52l-59.07-196.72z"/></svg>